<svg xmlns="http://www.w3.org/2000/svg" xmlns:xlink="http://www.w3.org/1999/xlink" contentStyleType="text/css" data-diagram-type="CLASS" height="721px" preserveAspectRatio="none" style="width:571px;height:721px;background:#FFFFFF;" version="1.1" viewBox="0 0 571 721" width="571px" zoomAndPan="magnify"><defs/><g><!--cluster score--><g id="cluster_score"><path d="M8.5,6 L52.1494,6 A3.75,3.75 0 0 1 54.6494,8.5 L61.6494,28.2969 L561.5,28.2969 A2.5,2.5 0 0 1 564,30.7969 L564,711.5 A2.5,2.5 0 0 1 561.5,714 L8.5,714 A2.5,2.5 0 0 1 6,711.5 L6,8.5 A2.5,2.5 0 0 1 8.5,6 " fill="transparent" style="stroke:#000000;stroke-width:1.5;"/><line style="stroke:#000000;stroke-width:1.5;" x1="6" x2="61.6494" y1="28.2969" y2="28.2969"/><text fill="#000000" font-family="sans-serif" font-size="14" font-weight="bold" lengthAdjust="spacing" textLength="42.6494" x="10" y="20.9951">score</text></g><!--cluster json--><g id="cluster_json"><path d="M32.5,49 L66.2168,49 A3.75,3.75 0 0 1 68.7168,51.5 L75.7168,71.2969 L537.5,71.2969 A2.5,2.5 0 0 1 540,73.7969 L540,687.5 A2.5,2.5 0 0 1 537.5,690 L32.5,690 A2.5,2.5 0 0 1 30,687.5 L30,51.5 A2.5,2.5 0 0 1 32.5,49 " fill="transparent" style="stroke:#000000;stroke-width:1.5;"/><line style="stroke:#000000;stroke-width:1.5;" x1="30" x2="75.7168" y1="71.2969" y2="71.2969"/><text fill="#000000" font-family="sans-serif" font-size="14" font-weight="bold" lengthAdjust="spacing" textLength="32.7168" x="34" y="63.9951">json</text></g><!--cluster vajson--><g id="cluster_vajson"><path d="M56.5,92 L108.79,92 A3.75,3.75 0 0 1 111.29,94.5 L118.29,114.2969 L513.5,114.2969 A2.5,2.5 0 0 1 516,116.7969 L516,663.5 A2.5,2.5 0 0 1 513.5,666 L56.5,666 A2.5,2.5 0 0 1 54,663.5 L54,94.5 A2.5,2.5 0 0 1 56.5,92 " fill="transparent" style="stroke:#000000;stroke-width:1.5;"/><line style="stroke:#000000;stroke-width:1.5;" x1="54" x2="118.29" y1="114.2969" y2="114.2969"/><text fill="#000000" font-family="sans-serif" font-size="14" font-weight="bold" lengthAdjust="spacing" textLength="51.29" x="58" y="106.9951">vajson</text></g><!--class VirtualParser--><g id="elem_VirtualParser"><rect codeLine="6" fill="#F1F1F1" height="431.125" id="VirtualParser" rx="2.5" ry="2.5" style="stroke:#181818;stroke-width:0.5;" width="428.9102" x="70.5" y="127"/><ellipse cx="235.458" cy="143" fill="#ADD1B2" rx="11" ry="11" style="stroke:#181818;stroke-width:1;"/><path d="M238.4268,148.6406 Q237.8486,148.9375 237.208,149.0781 Q236.5674,149.2344 235.8643,149.2344 Q233.3643,149.2344 232.0361,147.5938 Q230.7236,145.9375 230.7236,142.8125 Q230.7236,139.6875 232.0361,138.0313 Q233.3643,136.375 235.8643,136.375 Q236.5674,136.375 237.208,136.5313 Q237.8643,136.6875 238.4268,136.9844 L238.4268,139.7031 Q237.8018,139.125 237.208,138.8594 Q236.6143,138.5781 235.9893,138.5781 Q234.6455,138.5781 233.958,139.6563 Q233.2705,140.7188 233.2705,142.8125 Q233.2705,144.9063 233.958,145.9844 Q234.6455,147.0469 235.9893,147.0469 Q236.6143,147.0469 237.208,146.7813 Q237.8018,146.5 238.4268,145.9219 L238.4268,148.6406 Z " fill="#000000"/><text fill="#000000" font-family="sans-serif" font-size="14" lengthAdjust="spacing" textLength="90.4941" x="255.958" y="147.8467">VirtualParser</text><line style="stroke:#181818;stroke-width:0.5;" x1="71.5" x2="498.4102" y1="159" y2="159"/><ellipse cx="81.5" cy="172.6484" fill="#84BE84" rx="3" ry="3" style="stroke:#038048;stroke-width:1;"/><text fill="#000000" font-family="sans-serif" font-size="14" lengthAdjust="spacing" textLength="174.624" x="90.5" y="175.9951">VirtualParser(JsonData&amp;)</text><ellipse cx="81.5" cy="188.9453" fill="#84BE84" rx="3" ry="3" style="stroke:#038048;stroke-width:1;"/><text fill="#000000" font-family="sans-serif" font-size="14" lengthAdjust="spacing" textLength="257.4346" x="90.5" y="192.292">virtual auto Parse() -&gt; Result&lt;void&gt;</text><ellipse cx="81.5" cy="205.2422" fill="#84BE84" rx="3" ry="3" style="stroke:#038048;stroke-width:1;"/><text fill="#000000" font-family="sans-serif" font-size="14" lengthAdjust="spacing" textLength="226.2217" x="90.5" y="208.5889">auto SubParse() -&gt; ParserResult</text><text fill="#000000" font-family="sans-serif" font-size="14" lengthAdjust="spacing" textLength="4.4502" x="90.5" y="224.8857">&#160;</text><polygon fill="#FFFF44" points="81.5,232.8359,85.5,236.8359,81.5,240.8359,77.5,236.8359" style="stroke:#B38D22;stroke-width:1;"/><text fill="#000000" font-family="sans-serif" font-size="14" lengthAdjust="spacing" textLength="304.1855" x="90.5" y="241.1826">auto GetCurrentKey() const -&gt; CStringView</text><polygon fill="#FFFF44" points="81.5,249.1328,85.5,253.1328,81.5,257.1328,77.5,253.1328" style="stroke:#B38D22;stroke-width:1;"/><text fill="#000000" font-family="sans-serif" font-size="14" lengthAdjust="spacing" textLength="272.1113" x="90.5" y="257.4795">auto GetJsonDocument() -&gt; JsonData&amp;</text><polygon fill="#FFFF44" points="81.5,265.4297,85.5,269.4297,81.5,273.4297,77.5,269.4297" style="stroke:#B38D22;stroke-width:1;"/><text fill="#000000" font-family="sans-serif" font-size="14" lengthAdjust="spacing" textLength="356.8496" x="90.5" y="273.7764">auto GetJsonDocument() const -&gt; JsonData const&amp;</text><text fill="#000000" font-family="sans-serif" font-size="14" lengthAdjust="spacing" textLength="4.4502" x="90.5" y="290.0732">&#160;</text><rect fill="#F24D5C" height="6" style="stroke:#C82930;stroke-width:1;" width="6" x="78.5" y="300.0234"/><text fill="#000000" font-family="sans-serif" font-size="14" lengthAdjust="spacing" textLength="257.1201" x="90.5" y="306.3701">virtual auto OnNull() -&gt; ParserResult</text><rect fill="#F24D5C" height="6" style="stroke:#C82930;stroke-width:1;" width="6" x="78.5" y="316.3203"/><text fill="#000000" font-family="sans-serif" font-size="14" lengthAdjust="spacing" textLength="290.5273" x="90.5" y="322.667">virtual auto OnBool(bool) -&gt; ParserResult</text><rect fill="#F24D5C" height="6" style="stroke:#C82930;stroke-width:1;" width="6" x="78.5" y="332.6172"/><text fill="#000000" font-family="sans-serif" font-size="14" lengthAdjust="spacing" textLength="402.9102" x="90.5" y="338.9639">virtual auto OnNumber(util::JsonNumber) -&gt; ParserResult</text><rect fill="#F24D5C" height="6" style="stroke:#C82930;stroke-width:1;" width="6" x="78.5" y="348.9141"/><text fill="#000000" font-family="sans-serif" font-size="14" lengthAdjust="spacing" textLength="347.0879" x="90.5" y="355.2607">virtual auto OnString(StringView) -&gt; ParserResult</text><rect fill="#F24D5C" height="6" style="stroke:#C82930;stroke-width:1;" width="6" x="78.5" y="365.2109"/><text fill="#000000" font-family="sans-serif" font-size="14" lengthAdjust="spacing" textLength="331.3857" x="90.5" y="371.5576">virtual auto OnKey(StringView) -&gt; ParserResult</text><rect fill="#F24D5C" height="6" style="stroke:#C82930;stroke-width:1;" width="6" x="78.5" y="381.5078"/><text fill="#000000" font-family="sans-serif" font-size="14" lengthAdjust="spacing" textLength="309.791" x="90.5" y="387.8545">virtual auto OnStartObject() -&gt; ParserResult</text><rect fill="#F24D5C" height="6" style="stroke:#C82930;stroke-width:1;" width="6" x="78.5" y="397.8047"/><text fill="#000000" font-family="sans-serif" font-size="14" lengthAdjust="spacing" textLength="372.9346" x="90.5" y="404.1514">virtual auto OnEndObject(std::size_t) -&gt; ParserResult</text><rect fill="#F24D5C" height="6" style="stroke:#C82930;stroke-width:1;" width="6" x="78.5" y="414.1016"/><text fill="#000000" font-family="sans-serif" font-size="14" lengthAdjust="spacing" textLength="302.1484" x="90.5" y="420.4482">virtual auto OnStartArray() -&gt; ParserResult</text><rect fill="#F24D5C" height="6" style="stroke:#C82930;stroke-width:1;" width="6" x="78.5" y="430.3984"/><text fill="#000000" font-family="sans-serif" font-size="14" lengthAdjust="spacing" textLength="365.292" x="90.5" y="436.7451">virtual auto OnEndArray(std::size_t) -&gt; ParserResult</text><rect fill="#F24D5C" height="6" style="stroke:#C82930;stroke-width:1;" width="6" x="78.5" y="446.6953"/><text fill="#000000" font-family="sans-serif" font-size="14" lengthAdjust="spacing" textLength="314.2686" x="90.5" y="453.042">virtual auto OnBinary(Bytes) -&gt; ParserResult</text><rect fill="#F24D5C" height="6" style="stroke:#C82930;stroke-width:1;" width="6" x="78.5" y="462.9922"/><text fill="#000000" font-family="sans-serif" font-size="14" lengthAdjust="spacing" textLength="354.3066" x="90.5" y="469.3389">virtual auto OnUnexpectedEvent() -&gt; ParserResult</text><text fill="#000000" font-family="sans-serif" font-size="14" lengthAdjust="spacing" textLength="4.4502" x="90.5" y="485.6357">&#160;</text><rect fill="#F24D5C" height="6" style="stroke:#C82930;stroke-width:1;" width="6" x="78.5" y="495.5859"/><text fill="#000000" font-family="sans-serif" font-size="14" lengthAdjust="spacing" textLength="307.6514" x="90.5" y="501.9326">auto OnString(CStringView) -&gt; ParserResult</text><rect fill="#F24D5C" height="6" style="stroke:#C82930;stroke-width:1;" width="6" x="78.5" y="511.8828"/><text fill="#000000" font-family="sans-serif" font-size="14" lengthAdjust="spacing" textLength="342.8633" x="90.5" y="518.2295">auto OnBinaryString(StringView) -&gt; ParserResult</text><rect fill="#F24D5C" height="6" style="stroke:#C82930;stroke-width:1;" width="6" x="78.5" y="528.1797"/><text fill="#000000" font-family="sans-serif" font-size="14" lengthAdjust="spacing" textLength="291.9492" x="90.5" y="534.5264">auto OnKey(CStringView) -&gt; ParserResult</text><rect fill="#F24D5C" height="6" style="stroke:#C82930;stroke-width:1;" width="6" x="78.5" y="544.4766"/><text fill="#000000" font-family="sans-serif" font-size="14" lengthAdjust="spacing" textLength="327.1611" x="90.5" y="550.8232">auto OnBinaryKey(StringView) -&gt; ParserResult</text></g><!--class StructureParser--><g id="elem_StructureParser"><rect codeLine="33" fill="#F1F1F1" height="32" id="StructureParser" rx="2.5" ry="2.5" style="stroke:#181818;stroke-width:0.5;" width="223.4404" x="173.5" y="618"/><ellipse cx="188.5" cy="634" fill="#ADD1B2" rx="11" ry="11" style="stroke:#181818;stroke-width:1;"/><path d="M191.4688,639.6406 Q190.8906,639.9375 190.25,640.0781 Q189.6094,640.2344 188.9063,640.2344 Q186.4063,640.2344 185.0781,638.5938 Q183.7656,636.9375 183.7656,633.8125 Q183.7656,630.6875 185.0781,629.0313 Q186.4063,627.375 188.9063,627.375 Q189.6094,627.375 190.25,627.5313 Q190.9063,627.6875 191.4688,627.9844 L191.4688,630.7031 Q190.8438,630.125 190.25,629.8594 Q189.6563,629.5781 189.0313,629.5781 Q187.6875,629.5781 187,630.6563 Q186.3125,631.7188 186.3125,633.8125 Q186.3125,635.9063 187,636.9844 Q187.6875,638.0469 189.0313,638.0469 Q189.6563,638.0469 190.25,637.7813 Q190.8438,637.5 191.4688,636.9219 L191.4688,639.6406 Z " fill="#000000"/><text fill="#000000" font-family="sans-serif" font-size="14" lengthAdjust="spacing" textLength="109.874" x="202.5" y="638.8467">StructureParser</text><rect fill="#FFFFFF" height="15.9688" style="stroke:#181818;stroke-width:1;stroke-dasharray:2.0,2.0;" width="79.5664" x="320.374" y="615"/><text fill="#000000" font-family="sans-serif" font-size="12" font-style="italic" lengthAdjust="spacing" textLength="77.5664" x="321.374" y="627.1387">VirtualParser</text></g><!--link VirtualParser to StructureParser--><g id="link_VirtualParser_StructureParser"><path codeLine="38" d="M285,558.07 C285,583 285,598.29 285,611.74 " fill="transparent" id="VirtualParser-to-StructureParser" style="stroke:#181818;stroke-width:1;"/><polygon fill="#181818" points="285,617.74,289,608.74,285,612.74,281,608.74,285,617.74" style="stroke:#181818;stroke-width:1;"/></g><!--SRC=[dPHHIyCm483V-ol2XD4X_GDb3DmSWi8c3lSgQNhCp3GPoQLQnVzkkdIrtIQsUsWVBj-Nkzo5lF8K26GxB4W6MGBQ1C6EiZUw0J8mJ6aOaA-0a3gsDKhwK2EOqsQO2MeCMNEDbef7gWteQeMGwtOyl7VUBKKw7DL0xW52BIgony8HYIRa2OmLECuLJoSrl8TMDcbmVcTF1nLuvS4xm9dL6YG-GE5efgJ1qfcjK7EvMNDuFp7s9IfcCwVv37NH_x7r_WV3HuQ7igBsOPToOOKuSue_wAbI8apShxEniEMCGujSn75Pb0zqzdsRmjzkTJRBXb-WhP1gN2PRODYzBtEPLeh1D8uD_uGNx9VoHcjQzCheZKiIJhcakWYd1OBfB3rB-DYv8q8wp-kBUUxgHqUpctMPGgko7aDl3Bj_dYvNv3jeF34EjWoj1e-DMq_BfEBBprdjvoXoUn_PFm00]--></g></svg>