<svg xmlns="http://www.w3.org/2000/svg" xmlns:xlink="http://www.w3.org/1999/xlink" contentStyleType="text/css" data-diagram-type="CLASS" height="479px" preserveAspectRatio="none" style="width:535px;height:479px;background:#FFFFFF;" version="1.1" viewBox="0 0 535 479" width="535px" zoomAndPan="magnify"><defs/><g><!--cluster score--><g id="cluster_score"><path d="M8.5,6 L52.1494,6 A3.75,3.75 0 0 1 54.6494,8.5 L61.6494,28.2969 L525.5,28.2969 A2.5,2.5 0 0 1 528,30.7969 L528,469.5 A2.5,2.5 0 0 1 525.5,472 L8.5,472 A2.5,2.5 0 0 1 6,469.5 L6,8.5 A2.5,2.5 0 0 1 8.5,6 " fill="transparent" style="stroke:#000000;stroke-width:1.5;"/><line style="stroke:#000000;stroke-width:1.5;" x1="6" x2="61.6494" y1="28.2969" y2="28.2969"/><text fill="#000000" font-family="sans-serif" font-size="14" font-weight="bold" lengthAdjust="spacing" textLength="42.6494" x="10" y="20.9951">score</text></g><!--cluster json--><g id="cluster_json"><path d="M32.5,49 L66.2168,49 A3.75,3.75 0 0 1 68.7168,51.5 L75.7168,71.2969 L501.5,71.2969 A2.5,2.5 0 0 1 504,73.7969 L504,445.5 A2.5,2.5 0 0 1 501.5,448 L32.5,448 A2.5,2.5 0 0 1 30,445.5 L30,51.5 A2.5,2.5 0 0 1 32.5,49 " fill="transparent" style="stroke:#000000;stroke-width:1.5;"/><line style="stroke:#000000;stroke-width:1.5;" x1="30" x2="75.7168" y1="71.2969" y2="71.2969"/><text fill="#000000" font-family="sans-serif" font-size="14" font-weight="bold" lengthAdjust="spacing" textLength="32.7168" x="34" y="63.9951">json</text></g><!--cluster vajson--><g id="cluster_vajson"><path d="M56.5,92 L108.79,92 A3.75,3.75 0 0 1 111.29,94.5 L118.29,114.2969 L477.5,114.2969 A2.5,2.5 0 0 1 480,116.7969 L480,421.5 A2.5,2.5 0 0 1 477.5,424 L56.5,424 A2.5,2.5 0 0 1 54,421.5 L54,94.5 A2.5,2.5 0 0 1 56.5,92 " fill="transparent" style="stroke:#000000;stroke-width:1.5;"/><line style="stroke:#000000;stroke-width:1.5;" x1="54" x2="118.29" y1="114.2969" y2="114.2969"/><text fill="#000000" font-family="sans-serif" font-size="14" font-weight="bold" lengthAdjust="spacing" textLength="51.29" x="58" y="106.9951">vajson</text></g><!--class StructureParser--><g id="elem_StructureParser"><rect codeLine="6" fill="#F1F1F1" height="72.5938" id="StructureParser" rx="2.5" ry="2.5" style="stroke:#181818;stroke-width:0.5;" width="329.96" x="134" y="127"/><ellipse cx="199.1621" cy="143" fill="#ADD1B2" rx="11" ry="11" style="stroke:#181818;stroke-width:1;"/><path d="M202.1309,148.6406 Q201.5527,148.9375 200.9121,149.0781 Q200.2715,149.2344 199.5684,149.2344 Q197.0684,149.2344 195.7402,147.5938 Q194.4277,145.9375 194.4277,142.8125 Q194.4277,139.6875 195.7402,138.0313 Q197.0684,136.375 199.5684,136.375 Q200.2715,136.375 200.9121,136.5313 Q201.5684,136.6875 202.1309,136.9844 L202.1309,139.7031 Q201.5059,139.125 200.9121,138.8594 Q200.3184,138.5781 199.6934,138.5781 Q198.3496,138.5781 197.6621,139.6563 Q196.9746,140.7188 196.9746,142.8125 Q196.9746,144.9063 197.6621,145.9844 Q198.3496,147.0469 199.6934,147.0469 Q200.3184,147.0469 200.9121,146.7813 Q201.5059,146.5 202.1309,145.9219 L202.1309,148.6406 Z " fill="#000000"/><text fill="#000000" font-family="sans-serif" font-size="14" lengthAdjust="spacing" textLength="109.874" x="219.6621" y="147.8467">StructureParser</text><rect fill="#FFFFFF" height="15.9688" style="stroke:#181818;stroke-width:1;stroke-dasharray:2.0,2.0;" width="79.2617" x="387.6982" y="124"/><text fill="#000000" font-family="sans-serif" font-size="12" font-style="italic" lengthAdjust="spacing" textLength="77.2617" x="388.6982" y="136.1387">Implementer</text><line style="stroke:#181818;stroke-width:0.5;" x1="135" x2="462.96" y1="159" y2="159"/><ellipse cx="145" cy="172.6484" fill="#84BE84" rx="3" ry="3" style="stroke:#038048;stroke-width:1;"/><text fill="#000000" font-family="sans-serif" font-size="14" lengthAdjust="spacing" textLength="303.96" x="154" y="175.9951">StructureParser(Implementer&amp;, JsonData&amp;)</text><ellipse cx="145" cy="188.9453" fill="#84BE84" rx="3" ry="3" style="stroke:#038048;stroke-width:1;"/><text fill="#000000" font-family="sans-serif" font-size="14" lengthAdjust="spacing" textLength="226.2217" x="154" y="192.292">auto SubParse() -&gt; ParserResult</text></g><!--class StructureParserBase--><g id="elem_StructureParserBase"><rect codeLine="10" fill="#F1F1F1" height="56.2969" id="StructureParserBase" rx="2.5" ry="2.5" style="stroke:#181818;stroke-width:0.5;" width="234.2227" x="70" y="260"/><ellipse cx="96.7149" cy="276" fill="#ADD1B2" rx="11" ry="11" style="stroke:#181818;stroke-width:1;"/><path d="M99.6837,281.6406 Q99.1056,281.9375 98.4649,282.0781 Q97.8243,282.2344 97.1212,282.2344 Q94.6212,282.2344 93.2931,280.5938 Q91.9806,278.9375 91.9806,275.8125 Q91.9806,272.6875 93.2931,271.0313 Q94.6212,269.375 97.1212,269.375 Q97.8243,269.375 98.4649,269.5313 Q99.1212,269.6875 99.6837,269.9844 L99.6837,272.7031 Q99.0587,272.125 98.4649,271.8594 Q97.8712,271.5781 97.2462,271.5781 Q95.9024,271.5781 95.2149,272.6563 Q94.5274,273.7188 94.5274,275.8125 Q94.5274,277.9063 95.2149,278.9844 Q95.9024,280.0469 97.2462,280.0469 Q97.8712,280.0469 98.4649,279.7813 Q99.0587,279.5 99.6837,278.9219 L99.6837,281.6406 Z " fill="#000000"/><text fill="#000000" font-family="sans-serif" font-size="14" lengthAdjust="spacing" textLength="143.9648" x="113.3183" y="280.8467">StructureParserBase</text><rect fill="#FFFFFF" height="15.9688" style="stroke:#181818;stroke-width:1;stroke-dasharray:2.0,2.0;" width="30.2246" x="276.998" y="257"/><text fill="#000000" font-family="sans-serif" font-size="12" font-style="italic" lengthAdjust="spacing" textLength="28.2246" x="277.998" y="269.1387">logic</text><line style="stroke:#181818;stroke-width:0.5;" x1="71" x2="303.2227" y1="292" y2="292"/><ellipse cx="81" cy="305.6484" fill="#84BE84" rx="3" ry="3" style="stroke:#038048;stroke-width:1;"/><text fill="#000000" font-family="sans-serif" font-size="14" lengthAdjust="spacing" textLength="208.2227" x="90" y="308.9951">auto Parse() -&gt; Result&lt;void&gt;</text></g><!--class OptChar--><g id="elem_OptChar"><rect codeLine="14" fill="#F1F1F1" height="32" id="OptChar" rx="2.5" ry="2.5" style="stroke:#181818;stroke-width:0.5;" width="90.3789" x="245" y="376"/><ellipse cx="260" cy="392" fill="#ADD1B2" rx="11" ry="11" style="stroke:#181818;stroke-width:1;"/><path d="M262.9688,397.6406 Q262.3906,397.9375 261.75,398.0781 Q261.1094,398.2344 260.4063,398.2344 Q257.9063,398.2344 256.5781,396.5938 Q255.2656,394.9375 255.2656,391.8125 Q255.2656,388.6875 256.5781,387.0313 Q257.9063,385.375 260.4063,385.375 Q261.1094,385.375 261.75,385.5313 Q262.4063,385.6875 262.9688,385.9844 L262.9688,388.7031 Q262.3438,388.125 261.75,387.8594 Q261.1563,387.5781 260.5313,387.5781 Q259.1875,387.5781 258.5,388.6563 Q257.8125,389.7188 257.8125,391.8125 Q257.8125,393.9063 258.5,394.9844 Q259.1875,396.0469 260.5313,396.0469 Q261.1563,396.0469 261.75,395.7813 Q262.3438,395.5 262.9688,394.9219 L262.9688,397.6406 Z " fill="#000000"/><text fill="#000000" font-family="sans-serif" font-size="14" lengthAdjust="spacing" textLength="58.3789" x="274" y="396.8467">OptChar</text></g><!--class JsonOps--><g id="elem_JsonOps"><rect codeLine="16" fill="#F1F1F1" height="32" id="JsonOps" rx="2.5" ry="2.5" style="stroke:#181818;stroke-width:0.5;" width="88.0615" x="339" y="272"/><ellipse cx="354" cy="288" fill="#ADD1B2" rx="11" ry="11" style="stroke:#181818;stroke-width:1;"/><path d="M356.9688,293.6406 Q356.3906,293.9375 355.75,294.0781 Q355.1094,294.2344 354.4063,294.2344 Q351.9063,294.2344 350.5781,292.5938 Q349.2656,290.9375 349.2656,287.8125 Q349.2656,284.6875 350.5781,283.0313 Q351.9063,281.375 354.4063,281.375 Q355.1094,281.375 355.75,281.5313 Q356.4063,281.6875 356.9688,281.9844 L356.9688,284.7031 Q356.3438,284.125 355.75,283.8594 Q355.1563,283.5781 354.5313,283.5781 Q353.1875,283.5781 352.5,284.6563 Q351.8125,285.7188 351.8125,287.8125 Q351.8125,289.9063 352.5,290.9844 Q353.1875,292.0469 354.5313,292.0469 Q355.1563,292.0469 355.75,291.7813 Q356.3438,291.5 356.9688,290.9219 L356.9688,293.6406 Z " fill="#000000"/><text fill="#000000" font-family="sans-serif" font-size="14" lengthAdjust="spacing" textLength="56.0615" x="368" y="292.8467">JsonOps</text></g><!--class JsonData--><g id="elem_JsonData"><rect codeLine="18" fill="#F1F1F1" height="32" id="JsonData" rx="2.5" ry="2.5" style="stroke:#181818;stroke-width:0.5;" width="94.2891" x="370" y="376"/><ellipse cx="385" cy="392" fill="#ADD1B2" rx="11" ry="11" style="stroke:#181818;stroke-width:1;"/><path d="M387.9688,397.6406 Q387.3906,397.9375 386.75,398.0781 Q386.1094,398.2344 385.4063,398.2344 Q382.9063,398.2344 381.5781,396.5938 Q380.2656,394.9375 380.2656,391.8125 Q380.2656,388.6875 381.5781,387.0313 Q382.9063,385.375 385.4063,385.375 Q386.1094,385.375 386.75,385.5313 Q387.4063,385.6875 387.9688,385.9844 L387.9688,388.7031 Q387.3438,388.125 386.75,387.8594 Q386.1563,387.5781 385.5313,387.5781 Q384.1875,387.5781 383.5,388.6563 Q382.8125,389.7188 382.8125,391.8125 Q382.8125,393.9063 383.5,394.9844 Q384.1875,396.0469 385.5313,396.0469 Q386.1563,396.0469 386.75,395.7813 Q387.3438,395.5 387.9688,394.9219 L387.9688,397.6406 Z " fill="#000000"/><text fill="#000000" font-family="sans-serif" font-size="14" lengthAdjust="spacing" textLength="62.2891" x="399" y="396.8467">JsonData</text></g><!--link StructureParser to JsonOps--><g id="link_StructureParser_JsonOps"><path codeLine="23" d="M323.52,200.26 C339.79,223.99 356.9253,248.9827 369.1253,266.7627 " fill="transparent" id="StructureParser-to-JsonOps" style="stroke:#181818;stroke-width:1;"/><polygon fill="#181818" points="372.52,271.71,370.7262,262.0259,369.6911,267.5872,364.1298,266.5521,372.52,271.71" style="stroke:#181818;stroke-width:1;"/></g><!--link StructureParser to StructureParserBase--><g id="link_StructureParser_StructureParserBase"><path codeLine="24" d="M266.3,200.26 C248.87,219.33 239.9176,229.1271 223.8676,246.6771 " fill="transparent" id="StructureParser-to-StructureParserBase" style="stroke:#181818;stroke-width:1;"/><polygon fill="transparent" points="211.72,259.96,228.2952,250.7263,219.44,242.6279,211.72,259.96" style="stroke:#181818;stroke-width:1;"/></g><!--link StructureParser to JsonData--><g id="link_StructureParser_JsonData"><path codeLine="26" d="M382.98,200.04 C407.43,214.81 431.24,234.56 445,260 C465.69,298.25 444.2154,345.327 429.5154,370.727 " fill="transparent" id="StructureParser-to-JsonData" style="stroke:#181818;stroke-width:1;"/><polygon fill="#181818" points="426.51,375.92,434.4801,370.1341,429.0145,371.5925,427.5561,366.1269,426.51,375.92" style="stroke:#181818;stroke-width:1;"/></g><!--link JsonOps to JsonData--><g id="link_JsonOps_JsonData"><path codeLine="28" d="M388.02,304.05 C394.45,323.34 403.6226,350.8779 410.0626,370.1979 " fill="transparent" id="JsonOps-to-JsonData" style="stroke:#181818;stroke-width:1;"/><polygon fill="#181818" points="411.96,375.89,412.9087,366.0869,410.3789,371.1466,405.3192,368.6168,411.96,375.89" style="stroke:#181818;stroke-width:1;"/></g><!--link JsonOps to OptChar--><g id="link_JsonOps_OptChar"><path codeLine="29" d="M369.28,304.05 C351.69,323.34 325.4319,352.1357 307.8219,371.4557 " fill="transparent" id="JsonOps-to-OptChar" style="stroke:#181818;stroke-width:1;"/><polygon fill="#181818" points="303.78,375.89,312.799,371.9331,307.1482,372.1947,306.8866,366.5439,303.78,375.89" style="stroke:#181818;stroke-width:1;"/></g><!--SRC=[VOz1Ri8m44NtFiKN2mIYt23AedH3DrJb18CPGKgCBO-DL57kJa92QgB0zisVDt_snPR1neLV63ORzgAK8tsW7MCasdeUuQo0Zls8FJOeWITACQ1B4i4w-AX3zFn5NjXdI-DADdmCxFCk2ipwmKaI7B_Xir9_KA3nD5cX62pMSNFRc4mnpz4iVxF4ChJ9owi-xoISbNPNwFyshJYnDhxiP8jjtbaVj2iN5dloEFTutNlbP93N_zI3UycBgaAzVfXNvrl9mEml7thekQK-gTIzr0DDOVlD5G00]--></g></svg>