<svg xmlns="http://www.w3.org/2000/svg" xmlns:xlink="http://www.w3.org/1999/xlink" contentStyleType="text/css" data-diagram-type="CLASS" height="527px" preserveAspectRatio="none" style="width:1104px;height:527px;background:#FFFFFF;" version="1.1" viewBox="0 0 1104 527" width="1104px" zoomAndPan="magnify"><defs/><g><!--cluster score--><g id="cluster_score"><path d="M8.5,6 L52.1494,6 A3.75,3.75 0 0 1 54.6494,8.5 L61.6494,28.2969 L1094.5,28.2969 A2.5,2.5 0 0 1 1097,30.7969 L1097,517.5 A2.5,2.5 0 0 1 1094.5,520 L8.5,520 A2.5,2.5 0 0 1 6,517.5 L6,8.5 A2.5,2.5 0 0 1 8.5,6 " fill="transparent" style="stroke:#000000;stroke-width:1.5;"/><line style="stroke:#000000;stroke-width:1.5;" x1="6" x2="61.6494" y1="28.2969" y2="28.2969"/><text fill="#000000" font-family="sans-serif" font-size="14" font-weight="bold" lengthAdjust="spacing" textLength="42.6494" x="10" y="20.9951">score</text></g><!--cluster json--><g id="cluster_json"><path d="M32.5,49 L66.2168,49 A3.75,3.75 0 0 1 68.7168,51.5 L75.7168,71.2969 L1070.5,71.2969 A2.5,2.5 0 0 1 1073,73.7969 L1073,493.5 A2.5,2.5 0 0 1 1070.5,496 L32.5,496 A2.5,2.5 0 0 1 30,493.5 L30,51.5 A2.5,2.5 0 0 1 32.5,49 " fill="transparent" style="stroke:#000000;stroke-width:1.5;"/><line style="stroke:#000000;stroke-width:1.5;" x1="30" x2="75.7168" y1="71.2969" y2="71.2969"/><text fill="#000000" font-family="sans-serif" font-size="14" font-weight="bold" lengthAdjust="spacing" textLength="32.7168" x="34" y="63.9951">json</text></g><!--cluster vajson--><g id="cluster_vajson"><path d="M56.5,92 L108.79,92 A3.75,3.75 0 0 1 111.29,94.5 L118.29,114.2969 L1046.5,114.2969 A2.5,2.5 0 0 1 1049,116.7969 L1049,469.5 A2.5,2.5 0 0 1 1046.5,472 L56.5,472 A2.5,2.5 0 0 1 54,469.5 L54,94.5 A2.5,2.5 0 0 1 56.5,92 " fill="transparent" style="stroke:#000000;stroke-width:1.5;"/><line style="stroke:#000000;stroke-width:1.5;" x1="54" x2="118.29" y1="114.2969" y2="114.2969"/><text fill="#000000" font-family="sans-serif" font-size="14" font-weight="bold" lengthAdjust="spacing" textLength="51.29" x="58" y="106.9951">vajson</text></g><!--cluster v2--><g id="cluster_v2"><path d="M80.5,135 L100.3672,135 A3.75,3.75 0 0 1 102.8672,137.5 L109.8672,157.2969 L882.5,157.2969 A2.5,2.5 0 0 1 885,159.7969 L885,445.5 A2.5,2.5 0 0 1 882.5,448 L80.5,448 A2.5,2.5 0 0 1 78,445.5 L78,137.5 A2.5,2.5 0 0 1 80.5,135 " fill="transparent" style="stroke:#000000;stroke-width:1.5;"/><line style="stroke:#000000;stroke-width:1.5;" x1="78" x2="109.8672" y1="157.2969" y2="157.2969"/><text fill="#000000" font-family="sans-serif" font-size="14" font-weight="bold" lengthAdjust="spacing" textLength="18.8672" x="82" y="149.9951">v2</text></g><!--class LevelValidator--><g id="elem_LevelValidator"><rect codeLine="37" fill="#F1F1F1" height="32" id="LevelValidator" rx="2.5" ry="2.5" style="stroke:#181818;stroke-width:0.5;" width="132.4131" x="901" y="400"/><ellipse cx="916" cy="416" fill="#ADD1B2" rx="11" ry="11" style="stroke:#181818;stroke-width:1;"/><path d="M918.9688,421.6406 Q918.3906,421.9375 917.75,422.0781 Q917.1094,422.2344 916.4063,422.2344 Q913.9063,422.2344 912.5781,420.5938 Q911.2656,418.9375 911.2656,415.8125 Q911.2656,412.6875 912.5781,411.0313 Q913.9063,409.375 916.4063,409.375 Q917.1094,409.375 917.75,409.5313 Q918.4063,409.6875 918.9688,409.9844 L918.9688,412.7031 Q918.3438,412.125 917.75,411.8594 Q917.1563,411.5781 916.5313,411.5781 Q915.1875,411.5781 914.5,412.6563 Q913.8125,413.7188 913.8125,415.8125 Q913.8125,417.9063 914.5,418.9844 Q915.1875,420.0469 916.5313,420.0469 Q917.1563,420.0469 917.75,419.7813 Q918.3438,419.5 918.9688,418.9219 L918.9688,421.6406 Z " fill="#000000"/><text fill="#000000" font-family="sans-serif" font-size="14" lengthAdjust="spacing" textLength="100.4131" x="930" y="420.8467">LevelValidator</text></g><!--class SingleArrayParser--><g id="elem_SingleArrayParser"><rect codeLine="8" fill="#F1F1F1" height="170.375" id="SingleArrayParser" rx="2.5" ry="2.5" style="stroke:#181818;stroke-width:0.5;" width="370.2988" x="499" y="170"/><ellipse cx="617.1831" cy="186" fill="#ADD1B2" rx="11" ry="11" style="stroke:#181818;stroke-width:1;"/><path d="M620.1519,191.6406 Q619.5737,191.9375 618.9331,192.0781 Q618.2925,192.2344 617.5894,192.2344 Q615.0894,192.2344 613.7612,190.5938 Q612.4487,188.9375 612.4487,185.8125 Q612.4487,182.6875 613.7612,181.0313 Q615.0894,179.375 617.5894,179.375 Q618.2925,179.375 618.9331,179.5313 Q619.5894,179.6875 620.1519,179.9844 L620.1519,182.7031 Q619.5269,182.125 618.9331,181.8594 Q618.3394,181.5781 617.7144,181.5781 Q616.3706,181.5781 615.6831,182.6563 Q614.9956,183.7188 614.9956,185.8125 Q614.9956,187.9063 615.6831,188.9844 Q616.3706,190.0469 617.7144,190.0469 Q618.3394,190.0469 618.9331,189.7813 Q619.5269,189.5 620.1519,188.9219 L620.1519,191.6406 Z " fill="#000000"/><text fill="#000000" font-family="sans-serif" font-size="14" lengthAdjust="spacing" textLength="125.4326" x="637.6831" y="190.8467">SingleArrayParser</text><line style="stroke:#181818;stroke-width:0.5;" x1="500" x2="868.2988" y1="202" y2="202"/><ellipse cx="510" cy="215.6484" fill="#84BE84" rx="3" ry="3" style="stroke:#038048;stroke-width:1;"/><text fill="#000000" font-family="sans-serif" font-size="14" lengthAdjust="spacing" textLength="209.5625" x="519" y="218.9951">SingleArrayParser(JsonData&amp;)</text><ellipse cx="510" cy="231.9453" fill="#84BE84" rx="3" ry="3" style="stroke:#038048;stroke-width:1;"/><text fill="#000000" font-family="sans-serif" font-size="14" lengthAdjust="spacing" textLength="252.9365" x="519" y="235.292">auto OnStartArray() -&gt; ParserResult</text><ellipse cx="510" cy="248.2422" fill="#84BE84" rx="3" ry="3" style="stroke:#038048;stroke-width:1;"/><text fill="#000000" font-family="sans-serif" font-size="14" lengthAdjust="spacing" textLength="316.0801" x="519" y="251.5889">auto OnEndArray(std::size_t) -&gt; ParserResult</text><ellipse cx="510" cy="264.5391" fill="#84BE84" rx="3" ry="3" style="stroke:#038048;stroke-width:1;"/><text fill="#000000" font-family="sans-serif" font-size="14" lengthAdjust="spacing" textLength="305.0947" x="519" y="267.8857">auto OnUnexpectedEvent() -&gt; ParserResult</text><ellipse cx="510" cy="280.8359" fill="#84BE84" rx="3" ry="3" style="stroke:#038048;stroke-width:1;"/><text fill="#000000" font-family="sans-serif" font-size="14" lengthAdjust="spacing" textLength="249.4092" x="519" y="284.1826">auto GetIndex() const -&gt; std::size_t</text><text fill="#000000" font-family="sans-serif" font-size="14" lengthAdjust="spacing" textLength="4.4502" x="519" y="300.4795">&#160;</text><polygon fill="#FFFF44" points="510,308.4297,514,312.4297,510,316.4297,506,312.4297" style="stroke:#B38D22;stroke-width:1;"/><text fill="#000000" font-family="sans-serif" font-size="14" lengthAdjust="spacing" textLength="287.957" x="519" y="316.7764">virtual auto OnElement() -&gt; ParserResult</text><polygon fill="#FFFF44" points="510,324.7266,514,328.7266,510,332.7266,506,328.7266" style="stroke:#B38D22;stroke-width:1;"/><text fill="#000000" font-family="sans-serif" font-size="14" lengthAdjust="spacing" textLength="344.2988" x="519" y="333.0732">virtual auto Finalize() -&gt; ara::core::Result&lt;void&gt;</text></g><!--class SingleObjectParser--><g id="elem_SingleObjectParser"><rect codeLine="19" fill="#F1F1F1" height="137.7813" id="SingleObjectParser" rx="2.5" ry="2.5" style="stroke:#181818;stroke-width:0.5;" width="370.2988" x="94" y="186"/><ellipse cx="208.3618" cy="202" fill="#ADD1B2" rx="11" ry="11" style="stroke:#181818;stroke-width:1;"/><path d="M211.3306,207.6406 Q210.7524,207.9375 210.1118,208.0781 Q209.4712,208.2344 208.7681,208.2344 Q206.2681,208.2344 204.9399,206.5938 Q203.6274,204.9375 203.6274,201.8125 Q203.6274,198.6875 204.9399,197.0313 Q206.2681,195.375 208.7681,195.375 Q209.4712,195.375 210.1118,195.5313 Q210.7681,195.6875 211.3306,195.9844 L211.3306,198.7031 Q210.7056,198.125 210.1118,197.8594 Q209.5181,197.5781 208.8931,197.5781 Q207.5493,197.5781 206.8618,198.6563 Q206.1743,199.7188 206.1743,201.8125 Q206.1743,203.9063 206.8618,204.9844 Q207.5493,206.0469 208.8931,206.0469 Q209.5181,206.0469 210.1118,205.7813 Q210.7056,205.5 211.3306,204.9219 L211.3306,207.6406 Z " fill="#000000"/><text fill="#000000" font-family="sans-serif" font-size="14" lengthAdjust="spacing" textLength="133.0752" x="228.8618" y="206.8467">SingleObjectParser</text><line style="stroke:#181818;stroke-width:0.5;" x1="95" x2="463.2988" y1="218" y2="218"/><ellipse cx="105" cy="231.6484" fill="#84BE84" rx="3" ry="3" style="stroke:#038048;stroke-width:1;"/><text fill="#000000" font-family="sans-serif" font-size="14" lengthAdjust="spacing" textLength="256.0127" x="114" y="234.9951">SingleObjectParser(JsonData&amp;, bool)</text><ellipse cx="105" cy="247.9453" fill="#84BE84" rx="3" ry="3" style="stroke:#038048;stroke-width:1;"/><text fill="#000000" font-family="sans-serif" font-size="14" lengthAdjust="spacing" textLength="260.5791" x="114" y="251.292">auto OnStartObject() -&gt; ParserResult</text><ellipse cx="105" cy="264.2422" fill="#84BE84" rx="3" ry="3" style="stroke:#038048;stroke-width:1;"/><text fill="#000000" font-family="sans-serif" font-size="14" lengthAdjust="spacing" textLength="323.7227" x="114" y="267.5889">auto OnEndObject(std::size_t) -&gt; ParserResult</text><ellipse cx="105" cy="280.5391" fill="#84BE84" rx="3" ry="3" style="stroke:#038048;stroke-width:1;"/><text fill="#000000" font-family="sans-serif" font-size="14" lengthAdjust="spacing" textLength="305.0947" x="114" y="283.8857">auto OnUnexpectedEvent() -&gt; ParserResult</text><text fill="#000000" font-family="sans-serif" font-size="14" lengthAdjust="spacing" textLength="4.4502" x="114" y="300.1826">&#160;</text><polygon fill="#FFFF44" points="105,308.1328,109,312.1328,105,316.1328,101,312.1328" style="stroke:#B38D22;stroke-width:1;"/><text fill="#000000" font-family="sans-serif" font-size="14" lengthAdjust="spacing" textLength="344.2988" x="114" y="316.4795">virtual auto Finalize() -&gt; ara::core::Result&lt;void&gt;</text></g><!--class Parser--><g id="elem_Parser"><rect codeLine="28" fill="#F1F1F1" height="32" id="Parser" rx="2.5" ry="2.5" style="stroke:#181818;stroke-width:0.5;" width="76.4404" x="443" y="400"/><ellipse cx="458" cy="416" fill="#ADD1B2" rx="11" ry="11" style="stroke:#181818;stroke-width:1;"/><path d="M460.9688,421.6406 Q460.3906,421.9375 459.75,422.0781 Q459.1094,422.2344 458.4063,422.2344 Q455.9063,422.2344 454.5781,420.5938 Q453.2656,418.9375 453.2656,415.8125 Q453.2656,412.6875 454.5781,411.0313 Q455.9063,409.375 458.4063,409.375 Q459.1094,409.375 459.75,409.5313 Q460.4063,409.6875 460.9688,409.9844 L460.9688,412.7031 Q460.3438,412.125 459.75,411.8594 Q459.1563,411.5781 458.5313,411.5781 Q457.1875,411.5781 456.5,412.6563 Q455.8125,413.7188 455.8125,415.8125 Q455.8125,417.9063 456.5,418.9844 Q457.1875,420.0469 458.5313,420.0469 Q459.1563,420.0469 459.75,419.7813 Q460.3438,419.5 460.9688,418.9219 L460.9688,421.6406 Z " fill="#000000"/><text fill="#000000" font-family="sans-serif" font-size="14" lengthAdjust="spacing" textLength="44.4404" x="472" y="420.8467">Parser</text></g><!--link SingleArrayParser to Parser--><g id="link_SingleArrayParser_Parser"><path codeLine="30" d="M576.56,340.16 C547.26,363.1 532.7983,374.4178 514.6383,388.6478 " fill="transparent" id="SingleArrayParser-to-Parser" style="stroke:#181818;stroke-width:1;"/><polygon fill="transparent" points="500.47,399.75,518.3391,393.3706,510.9376,383.925,500.47,399.75" style="stroke:#181818;stroke-width:1;"/></g><!--link SingleArrayParser to LevelValidator--><g id="link_SingleArrayParser_LevelValidator"><path codeLine="31" d="M833.79,340.16 C874.62,363.1 909.2989,382.5813 934.6289,396.8113 " fill="transparent" id="SingleArrayParser-to-LevelValidator" style="stroke:#181818;stroke-width:1;"/><polygon fill="#181818" points="939.86,399.75,933.9726,391.8545,935.5008,397.3011,930.0543,398.8293,939.86,399.75" style="stroke:#181818;stroke-width:1;"/></g><!--link SingleObjectParser to Parser--><g id="link_SingleObjectParser_Parser"><path codeLine="33" d="M365.55,324.12 C401.31,352.27 425.4055,371.2374 447.6655,388.7574 " fill="transparent" id="SingleObjectParser-to-Parser" style="stroke:#181818;stroke-width:1;"/><polygon fill="transparent" points="461.81,399.89,451.3764,384.0426,443.9547,393.4723,461.81,399.89" style="stroke:#181818;stroke-width:1;"/></g><!--link SingleObjectParser to LevelValidator--><g id="link_SingleObjectParser_LevelValidator"><path codeLine="34" d="M432.52,324.1 C449.03,330.04 465.73,335.5 482,340 C656.52,388.31 706.36,370.37 885,400 C890.14,400.85 889.5509,400.7198 894.8909,401.6598 " fill="transparent" id="SingleObjectParser-to-LevelValidator" style="stroke:#181818;stroke-width:1;"/><polygon fill="#181818" points="900.8,402.7,892.6297,397.2003,895.8757,401.8332,891.2428,405.0792,900.8,402.7" style="stroke:#181818;stroke-width:1;"/></g><!--SRC=[jLF1IiD04BtlLmm8qgBDmMEGWc0LHQXOz2gJxA0fczsmEmsjcdytwQPfqjZQWnxsykQzVJFxTjuJIK1fnYj8AOt8EY4qfkGoZ0bSR2p1fm3OOdDdz1fgWpdMy2v-KLC1OeNEmIpHRugkhCNL8rf7jga3dFMhW_loscjaF1ssQBXW0rCzOxIy9W-6C1g3bpoHMoZkioTQUgvZ6OOk-Q1NFaBsh6cPKSma9pbf_jtfblXEIrgMpDXennM_PIaQ_WdaYUK5ggP3HUbXYnt9JQ9HbRTw1LeCmogmCFIoozmaSboB2_533jDeNewsDuXsUPl4EKJ6g7rvUCsHWTJalqxa7zvhyqODtF_8ez7Nfey3dB5Vgg3Qby2lJV10EQcNiZM9R6pNeHFHFeiTqX4UhH7zWDrwCsWXgbE8Rm00]--></g></svg>