<svg xmlns="http://www.w3.org/2000/svg" xmlns:xlink="http://www.w3.org/1999/xlink" contentStyleType="text/css" data-diagram-type="SEQUENCE" height="863px" preserveAspectRatio="none" style="width:1302px;height:863px;background:#FFFFFF;" version="1.1" viewBox="0 0 1302 863" width="1302px" zoomAndPan="magnify"><defs/><g><rect fill="#ADD8E6" height="851.8594" style="stroke:#181818;stroke-width:0.5;" width="162.3145" x="71.9102" y="6"/><rect fill="#90EE90" height="851.8594" style="stroke:#181818;stroke-width:0.5;" width="244.6055" x="236.2246" y="6"/><rect fill="#FFB6C1" height="851.8594" style="stroke:#181818;stroke-width:0.5;" width="413.377" x="482.8301" y="6"/><rect fill="#FFFFE0" height="851.8594" style="stroke:#181818;stroke-width:0.5;" width="361.3896" x="898.207" y="6"/><rect fill="transparent" height="59.2656" style="stroke:#000000;stroke-width:1.5;" width="245.812" x="65.9102" y="103.7266"/><rect fill="transparent" height="59.2656" style="stroke:#000000;stroke-width:1.5;" width="252.832" x="65.9102" y="176.9922"/><rect fill="transparent" height="497.875" style="stroke:#000000;stroke-width:1.5;" width="1285.5967" x="10" y="292.3906"/><rect fill="transparent" height="309.5391" style="stroke:#000000;stroke-width:1.5;" width="1219.6865" x="65.9102" y="459.7266"/><rect fill="transparent" height="192.4688" style="stroke:#000000;stroke-width:1.5;" width="627.0068" x="648.5898" y="541.7969"/><rect fill="transparent" height="161.3359" style="stroke:#000000;stroke-width:1.5;" width="607.0068" x="658.5898" y="565.9297"/><g><title>User</title><rect fill="transparent" height="749.6719" width="8" x="38.9551" y="57.5938"/><line style="stroke:#181818;stroke-width:0.5;stroke-dasharray:5.0,5.0;" x1="42" x2="42" y1="57.5938" y2="807.2656"/></g><g><title>score_log &lt;&lt;module&gt;&gt;</title><rect fill="transparent" height="749.6719" width="8" x="149.0674" y="57.5938"/><line style="stroke:#181818;stroke-width:0.5;stroke-dasharray:5.0,5.0;" x1="152.9102" x2="152.9102" y1="57.5938" y2="807.2656"/></g><g><title>score_log_fmt_macro &lt;&lt;module&gt;&gt;</title><rect fill="transparent" height="749.6719" width="8" x="354.5273" y="57.5938"/><line style="stroke:#181818;stroke-width:0.5;stroke-dasharray:5.0,5.0;" x1="358.2246" x2="358.2246" y1="57.5938" y2="807.2656"/></g><g><title>Logger</title><rect fill="transparent" height="749.6719" width="8" x="568.71" y="57.5938"/><line style="stroke:#181818;stroke-width:0.5;stroke-dasharray:5.0,5.0;" x1="571.8301" x2="571.8301" y1="57.5938" y2="807.2656"/></g><g><title>Writer</title><rect fill="transparent" height="749.6719" width="8" x="776.3984" y="57.5938"/><line style="stroke:#181818;stroke-width:0.5;stroke-dasharray:5.0,5.0;" x1="779.5898" x2="779.5898" y1="57.5938" y2="807.2656"/></g><g><title>score_log_fmt</title><rect fill="transparent" height="749.6719" width="8" x="953.8687" y="57.5938"/><line style="stroke:#181818;stroke-width:0.5;stroke-dasharray:5.0,5.0;" x1="957.207" x2="957.207" y1="57.5938" y2="807.2656"/></g><g><title>ConcreteType</title><rect fill="transparent" height="749.6719" width="8" x="1135.5635" y="57.5938"/><line style="stroke:#181818;stroke-width:0.5;stroke-dasharray:5.0,5.0;" x1="1139.5303" x2="1139.5303" y1="57.5938" y2="807.2656"/></g><rect fill="#E2E2F0" height="30.2969" rx="2.5" ry="2.5" style="stroke:#181818;stroke-width:0.5;" width="45.9102" x="20" y="26.2969"/><text fill="#000000" font-family="sans-serif" font-size="14" lengthAdjust="spacing" textLength="31.9102" x="27" y="46.292">User</text><rect fill="#E2E2F0" height="30.2969" rx="2.5" ry="2.5" style="stroke:#181818;stroke-width:0.5;" width="45.9102" x="20" y="806.2656"/><text fill="#000000" font-family="sans-serif" font-size="14" lengthAdjust="spacing" textLength="31.9102" x="27" y="826.2607">User</text><rect fill="#E2E2F0" height="30.2969" rx="2.5" ry="2.5" style="stroke:#181818;stroke-width:0.5;" width="154.3145" x="75.9102" y="26.2969"/><text fill="#000000" font-family="sans-serif" font-size="14" lengthAdjust="spacing" textLength="140.3145" x="82.9102" y="46.292">score_log &#171;module&#187;</text><rect fill="#E2E2F0" height="30.2969" rx="2.5" ry="2.5" style="stroke:#181818;stroke-width:0.5;" width="154.3145" x="75.9102" y="806.2656"/><text fill="#000000" font-family="sans-serif" font-size="14" lengthAdjust="spacing" textLength="140.3145" x="82.9102" y="826.2607">score_log &#171;module&#187;</text><rect fill="#E2E2F0" height="30.2969" rx="2.5" ry="2.5" style="stroke:#181818;stroke-width:0.5;" width="236.6055" x="240.2246" y="26.2969"/><text fill="#000000" font-family="sans-serif" font-size="14" lengthAdjust="spacing" textLength="222.6055" x="247.2246" y="46.292">score_log_fmt_macro &#171;module&#187;</text><rect fill="#E2E2F0" height="30.2969" rx="2.5" ry="2.5" style="stroke:#181818;stroke-width:0.5;" width="236.6055" x="240.2246" y="806.2656"/><text fill="#000000" font-family="sans-serif" font-size="14" lengthAdjust="spacing" textLength="222.6055" x="247.2246" y="826.2607">score_log_fmt_macro &#171;module&#187;</text><rect fill="#E2E2F0" height="46.5938" rx="2.5" ry="2.5" style="stroke:#181818;stroke-width:0.5;" width="171.7598" x="486.8301" y="10"/><text fill="#000000" font-family="sans-serif" font-size="14" lengthAdjust="spacing" textLength="48.5078" x="548.4561" y="29.9951">Logger</text><text fill="#000000" font-family="sans-serif" font-size="14" lengthAdjust="spacing" textLength="157.7598" x="493.8301" y="46.292">&#171;Log implementation&#187;</text><rect fill="#E2E2F0" height="46.5938" rx="2.5" ry="2.5" style="stroke:#181818;stroke-width:0.5;" width="171.7598" x="486.8301" y="806.2656"/><text fill="#000000" font-family="sans-serif" font-size="14" lengthAdjust="spacing" textLength="48.5078" x="548.4561" y="826.2607">Logger</text><text fill="#000000" font-family="sans-serif" font-size="14" lengthAdjust="spacing" textLength="157.7598" x="493.8301" y="842.5576">&#171;Log implementation&#187;</text><rect fill="#E2E2F0" height="46.5938" rx="2.5" ry="2.5" style="stroke:#181818;stroke-width:0.5;" width="223.6172" x="668.5898" y="10"/><text fill="#000000" font-family="sans-serif" font-size="14" lengthAdjust="spacing" textLength="43.3467" x="758.7251" y="29.9951">Writer</text><text fill="#000000" font-family="sans-serif" font-size="14" lengthAdjust="spacing" textLength="209.6172" x="675.5898" y="46.292">&#171;ScoreWrite implementation&#187;</text><rect fill="#E2E2F0" height="46.5938" rx="2.5" ry="2.5" style="stroke:#181818;stroke-width:0.5;" width="223.6172" x="668.5898" y="806.2656"/><text fill="#000000" font-family="sans-serif" font-size="14" lengthAdjust="spacing" textLength="43.3467" x="758.7251" y="826.2607">Writer</text><text fill="#000000" font-family="sans-serif" font-size="14" lengthAdjust="spacing" textLength="209.6172" x="675.5898" y="842.5576">&#171;ScoreWrite implementation&#187;</text><rect fill="#E2E2F0" height="46.5938" rx="2.5" ry="2.5" style="stroke:#181818;stroke-width:0.5;" width="111.3232" x="902.207" y="10"/><text fill="#000000" font-family="sans-serif" font-size="14" lengthAdjust="spacing" textLength="97.3232" x="909.207" y="29.9951">score_log_fmt</text><text fill="#000000" font-family="sans-serif" font-size="14" lengthAdjust="spacing" textLength="69.5967" x="923.0703" y="46.292">&#171;module&#187;</text><rect fill="#E2E2F0" height="46.5938" rx="2.5" ry="2.5" style="stroke:#181818;stroke-width:0.5;" width="111.3232" x="902.207" y="806.2656"/><text fill="#000000" font-family="sans-serif" font-size="14" lengthAdjust="spacing" textLength="97.3232" x="909.207" y="826.2607">score_log_fmt</text><text fill="#000000" font-family="sans-serif" font-size="14" lengthAdjust="spacing" textLength="69.5967" x="923.0703" y="842.5576">&#171;module&#187;</text><rect fill="#E2E2F0" height="46.5938" rx="2.5" ry="2.5" style="stroke:#181818;stroke-width:0.5;" width="232.0664" x="1023.5303" y="10"/><text fill="#000000" font-family="sans-serif" font-size="14" lengthAdjust="spacing" textLength="97.7197" x="1090.7036" y="29.9951">ConcreteType</text><text fill="#000000" font-family="sans-serif" font-size="14" lengthAdjust="spacing" textLength="218.0664" x="1030.5303" y="46.292">&#171;ScoreDebug implementation&#187;</text><rect fill="#E2E2F0" height="46.5938" rx="2.5" ry="2.5" style="stroke:#181818;stroke-width:0.5;" width="232.0664" x="1023.5303" y="806.2656"/><text fill="#000000" font-family="sans-serif" font-size="14" lengthAdjust="spacing" textLength="97.7197" x="1090.7036" y="826.2607">ConcreteType</text><text fill="#000000" font-family="sans-serif" font-size="14" lengthAdjust="spacing" textLength="218.0664" x="1030.5303" y="842.5576">&#171;ScoreDebug implementation&#187;</text><polygon fill="#181818" points="141.0674,84.7266,151.0674,88.7266,141.0674,92.7266,145.0674,88.7266" style="stroke:#181818;stroke-width:1;"/><line style="stroke:#181818;stroke-width:1;" x1="42.9551" x2="147.0674" y1="88.7266" y2="88.7266"/><text fill="#000000" font-family="sans-serif" font-size="13" lengthAdjust="spacing" textLength="35.1724" x="49.9551" y="83.6606">log!()</text><path d="M65.9102,103.7266 L130.353,103.7266 L130.353,110.8594 L120.353,120.8594 L65.9102,120.8594 L65.9102,103.7266 " fill="#EEEEEE" style="stroke:#000000;stroke-width:1.5;"/><rect fill="transparent" height="59.2656" style="stroke:#000000;stroke-width:1.5;" width="245.812" x="65.9102" y="103.7266"/><text fill="#000000" font-family="sans-serif" font-size="13" font-weight="bold" lengthAdjust="spacing" textLength="19.4429" x="80.9102" y="116.7935">alt</text><text fill="#000000" font-family="sans-serif" font-size="11" font-weight="bold" lengthAdjust="spacing" textLength="161.3691" x="145.353" y="115.937">[no-user-provided-logger]</text><line style="stroke:#181818;stroke-width:1;" x1="153.0674" x2="195.0674" y1="141.9922" y2="141.9922"/><line style="stroke:#181818;stroke-width:1;" x1="195.0674" x2="195.0674" y1="141.9922" y2="154.9922"/><line style="stroke:#181818;stroke-width:1;" x1="154.0674" x2="195.0674" y1="154.9922" y2="154.9922"/><polygon fill="#181818" points="164.0674,150.9922,154.0674,154.9922,164.0674,158.9922,160.0674,154.9922" style="stroke:#181818;stroke-width:1;"/><text fill="#000000" font-family="sans-serif" font-size="13" lengthAdjust="spacing" textLength="97.7031" x="160.0674" y="136.9263">global_logger()</text><path d="M65.9102,176.9922 L130.353,176.9922 L130.353,184.125 L120.353,194.125 L65.9102,194.125 L65.9102,176.9922 " fill="#EEEEEE" style="stroke:#000000;stroke-width:1.5;"/><rect fill="transparent" height="59.2656" style="stroke:#000000;stroke-width:1.5;" width="252.832" x="65.9102" y="176.9922"/><text fill="#000000" font-family="sans-serif" font-size="13" font-weight="bold" lengthAdjust="spacing" textLength="19.4429" x="80.9102" y="190.0591">alt</text><text fill="#000000" font-family="sans-serif" font-size="11" font-weight="bold" lengthAdjust="spacing" textLength="168.3892" x="145.353" y="189.2026">[no-user-provided-context]</text><line style="stroke:#181818;stroke-width:1;" x1="153.0674" x2="195.0674" y1="215.2578" y2="215.2578"/><line style="stroke:#181818;stroke-width:1;" x1="195.0674" x2="195.0674" y1="215.2578" y2="228.2578"/><line style="stroke:#181818;stroke-width:1;" x1="154.0674" x2="195.0674" y1="228.2578" y2="228.2578"/><polygon fill="#181818" points="164.0674,224.2578,154.0674,228.2578,164.0674,232.2578,160.0674,228.2578" style="stroke:#181818;stroke-width:1;"/><text fill="#000000" font-family="sans-serif" font-size="13" lengthAdjust="spacing" textLength="94.9165" x="160.0674" y="210.1919">module_path()</text><line style="stroke:#181818;stroke-width:1;" x1="153.0674" x2="195.0674" y1="264.3906" y2="264.3906"/><line style="stroke:#181818;stroke-width:1;" x1="195.0674" x2="195.0674" y1="264.3906" y2="277.3906"/><line style="stroke:#181818;stroke-width:1;" x1="154.0674" x2="195.0674" y1="277.3906" y2="277.3906"/><polygon fill="#181818" points="164.0674,273.3906,154.0674,277.3906,164.0674,281.3906,160.0674,277.3906" style="stroke:#181818;stroke-width:1;"/><text fill="#000000" font-family="sans-serif" font-size="13" lengthAdjust="spacing" textLength="75.8799" x="160.0674" y="259.3247">max_level()</text><path d="M10,292.3906 L74.4429,292.3906 L74.4429,299.5234 L64.4429,309.5234 L10,309.5234 L10,292.3906 " fill="#EEEEEE" style="stroke:#000000;stroke-width:1.5;"/><rect fill="transparent" height="497.875" style="stroke:#000000;stroke-width:1.5;" width="1285.5967" x="10" y="292.3906"/><text fill="#000000" font-family="sans-serif" font-size="13" font-weight="bold" lengthAdjust="spacing" textLength="19.4429" x="25" y="305.4575">alt</text><text fill="#000000" font-family="sans-serif" font-size="11" font-weight="bold" lengthAdjust="spacing" textLength="143.3169" x="89.4429" y="304.6011">[log-level-check-failed]</text><polygon fill="#181818" points="53.9551,311.5234,43.9551,315.5234,53.9551,319.5234,49.9551,315.5234" style="stroke:#181818;stroke-width:1;"/><line style="stroke:#181818;stroke-width:1;stroke-dasharray:2.0,2.0;" x1="47.9551" x2="152.0674" y1="315.5234" y2="315.5234"/><line style="stroke:#000000;stroke-width:1;stroke-dasharray:2.0,2.0;" x1="10" x2="1295.5967" y1="324.5234" y2="324.5234"/><text fill="#000000" font-family="sans-serif" font-size="11" font-weight="bold" lengthAdjust="spacing" textLength="151.959" x="15" y="334.7339">[log-level-check-passed]</text><polygon fill="#181818" points="346.5273,355.4609,356.5273,359.4609,346.5273,363.4609,350.5273,359.4609" style="stroke:#181818;stroke-width:1;"/><line style="stroke:#181818;stroke-width:1;" x1="153.0674" x2="352.5273" y1="359.4609" y2="359.4609"/><text fill="#000000" font-family="sans-serif" font-size="13" lengthAdjust="spacing" textLength="161.8271" x="160.0674" y="354.395">score_log_format_args!()</text><polygon fill="#181818" points="164.0674,369.4609,154.0674,373.4609,164.0674,377.4609,160.0674,373.4609" style="stroke:#181818;stroke-width:1;"/><line style="stroke:#181818;stroke-width:1;stroke-dasharray:2.0,2.0;" x1="158.0674" x2="357.5273" y1="373.4609" y2="373.4609"/><polygon fill="#181818" points="560.71,398.5938,570.71,402.5938,560.71,406.5938,564.71,402.5938" style="stroke:#181818;stroke-width:1;"/><line style="stroke:#181818;stroke-width:1;" x1="153.0674" x2="566.71" y1="402.5938" y2="402.5938"/><text fill="#000000" font-family="sans-serif" font-size="13" lengthAdjust="spacing" textLength="29.9609" x="160.0674" y="397.5278">log()</text><line style="stroke:#181818;stroke-width:1;" x1="572.71" x2="614.71" y1="431.7266" y2="431.7266"/><line style="stroke:#181818;stroke-width:1;" x1="614.71" x2="614.71" y1="431.7266" y2="444.7266"/><line style="stroke:#181818;stroke-width:1;" x1="573.71" x2="614.71" y1="444.7266" y2="444.7266"/><polygon fill="#181818" points="583.71,440.7266,573.71,444.7266,583.71,448.7266,579.71,444.7266" style="stroke:#181818;stroke-width:1;"/><text fill="#000000" font-family="sans-serif" font-size="13" lengthAdjust="spacing" textLength="62.4609" x="579.71" y="426.6606">enabled()</text><path d="M65.9102,459.7266 L130.353,459.7266 L130.353,466.8594 L120.353,476.8594 L65.9102,476.8594 L65.9102,459.7266 " fill="#EEEEEE" style="stroke:#000000;stroke-width:1.5;"/><rect fill="transparent" height="309.5391" style="stroke:#000000;stroke-width:1.5;" width="1219.6865" x="65.9102" y="459.7266"/><text fill="#000000" font-family="sans-serif" font-size="13" font-weight="bold" lengthAdjust="spacing" textLength="19.4429" x="80.9102" y="472.7935">alt</text><text fill="#000000" font-family="sans-serif" font-size="11" font-weight="bold" lengthAdjust="spacing" textLength="129.4863" x="145.353" y="471.937">[logger-not-enabled]</text><polygon fill="#181818" points="164.0674,478.8594,154.0674,482.8594,164.0674,486.8594,160.0674,482.8594" style="stroke:#181818;stroke-width:1;"/><line style="stroke:#181818;stroke-width:1;stroke-dasharray:2.0,2.0;" x1="158.0674" x2="571.71" y1="482.8594" y2="482.8594"/><line style="stroke:#000000;stroke-width:1;stroke-dasharray:2.0,2.0;" x1="65.9102" x2="1285.5967" y1="491.8594" y2="491.8594"/><text fill="#000000" font-family="sans-serif" font-size="11" font-weight="bold" lengthAdjust="spacing" textLength="104.2744" x="70.9102" y="502.0698">[logger-enabled]</text><polygon fill="#181818" points="945.8687,522.7969,955.8687,526.7969,945.8687,530.7969,949.8687,526.7969" style="stroke:#181818;stroke-width:1;"/><line style="stroke:#181818;stroke-width:1;" x1="572.71" x2="951.8687" y1="526.7969" y2="526.7969"/><text fill="#000000" font-family="sans-serif" font-size="13" lengthAdjust="spacing" textLength="277.583" x="579.71" y="521.731">write(writer: ScoreWrite, args: Arguments)</text><path d="M648.5898,541.7969 L725.2139,541.7969 L725.2139,548.9297 L715.2139,558.9297 L648.5898,558.9297 L648.5898,541.7969 " fill="#EEEEEE" style="stroke:#000000;stroke-width:1.5;"/><rect fill="transparent" height="192.4688" style="stroke:#000000;stroke-width:1.5;" width="627.0068" x="648.5898" y="541.7969"/><text fill="#000000" font-family="sans-serif" font-size="13" font-weight="bold" lengthAdjust="spacing" textLength="31.624" x="663.5898" y="554.8638">loop</text><text fill="#000000" font-family="sans-serif" font-size="11" font-weight="bold" lengthAdjust="spacing" textLength="214.3657" x="740.2139" y="554.0073">[process-format-string-fragments]</text><path d="M658.5898,565.9297 L723.0327,565.9297 L723.0327,573.0625 L713.0327,583.0625 L658.5898,583.0625 L658.5898,565.9297 " fill="#EEEEEE" style="stroke:#000000;stroke-width:1.5;"/><rect fill="transparent" height="161.3359" style="stroke:#000000;stroke-width:1.5;" width="607.0068" x="658.5898" y="565.9297"/><text fill="#000000" font-family="sans-serif" font-size="13" font-weight="bold" lengthAdjust="spacing" textLength="19.4429" x="673.5898" y="578.9966">alt</text><text fill="#000000" font-family="sans-serif" font-size="11" font-weight="bold" lengthAdjust="spacing" textLength="61.8159" x="738.0327" y="578.1401">[is-literal]</text><polygon fill="#181818" points="791.3984,600.1953,781.3984,604.1953,791.3984,608.1953,787.3984,604.1953" style="stroke:#181818;stroke-width:1;"/><line style="stroke:#181818;stroke-width:1;" x1="785.3984" x2="956.8687" y1="604.1953" y2="604.1953"/><text fill="#000000" font-family="sans-serif" font-size="13" lengthAdjust="spacing" textLength="66.5425" x="797.3984" y="599.1294">write_str()</text><polygon fill="#181818" points="945.8687,614.1953,955.8687,618.1953,945.8687,622.1953,949.8687,618.1953" style="stroke:#181818;stroke-width:1;"/><line style="stroke:#181818;stroke-width:1;stroke-dasharray:2.0,2.0;" x1="780.3984" x2="951.8687" y1="618.1953" y2="618.1953"/><line style="stroke:#000000;stroke-width:1;stroke-dasharray:2.0,2.0;" x1="658.5898" x2="1265.5967" y1="627.1953" y2="627.1953"/><text fill="#000000" font-family="sans-serif" font-size="11" font-weight="bold" lengthAdjust="spacing" textLength="97.9043" x="663.5898" y="637.4058">[is-placeholder]</text><polygon fill="#181818" points="1127.5635,658.1328,1137.5635,662.1328,1127.5635,666.1328,1131.5635,662.1328" style="stroke:#181818;stroke-width:1;"/><line style="stroke:#181818;stroke-width:1;" x1="957.8687" x2="1133.5635" y1="662.1328" y2="662.1328"/><text fill="#000000" font-family="sans-serif" font-size="13" lengthAdjust="spacing" textLength="32.481" x="964.8687" y="657.0669">fmt()</text><polygon fill="#181818" points="968.8687,672.1328,958.8687,676.1328,968.8687,680.1328,964.8687,676.1328" style="stroke:#181818;stroke-width:1;"/><line style="stroke:#181818;stroke-width:1;stroke-dasharray:2.0,2.0;" x1="962.8687" x2="1138.5635" y1="676.1328" y2="676.1328"/><polygon fill="#181818" points="791.3984,701.2656,781.3984,705.2656,791.3984,709.2656,787.3984,705.2656" style="stroke:#181818;stroke-width:1;"/><line style="stroke:#181818;stroke-width:1;" x1="785.3984" x2="956.8687" y1="705.2656" y2="705.2656"/><text fill="#000000" font-family="sans-serif" font-size="13" lengthAdjust="spacing" textLength="100.1533" x="797.3984" y="700.1997">write_&lt;type&gt;()</text><polygon fill="#181818" points="945.8687,715.2656,955.8687,719.2656,945.8687,723.2656,949.8687,719.2656" style="stroke:#181818;stroke-width:1;"/><line style="stroke:#181818;stroke-width:1;stroke-dasharray:2.0,2.0;" x1="780.3984" x2="951.8687" y1="719.2656" y2="719.2656"/><polygon fill="#181818" points="583.71,743.2656,573.71,747.2656,583.71,751.2656,579.71,747.2656" style="stroke:#181818;stroke-width:1;"/><line style="stroke:#181818;stroke-width:1;stroke-dasharray:2.0,2.0;" x1="577.71" x2="956.8687" y1="747.2656" y2="747.2656"/><polygon fill="#181818" points="164.0674,757.2656,154.0674,761.2656,164.0674,765.2656,160.0674,761.2656" style="stroke:#181818;stroke-width:1;"/><line style="stroke:#181818;stroke-width:1;stroke-dasharray:2.0,2.0;" x1="158.0674" x2="571.71" y1="761.2656" y2="761.2656"/><polygon fill="#181818" points="53.9551,778.2656,43.9551,782.2656,53.9551,786.2656,49.9551,782.2656" style="stroke:#181818;stroke-width:1;"/><line style="stroke:#181818;stroke-width:1;stroke-dasharray:2.0,2.0;" x1="47.9551" x2="152.0674" y1="782.2656" y2="782.2656"/><!--SRC=[dLJDYjim4BxxATJj9O7g1O8nz0TwsKDXjvH2mIZoH14hIqAITzEtxqYsOpcs0zsS4ittCzze5CjSa5nQfWDv-Ed1FH3c2UF1kA8ucWlv-2Z5ENnH7HGsntfk7DJA25AMhMaw1LMLkDT20ReXA97hV7S0UaEeFhMXRXbtPbDoWgo9_v3wPQxzQ8G0zqUN9NuZihKAMj211MdqeAqIP4xxvMJeQK_HEVrSPxybv5eplq4fytOdQfJVJZadVZMQEmZm_DV2jQrlSEmsGlLIJGHClQLB9RIQZCWXnl-mssDH1Q8DxN03g7NcLJRGq64s13yJvqP0A7DagkwXg8Hs6shSw02NS5-kdqXjMJYFOjjOTgaLl88Q0-0nJGUKdu6_q1EJ2ffRGrGPzXkKXmN9Ck-Nf6fj2R67xDIubeMQEU7ZH6VyZ49pgM9fqm-olvcOAmA6ixmAcXqnsuWOqcEDQXFeK4sbN63fFOuWChTODzdHFQtzhb_-0vaUoISIun_8PoUwk9D-duaPIt0NE7XF-rbH7vpKWfuS4mbz1O-HfASgUZ0rAorc6tlikncRgr5xjr-m1X2zpJG3ffcWjLMCmzcePdW3T-sp9uSzuE6AUuvPjl3V4Sk0VmVLkrFgwQRJEzkmlMxT_MtA9TSUMwpz0m00]--></g></svg>