<svg xmlns="http://www.w3.org/2000/svg" xmlns:xlink="http://www.w3.org/1999/xlink" contentStyleType="text/css" data-diagram-type="CLASS" height="444px" preserveAspectRatio="none" style="width:827px;height:444px;background:#FFFFFF;" version="1.1" viewBox="0 0 827 444" width="827px" zoomAndPan="magnify"><defs/><g><!--cluster score--><g id="cluster_score"><path d="M8.5,6 L52.1494,6 A3.75,3.75 0 0 1 54.6494,8.5 L61.6494,28.2969 L817.5,28.2969 A2.5,2.5 0 0 1 820,30.7969 L820,434.5 A2.5,2.5 0 0 1 817.5,437 L8.5,437 A2.5,2.5 0 0 1 6,434.5 L6,8.5 A2.5,2.5 0 0 1 8.5,6 " fill="transparent" style="stroke:#000000;stroke-width:1.5;"/><line style="stroke:#000000;stroke-width:1.5;" x1="6" x2="61.6494" y1="28.2969" y2="28.2969"/><text fill="#000000" font-family="sans-serif" font-size="14" font-weight="bold" lengthAdjust="spacing" textLength="42.6494" x="10" y="20.9951">score</text></g><!--cluster stream--><g id="cluster_stream"><path d="M646.5,330 L702.96,330 A3.75,3.75 0 0 1 705.46,332.5 L712.46,352.2969 L793.5,352.2969 A2.5,2.5 0 0 1 796,354.7969 L796,410.5 A2.5,2.5 0 0 1 793.5,413 L646.5,413 A2.5,2.5 0 0 1 644,410.5 L644,332.5 A2.5,2.5 0 0 1 646.5,330 " fill="transparent" style="stroke:#000000;stroke-width:1.5;"/><line style="stroke:#000000;stroke-width:1.5;" x1="644" x2="712.46" y1="352.2969" y2="352.2969"/><text fill="#000000" font-family="sans-serif" font-size="14" font-weight="bold" lengthAdjust="spacing" textLength="55.46" x="648" y="344.9951">stream</text></g><!--cluster json--><g id="cluster_json"><path d="M32.5,49 L66.2168,49 A3.75,3.75 0 0 1 68.7168,51.5 L75.7168,71.2969 L617.5,71.2969 A2.5,2.5 0 0 1 620,73.7969 L620,410.5 A2.5,2.5 0 0 1 617.5,413 L32.5,413 A2.5,2.5 0 0 1 30,410.5 L30,51.5 A2.5,2.5 0 0 1 32.5,49 " fill="transparent" style="stroke:#000000;stroke-width:1.5;"/><line style="stroke:#000000;stroke-width:1.5;" x1="30" x2="75.7168" y1="71.2969" y2="71.2969"/><text fill="#000000" font-family="sans-serif" font-size="14" font-weight="bold" lengthAdjust="spacing" textLength="32.7168" x="34" y="63.9951">json</text></g><!--class InputStream--><g id="elem_InputStream"><rect codeLine="5" fill="#F1F1F1" height="32" id="InputStream" rx="2.5" ry="2.5" style="stroke:#181818;stroke-width:0.5;" width="119.2129" x="660.5" y="365"/><ellipse cx="675.5" cy="381" fill="#ADD1B2" rx="11" ry="11" style="stroke:#181818;stroke-width:1;"/><path d="M678.4688,386.6406 Q677.8906,386.9375 677.25,387.0781 Q676.6094,387.2344 675.9063,387.2344 Q673.4063,387.2344 672.0781,385.5938 Q670.7656,383.9375 670.7656,380.8125 Q670.7656,377.6875 672.0781,376.0313 Q673.4063,374.375 675.9063,374.375 Q676.6094,374.375 677.25,374.5313 Q677.9063,374.6875 678.4688,374.9844 L678.4688,377.7031 Q677.8438,377.125 677.25,376.8594 Q676.6563,376.5781 676.0313,376.5781 Q674.6875,376.5781 674,377.6563 Q673.3125,378.7188 673.3125,380.8125 Q673.3125,382.9063 674,383.9844 Q674.6875,385.0469 676.0313,385.0469 Q676.6563,385.0469 677.25,384.7813 Q677.8438,384.5 678.4688,383.9219 L678.4688,386.6406 Z " fill="#000000"/><text fill="#000000" font-family="sans-serif" font-size="14" lengthAdjust="spacing" textLength="87.2129" x="689.5" y="385.8467">InputStream</text></g><!--class JsonOps--><g id="elem_JsonOps"><rect codeLine="8" fill="#F1F1F1" height="56.2969" id="JsonOps" rx="2.5" ry="2.5" style="stroke:#181818;stroke-width:0.5;" width="237.7979" x="206" y="84"/><ellipse cx="292.6182" cy="100" fill="#ADD1B2" rx="11" ry="11" style="stroke:#181818;stroke-width:1;"/><path d="M295.5869,105.6406 Q295.0088,105.9375 294.3682,106.0781 Q293.7275,106.2344 293.0244,106.2344 Q290.5244,106.2344 289.1963,104.5938 Q287.8838,102.9375 287.8838,99.8125 Q287.8838,96.6875 289.1963,95.0313 Q290.5244,93.375 293.0244,93.375 Q293.7275,93.375 294.3682,93.5313 Q295.0244,93.6875 295.5869,93.9844 L295.5869,96.7031 Q294.9619,96.125 294.3682,95.8594 Q293.7744,95.5781 293.1494,95.5781 Q291.8057,95.5781 291.1182,96.6563 Q290.4307,97.7188 290.4307,99.8125 Q290.4307,101.9063 291.1182,102.9844 Q291.8057,104.0469 293.1494,104.0469 Q293.7744,104.0469 294.3682,103.7813 Q294.9619,103.5 295.5869,102.9219 L295.5869,105.6406 Z " fill="#000000"/><text fill="#000000" font-family="sans-serif" font-size="14" lengthAdjust="spacing" textLength="56.0615" x="313.1182" y="104.8467">JsonOps</text><line style="stroke:#181818;stroke-width:0.5;" x1="207" x2="442.7979" y1="116" y2="116"/><ellipse cx="217" cy="129.6484" fill="#84BE84" rx="3" ry="3" style="stroke:#038048;stroke-width:1;"/><text fill="#000000" font-family="sans-serif" font-size="14" lengthAdjust="spacing" textLength="211.7979" x="226" y="132.9951">JsonOps(JsonData&amp; json_data)</text></g><!--class JsonData--><g id="elem_JsonData"><rect codeLine="12" fill="#F1F1F1" height="105.1875" id="JsonData" rx="2.5" ry="2.5" style="stroke:#181818;stroke-width:0.5;" width="557.7266" x="46" y="200"/><ellipse cx="289.4688" cy="216" fill="#ADD1B2" rx="11" ry="11" style="stroke:#181818;stroke-width:1;"/><path d="M292.4375,221.6406 Q291.8594,221.9375 291.2188,222.0781 Q290.5781,222.2344 289.875,222.2344 Q287.375,222.2344 286.0469,220.5938 Q284.7344,218.9375 284.7344,215.8125 Q284.7344,212.6875 286.0469,211.0313 Q287.375,209.375 289.875,209.375 Q290.5781,209.375 291.2188,209.5313 Q291.875,209.6875 292.4375,209.9844 L292.4375,212.7031 Q291.8125,212.125 291.2188,211.8594 Q290.625,211.5781 290,211.5781 Q288.6563,211.5781 287.9688,212.6563 Q287.2813,213.7188 287.2813,215.8125 Q287.2813,217.9063 287.9688,218.9844 Q288.6563,220.0469 290,220.0469 Q290.625,220.0469 291.2188,219.7813 Q291.8125,219.5 292.4375,218.9219 L292.4375,221.6406 Z " fill="#000000"/><text fill="#000000" font-family="sans-serif" font-size="14" lengthAdjust="spacing" textLength="62.2891" x="309.9688" y="220.8467">JsonData</text><line style="stroke:#181818;stroke-width:0.5;" x1="47" x2="602.7266" y1="232" y2="232"/><ellipse cx="57" cy="245.6484" fill="#84BE84" rx="3" ry="3" style="stroke:#038048;stroke-width:1;"/><text fill="#000000" font-family="sans-serif" font-size="14" lengthAdjust="spacing" text-decoration="underline" textLength="374.2471" x="66" y="248.9951">auto FromFile(StringView path) -&gt; Result&lt;JsonData&gt;</text><ellipse cx="57" cy="261.9453" fill="#84BE84" rx="3" ry="3" style="stroke:#038048;stroke-width:1;"/><text fill="#000000" font-family="sans-serif" font-size="14" lengthAdjust="spacing" text-decoration="underline" textLength="402.6641" x="66" y="265.292">auto FromBuffer(StringView buffer) -&gt; Result&lt;JsonData&gt;</text><ellipse cx="57" cy="278.2422" fill="#84BE84" rx="3" ry="3" style="stroke:#038048;stroke-width:1;"/><text fill="#000000" font-family="sans-serif" font-size="14" lengthAdjust="spacing" text-decoration="underline" textLength="531.7266" x="66" y="281.5889">auto FromBuffer(ara::core::Span&lt;char const&gt; buffer) -&gt; Result&lt;JsonData&gt;</text><ellipse cx="57" cy="294.5391" fill="#84BE84" rx="3" ry="3" style="stroke:#038048;stroke-width:1;"/><text fill="#000000" font-family="sans-serif" font-size="14" lengthAdjust="spacing" textLength="341.2773" x="66" y="297.8857">auto GetEncoding() noexcept -&gt; EncodingType&amp;</text></g><!--class DepthCounter--><g id="elem_DepthCounter"><rect codeLine="19" fill="#F1F1F1" height="32" id="DepthCounter" rx="2.5" ry="2.5" style="stroke:#181818;stroke-width:0.5;" width="130.5879" x="259.5" y="365"/><ellipse cx="274.5" cy="381" fill="#ADD1B2" rx="11" ry="11" style="stroke:#181818;stroke-width:1;"/><path d="M277.4688,386.6406 Q276.8906,386.9375 276.25,387.0781 Q275.6094,387.2344 274.9063,387.2344 Q272.4063,387.2344 271.0781,385.5938 Q269.7656,383.9375 269.7656,380.8125 Q269.7656,377.6875 271.0781,376.0313 Q272.4063,374.375 274.9063,374.375 Q275.6094,374.375 276.25,374.5313 Q276.9063,374.6875 277.4688,374.9844 L277.4688,377.7031 Q276.8438,377.125 276.25,376.8594 Q275.6563,376.5781 275.0313,376.5781 Q273.6875,376.5781 273,377.6563 Q272.3125,378.7188 272.3125,380.8125 Q272.3125,382.9063 273,383.9844 Q273.6875,385.0469 275.0313,385.0469 Q275.6563,385.0469 276.25,384.7813 Q276.8438,384.5 277.4688,383.9219 L277.4688,386.6406 Z " fill="#000000"/><text fill="#000000" font-family="sans-serif" font-size="14" lengthAdjust="spacing" textLength="98.5879" x="288.5" y="385.8467">DepthCounter</text></g><!--link JsonOps to JsonData--><g id="link_JsonOps_JsonData"><path codeLine="23" d="M325,140.03 C325,157.04 325,173.53 325,193.86 " fill="transparent" id="JsonOps-to-JsonData" style="stroke:#181818;stroke-width:1;"/><polygon fill="#181818" points="325,199.86,329,190.86,325,194.86,321,190.86,325,199.86" style="stroke:#181818;stroke-width:1;"/></g><!--link JsonData to InputStream--><g id="link_JsonData_InputStream"><path codeLine="25" d="M572.17,305.08 C588.52,310.27 604.6,315.9 620,322 C648.55,333.3 673.695,348.4859 693.335,361.5559 " fill="transparent" id="JsonData-to-InputStream" style="stroke:#181818;stroke-width:1;"/><polygon fill="#181818" points="698.33,364.88,693.0535,356.5638,694.1675,362.1099,688.6214,363.2239,698.33,364.88" style="stroke:#181818;stroke-width:1;"/></g><!--link JsonData to DepthCounter--><g id="link_JsonData_DepthCounter"><path codeLine="26" d="M325,305.32 C325,326.74 325,343.98 325,358.74 " fill="transparent" id="JsonData-to-DepthCounter" style="stroke:#181818;stroke-width:1;"/><polygon fill="#181818" points="325,364.74,329,355.74,325,359.74,321,355.74,325,364.74" style="stroke:#181818;stroke-width:1;"/></g><!--SRC=[dP71QiCm38RlUGgHGqaOVO5GSjYwZlLIMCUkGtNK9bjY6rjcAoNlFZkhmTrWZ9viFl_wBAIsQmXeq7o4WOOT6Pjb6iKx7WXoAvIX74uPG6IM3U4m8G3HexNmABNZxPcF_c5CylcRLJA_oAyzsMXxPW0taHJXN2BZ34BLQ-ElvHGQin_r8PK8JfQHEp42EbQmCcfOTJqLlgbE7buw-l3zS5l2l8OdigxdHPJKVpXktNvF9hNi9dAb1mrMLPXeLMqroeLeqO1GqdBzB_7aUo2-bq8rlgEY1AdeKv3cK1Vnyr7JxFVKbZxMtYadcKnSam_4PSoz8NxvJQSH1vpiz_8XLMPV]--></g></svg>