<svg xmlns="http://www.w3.org/2000/svg" xmlns:xlink="http://www.w3.org/1999/xlink" contentStyleType="text/css" data-diagram-type="CLASS" height="946px" preserveAspectRatio="none" style="width:1302px;height:946px;background:#FFFFFF;" version="1.1" viewBox="0 0 1302 946" width="1302px" zoomAndPan="magnify"><defs/><g><!--cluster score--><g id="cluster_score"><path d="M8.5,6 L52.1494,6 A3.75,3.75 0 0 1 54.6494,8.5 L61.6494,28.2969 L1101.5,28.2969 A2.5,2.5 0 0 1 1104,30.7969 L1104,936.5 A2.5,2.5 0 0 1 1101.5,939 L8.5,939 A2.5,2.5 0 0 1 6,936.5 L6,8.5 A2.5,2.5 0 0 1 8.5,6 " fill="transparent" style="stroke:#000000;stroke-width:1.5;"/><line style="stroke:#000000;stroke-width:1.5;" x1="6" x2="61.6494" y1="28.2969" y2="28.2969"/><text fill="#000000" font-family="sans-serif" font-size="14" font-weight="bold" lengthAdjust="spacing" textLength="42.6494" x="10" y="20.9951">score</text></g><!--cluster json--><g id="cluster_json"><path d="M32.5,49 L66.2168,49 A3.75,3.75 0 0 1 68.7168,51.5 L75.7168,71.2969 L1077.5,71.2969 A2.5,2.5 0 0 1 1080,73.7969 L1080,912.5 A2.5,2.5 0 0 1 1077.5,915 L32.5,915 A2.5,2.5 0 0 1 30,912.5 L30,51.5 A2.5,2.5 0 0 1 32.5,49 " fill="transparent" style="stroke:#000000;stroke-width:1.5;"/><line style="stroke:#000000;stroke-width:1.5;" x1="30" x2="75.7168" y1="71.2969" y2="71.2969"/><text fill="#000000" font-family="sans-serif" font-size="14" font-weight="bold" lengthAdjust="spacing" textLength="32.7168" x="34" y="63.9951">json</text></g><!--class JsonParser--><g id="elem_JsonParser"><rect codeLine="6" fill="#F1F1F1" height="447.4219" id="JsonParser" rx="2.5" ry="2.5" style="stroke:#181818;stroke-width:0.5;" width="392.0439" x="332" y="84"/><ellipse cx="487.1211" cy="100" fill="#ADD1B2" rx="11" ry="11" style="stroke:#181818;stroke-width:1;"/><path d="M490.0898,105.6406 Q489.5117,105.9375 488.8711,106.0781 Q488.2305,106.2344 487.5273,106.2344 Q485.0273,106.2344 483.6992,104.5938 Q482.3867,102.9375 482.3867,99.8125 Q482.3867,96.6875 483.6992,95.0313 Q485.0273,93.375 487.5273,93.375 Q488.2305,93.375 488.8711,93.5313 Q489.5273,93.6875 490.0898,93.9844 L490.0898,96.7031 Q489.4648,96.125 488.8711,95.8594 Q488.2773,95.5781 487.6523,95.5781 Q486.3086,95.5781 485.6211,96.6563 Q484.9336,97.7188 484.9336,99.8125 Q484.9336,101.9063 485.6211,102.9844 Q486.3086,104.0469 487.6523,104.0469 Q488.2773,104.0469 488.8711,103.7813 Q489.4648,103.5 490.0898,102.9219 L490.0898,105.6406 Z " fill="#000000"/><text fill="#000000" font-family="sans-serif" font-size="14" lengthAdjust="spacing" textLength="73.3018" x="507.6211" y="104.8467">JsonParser</text><line style="stroke:#181818;stroke-width:0.5;" x1="333" x2="723.0439" y1="116" y2="116"/><ellipse cx="343" cy="129.6484" fill="#84BE84" rx="3" ry="3" style="stroke:#038048;stroke-width:1;"/><text fill="#000000" font-family="sans-serif" font-size="14" lengthAdjust="spacing" textLength="157.4316" x="352" y="132.9951">JsonParser(JsonData&amp;)</text><ellipse cx="343" cy="145.9453" fill="#84BE84" rx="3" ry="3" style="stroke:#038048;stroke-width:1;"/><text fill="#000000" font-family="sans-serif" font-size="14" lengthAdjust="spacing" textLength="269.4111" x="352" y="149.292">auto Validate() const -&gt; Result&lt;void&gt;</text><ellipse cx="343" cy="162.2422" fill="#84BE84" rx="3" ry="3" style="stroke:#038048;stroke-width:1;"/><text fill="#000000" font-family="sans-serif" font-size="14" lengthAdjust="spacing" textLength="293.46" x="352" y="165.5889">auto Key&lt;Fn&gt;(Fn const&amp;) -&gt; JsonParser&amp;</text><ellipse cx="343" cy="178.5391" fill="#84BE84" rx="3" ry="3" style="stroke:#038048;stroke-width:1;"/><text fill="#000000" font-family="sans-serif" font-size="14" lengthAdjust="spacing" textLength="258.1729" x="352" y="181.8857">auto Key(StringView) -&gt; JsonParser&amp;</text><ellipse cx="343" cy="194.8359" fill="#84BE84" rx="3" ry="3" style="stroke:#038048;stroke-width:1;"/><text fill="#000000" font-family="sans-serif" font-size="14" lengthAdjust="spacing" textLength="267.9482" x="352" y="198.1826">auto Key(CStringView) -&gt; JsonParser&amp;</text><ellipse cx="343" cy="211.1328" fill="#84BE84" rx="3" ry="3" style="stroke:#038048;stroke-width:1;"/><text fill="#000000" font-family="sans-serif" font-size="14" lengthAdjust="spacing" textLength="297.0557" x="352" y="214.4795">auto Key(ara::core::String) -&gt; JsonParser&amp;</text><ellipse cx="343" cy="227.4297" fill="#84BE84" rx="3" ry="3" style="stroke:#038048;stroke-width:1;"/><text fill="#000000" font-family="sans-serif" font-size="14" lengthAdjust="spacing" textLength="236.5781" x="352" y="230.7764">auto StartObject() -&gt; JsonParser&amp;</text><ellipse cx="343" cy="243.7266" fill="#84BE84" rx="3" ry="3" style="stroke:#038048;stroke-width:1;"/><text fill="#000000" font-family="sans-serif" font-size="14" lengthAdjust="spacing" textLength="228.9834" x="352" y="247.0732">auto EndObject() -&gt; JsonParser&amp;</text><ellipse cx="343" cy="260.0234" fill="#84BE84" rx="3" ry="3" style="stroke:#038048;stroke-width:1;"/><text fill="#000000" font-family="sans-serif" font-size="14" lengthAdjust="spacing" textLength="228.9355" x="352" y="263.3701">auto StartArray() -&gt; JsonParser&amp;</text><ellipse cx="343" cy="276.3203" fill="#84BE84" rx="3" ry="3" style="stroke:#038048;stroke-width:1;"/><text fill="#000000" font-family="sans-serif" font-size="14" lengthAdjust="spacing" textLength="221.3408" x="352" y="279.667">auto EndArray() -&gt; JsonParser&amp;</text><ellipse cx="343" cy="292.6172" fill="#84BE84" rx="3" ry="3" style="stroke:#038048;stroke-width:1;"/><text fill="#000000" font-family="sans-serif" font-size="14" lengthAdjust="spacing" textLength="298.0059" x="352" y="295.9639">auto Bool&lt;Fn&gt;(Fn const&amp;) -&gt; JsonParser&amp;</text><ellipse cx="343" cy="308.9141" fill="#84BE84" rx="3" ry="3" style="stroke:#038048;stroke-width:1;"/><text fill="#000000" font-family="sans-serif" font-size="14" lengthAdjust="spacing" textLength="309.1621" x="352" y="312.2607">auto String&lt;Fn&gt;(Fn const&amp;) -&gt; JsonParser&amp;</text><ellipse cx="343" cy="325.2109" fill="#84BE84" rx="3" ry="3" style="stroke:#038048;stroke-width:1;"/><text fill="#000000" font-family="sans-serif" font-size="14" lengthAdjust="spacing" textLength="273.875" x="352" y="328.5576">auto String(StringView) -&gt; JsonParser&amp;</text><ellipse cx="343" cy="341.5078" fill="#84BE84" rx="3" ry="3" style="stroke:#038048;stroke-width:1;"/><text fill="#000000" font-family="sans-serif" font-size="14" lengthAdjust="spacing" textLength="283.6504" x="352" y="344.8545">auto String(CStringView) -&gt; JsonParser&amp;</text><ellipse cx="343" cy="357.8047" fill="#84BE84" rx="3" ry="3" style="stroke:#038048;stroke-width:1;"/><text fill="#000000" font-family="sans-serif" font-size="14" lengthAdjust="spacing" textLength="366.0439" x="352" y="361.1514">auto String(ara::core::String const&amp;) -&gt; JsonParser&amp;</text><ellipse cx="343" cy="374.1016" fill="#84BE84" rx="3" ry="3" style="stroke:#038048;stroke-width:1;"/><text fill="#000000" font-family="sans-serif" font-size="14" lengthAdjust="spacing" textLength="323.6201" x="352" y="377.4482">auto Number&lt;Fn&gt;(Fn const&amp;) -&gt; JsonParser&amp;</text><ellipse cx="343" cy="390.3984" fill="#84BE84" rx="3" ry="3" style="stroke:#038048;stroke-width:1;"/><text fill="#000000" font-family="sans-serif" font-size="14" lengthAdjust="spacing" textLength="312.3682" x="352" y="393.7451">auto Binary&lt;Fn&gt;(Fn const&amp;) -&gt; JsonParser&amp;</text><ellipse cx="343" cy="406.6953" fill="#84BE84" rx="3" ry="3" style="stroke:#038048;stroke-width:1;"/><text fill="#000000" font-family="sans-serif" font-size="14" lengthAdjust="spacing" textLength="305.334" x="352" y="410.042">auto Array&lt;Fn&gt;(Fn const&amp;) -&gt; JsonParser&amp;</text><ellipse cx="343" cy="422.9922" fill="#84BE84" rx="3" ry="3" style="stroke:#038048;stroke-width:1;"/><text fill="#000000" font-family="sans-serif" font-size="14" lengthAdjust="spacing" textLength="347.1152" x="352" y="426.3389">auto StringArray&lt;Fn&gt;(Fn const&amp;) -&gt; JsonParser&amp;</text><ellipse cx="343" cy="439.2891" fill="#84BE84" rx="3" ry="3" style="stroke:#038048;stroke-width:1;"/><text fill="#000000" font-family="sans-serif" font-size="14" lengthAdjust="spacing" textLength="361.5732" x="352" y="442.6357">auto NumberArray&lt;Fn&gt;(Fn const&amp;) -&gt; JsonParser&amp;</text><ellipse cx="343" cy="455.5859" fill="#84BE84" rx="3" ry="3" style="stroke:#038048;stroke-width:1;"/><text fill="#000000" font-family="sans-serif" font-size="14" lengthAdjust="spacing" textLength="335.959" x="352" y="458.9326">auto BoolArray&lt;Fn&gt;(Fn const&amp;) -&gt; JsonParser&amp;</text><ellipse cx="343" cy="471.8828" fill="#84BE84" rx="3" ry="3" style="stroke:#038048;stroke-width:1;"/><text fill="#000000" font-family="sans-serif" font-size="14" lengthAdjust="spacing" textLength="351.7842" x="352" y="475.2295">auto Object&lt;Fn&gt;(Fn const&amp;, bool) -&gt; JsonParser&amp;</text><ellipse cx="343" cy="488.1797" fill="#84BE84" rx="3" ry="3" style="stroke:#038048;stroke-width:1;"/><text fill="#000000" font-family="sans-serif" font-size="14" lengthAdjust="spacing" textLength="275.2148" x="352" y="491.5264">auto AddErrorInfo(CStr) -&gt; JsonParser&amp;</text><ellipse cx="343" cy="504.4766" fill="#84BE84" rx="3" ry="3" style="stroke:#038048;stroke-width:1;"/><text fill="#000000" font-family="sans-serif" font-size="14" lengthAdjust="spacing" textLength="330.3945" x="352" y="507.8232">auto AddErrorInfo(CStringView) -&gt; JsonParser&amp;</text><ellipse cx="343" cy="520.7734" fill="#84BE84" rx="3" ry="3" style="stroke:#038048;stroke-width:1;"/><text fill="#000000" font-family="sans-serif" font-size="14" lengthAdjust="spacing" textLength="345.1465" x="352" y="524.1201">auto AddErrorInfo&lt;Args&gt;(Args...) -&gt; JsonParser&amp;</text></g><!--class CompositionParser--><g id="elem_CompositionParser"><rect codeLine="52" fill="#F1F1F1" height="32" id="CompositionParser" rx="2.5" ry="2.5" style="stroke:#181818;stroke-width:0.5;" width="245.4385" x="83.5" y="591"/><ellipse cx="98.5" cy="607" fill="#ADD1B2" rx="11" ry="11" style="stroke:#181818;stroke-width:1;"/><path d="M101.4688,612.6406 Q100.8906,612.9375 100.25,613.0781 Q99.6094,613.2344 98.9063,613.2344 Q96.4063,613.2344 95.0781,611.5938 Q93.7656,609.9375 93.7656,606.8125 Q93.7656,603.6875 95.0781,602.0313 Q96.4063,600.375 98.9063,600.375 Q99.6094,600.375 100.25,600.5313 Q100.9063,600.6875 101.4688,600.9844 L101.4688,603.7031 Q100.8438,603.125 100.25,602.8594 Q99.6563,602.5781 99.0313,602.5781 Q97.6875,602.5781 97,603.6563 Q96.3125,604.7188 96.3125,606.8125 Q96.3125,608.9063 97,609.9844 Q97.6875,611.0469 99.0313,611.0469 Q99.6563,611.0469 100.25,610.7813 Q100.8438,610.5 101.4688,609.9219 L101.4688,612.6406 Z " fill="#000000"/><text fill="#000000" font-family="sans-serif" font-size="14" lengthAdjust="spacing" textLength="131.8721" x="112.5" y="611.8467">CompositionParser</text><rect fill="#FFFFFF" height="15.9688" style="stroke:#181818;stroke-width:1;stroke-dasharray:2.0,2.0;" width="79.5664" x="252.3721" y="588"/><text fill="#000000" font-family="sans-serif" font-size="12" font-style="italic" lengthAdjust="spacing" textLength="77.5664" x="253.3721" y="600.1387">VirtualParser</text></g><!--class VirtualParser--><g id="elem_VirtualParser"><rect codeLine="48" fill="#F1F1F1" height="32" id="VirtualParser" rx="2.5" ry="2.5" style="stroke:#181818;stroke-width:0.5;" width="122.4941" x="557" y="683"/><ellipse cx="572" cy="699" fill="#ADD1B2" rx="11" ry="11" style="stroke:#181818;stroke-width:1;"/><path d="M574.9688,704.6406 Q574.3906,704.9375 573.75,705.0781 Q573.1094,705.2344 572.4063,705.2344 Q569.9063,705.2344 568.5781,703.5938 Q567.2656,701.9375 567.2656,698.8125 Q567.2656,695.6875 568.5781,694.0313 Q569.9063,692.375 572.4063,692.375 Q573.1094,692.375 573.75,692.5313 Q574.4063,692.6875 574.9688,692.9844 L574.9688,695.7031 Q574.3438,695.125 573.75,694.8594 Q573.1563,694.5781 572.5313,694.5781 Q571.1875,694.5781 570.5,695.6563 Q569.8125,696.7188 569.8125,698.8125 Q569.8125,700.9063 570.5,701.9844 Q571.1875,703.0469 572.5313,703.0469 Q573.1563,703.0469 573.75,702.7813 Q574.3438,702.5 574.9688,701.9219 L574.9688,704.6406 Z " fill="#000000"/><text fill="#000000" font-family="sans-serif" font-size="14" lengthAdjust="spacing" textLength="90.4941" x="586" y="703.8467">VirtualParser</text></g><!--class StructureParser--><g id="elem_StructureParser"><rect codeLine="38" fill="#F1F1F1" height="32" id="StructureParser" rx="2.5" ry="2.5" style="stroke:#181818;stroke-width:0.5;" width="223.4404" x="506.5" y="775"/><ellipse cx="521.5" cy="791" fill="#ADD1B2" rx="11" ry="11" style="stroke:#181818;stroke-width:1;"/><path d="M524.4688,796.6406 Q523.8906,796.9375 523.25,797.0781 Q522.6094,797.2344 521.9063,797.2344 Q519.4063,797.2344 518.0781,795.5938 Q516.7656,793.9375 516.7656,790.8125 Q516.7656,787.6875 518.0781,786.0313 Q519.4063,784.375 521.9063,784.375 Q522.6094,784.375 523.25,784.5313 Q523.9063,784.6875 524.4688,784.9844 L524.4688,787.7031 Q523.8438,787.125 523.25,786.8594 Q522.6563,786.5781 522.0313,786.5781 Q520.6875,786.5781 520,787.6563 Q519.3125,788.7188 519.3125,790.8125 Q519.3125,792.9063 520,793.9844 Q520.6875,795.0469 522.0313,795.0469 Q522.6563,795.0469 523.25,794.7813 Q523.8438,794.5 524.4688,793.9219 L524.4688,796.6406 Z " fill="#000000"/><text fill="#000000" font-family="sans-serif" font-size="14" lengthAdjust="spacing" textLength="109.874" x="535.5" y="795.8467">StructureParser</text><rect fill="#FFFFFF" height="15.9688" style="stroke:#181818;stroke-width:1;stroke-dasharray:2.0,2.0;" width="79.5664" x="653.374" y="772"/><text fill="#000000" font-family="sans-serif" font-size="12" font-style="italic" lengthAdjust="spacing" textLength="77.5664" x="654.374" y="784.1387">VirtualParser</text></g><!--class StartObjectParser--><g id="elem_StartObjectParser"><rect codeLine="40" fill="#F1F1F1" height="32" id="StartObjectParser" rx="2.5" ry="2.5" style="stroke:#181818;stroke-width:0.5;" width="156.2363" x="724" y="591"/><ellipse cx="739" cy="607" fill="#ADD1B2" rx="11" ry="11" style="stroke:#181818;stroke-width:1;"/><path d="M741.9688,612.6406 Q741.3906,612.9375 740.75,613.0781 Q740.1094,613.2344 739.4063,613.2344 Q736.9063,613.2344 735.5781,611.5938 Q734.2656,609.9375 734.2656,606.8125 Q734.2656,603.6875 735.5781,602.0313 Q736.9063,600.375 739.4063,600.375 Q740.1094,600.375 740.75,600.5313 Q741.4063,600.6875 741.9688,600.9844 L741.9688,603.7031 Q741.3438,603.125 740.75,602.8594 Q740.1563,602.5781 739.5313,602.5781 Q738.1875,602.5781 737.5,603.6563 Q736.8125,604.7188 736.8125,606.8125 Q736.8125,608.9063 737.5,609.9844 Q738.1875,611.0469 739.5313,611.0469 Q740.1563,611.0469 740.75,610.7813 Q741.3438,610.5 741.9688,609.9219 L741.9688,612.6406 Z " fill="#000000"/><text fill="#000000" font-family="sans-serif" font-size="14" lengthAdjust="spacing" textLength="124.2363" x="753" y="611.8467">StartObjectParser</text></g><!--class EndObjectParser--><g id="elem_EndObjectParser"><rect codeLine="42" fill="#F1F1F1" height="32" id="EndObjectParser" rx="2.5" ry="2.5" style="stroke:#181818;stroke-width:0.5;" width="148.6416" x="915.5" y="591"/><ellipse cx="930.5" cy="607" fill="#ADD1B2" rx="11" ry="11" style="stroke:#181818;stroke-width:1;"/><path d="M933.4688,612.6406 Q932.8906,612.9375 932.25,613.0781 Q931.6094,613.2344 930.9063,613.2344 Q928.4063,613.2344 927.0781,611.5938 Q925.7656,609.9375 925.7656,606.8125 Q925.7656,603.6875 927.0781,602.0313 Q928.4063,600.375 930.9063,600.375 Q931.6094,600.375 932.25,600.5313 Q932.9063,600.6875 933.4688,600.9844 L933.4688,603.7031 Q932.8438,603.125 932.25,602.8594 Q931.6563,602.5781 931.0313,602.5781 Q929.6875,602.5781 929,603.6563 Q928.3125,604.7188 928.3125,606.8125 Q928.3125,608.9063 929,609.9844 Q929.6875,611.0469 931.0313,611.0469 Q931.6563,611.0469 932.25,610.7813 Q932.8438,610.5 933.4688,609.9219 L933.4688,612.6406 Z " fill="#000000"/><text fill="#000000" font-family="sans-serif" font-size="14" lengthAdjust="spacing" textLength="116.6416" x="944.5" y="611.8467">EndObjectParser</text></g><!--class StartArrayParser--><g id="elem_StartArrayParser"><rect codeLine="44" fill="#F1F1F1" height="32" id="StartArrayParser" rx="2.5" ry="2.5" style="stroke:#181818;stroke-width:0.5;" width="148.5938" x="363.5" y="591"/><ellipse cx="378.5" cy="607" fill="#ADD1B2" rx="11" ry="11" style="stroke:#181818;stroke-width:1;"/><path d="M381.4688,612.6406 Q380.8906,612.9375 380.25,613.0781 Q379.6094,613.2344 378.9063,613.2344 Q376.4063,613.2344 375.0781,611.5938 Q373.7656,609.9375 373.7656,606.8125 Q373.7656,603.6875 375.0781,602.0313 Q376.4063,600.375 378.9063,600.375 Q379.6094,600.375 380.25,600.5313 Q380.9063,600.6875 381.4688,600.9844 L381.4688,603.7031 Q380.8438,603.125 380.25,602.8594 Q379.6563,602.5781 379.0313,602.5781 Q377.6875,602.5781 377,603.6563 Q376.3125,604.7188 376.3125,606.8125 Q376.3125,608.9063 377,609.9844 Q377.6875,611.0469 379.0313,611.0469 Q379.6563,611.0469 380.25,610.7813 Q380.8438,610.5 381.4688,609.9219 L381.4688,612.6406 Z " fill="#000000"/><text fill="#000000" font-family="sans-serif" font-size="14" lengthAdjust="spacing" textLength="116.5938" x="392.5" y="611.8467">StartArrayParser</text></g><!--class EndArrayParser--><g id="elem_EndArrayParser"><rect codeLine="46" fill="#F1F1F1" height="32" id="EndArrayParser" rx="2.5" ry="2.5" style="stroke:#181818;stroke-width:0.5;" width="140.999" x="547.5" y="591"/><ellipse cx="562.5" cy="607" fill="#ADD1B2" rx="11" ry="11" style="stroke:#181818;stroke-width:1;"/><path d="M565.4688,612.6406 Q564.8906,612.9375 564.25,613.0781 Q563.6094,613.2344 562.9063,613.2344 Q560.4063,613.2344 559.0781,611.5938 Q557.7656,609.9375 557.7656,606.8125 Q557.7656,603.6875 559.0781,602.0313 Q560.4063,600.375 562.9063,600.375 Q563.6094,600.375 564.25,600.5313 Q564.9063,600.6875 565.4688,600.9844 L565.4688,603.7031 Q564.8438,603.125 564.25,602.8594 Q563.6563,602.5781 563.0313,602.5781 Q561.6875,602.5781 561,603.6563 Q560.3125,604.7188 560.3125,606.8125 Q560.3125,608.9063 561,609.9844 Q561.6875,611.0469 563.0313,611.0469 Q563.6563,611.0469 564.25,610.7813 Q564.8438,610.5 565.4688,609.9219 L565.4688,612.6406 Z " fill="#000000"/><text fill="#000000" font-family="sans-serif" font-size="14" lengthAdjust="spacing" textLength="108.999" x="576.5" y="611.8467">EndArrayParser</text></g><!--class JsonData--><g id="elem_JsonData"><rect codeLine="50" fill="#F1F1F1" height="32" id="JsonData" rx="2.5" ry="2.5" style="stroke:#181818;stroke-width:0.5;" width="94.2891" x="159" y="867"/><ellipse cx="174" cy="883" fill="#ADD1B2" rx="11" ry="11" style="stroke:#181818;stroke-width:1;"/><path d="M176.9688,888.6406 Q176.3906,888.9375 175.75,889.0781 Q175.1094,889.2344 174.4063,889.2344 Q171.9063,889.2344 170.5781,887.5938 Q169.2656,885.9375 169.2656,882.8125 Q169.2656,879.6875 170.5781,878.0313 Q171.9063,876.375 174.4063,876.375 Q175.1094,876.375 175.75,876.5313 Q176.4063,876.6875 176.9688,876.9844 L176.9688,879.7031 Q176.3438,879.125 175.75,878.8594 Q175.1563,878.5781 174.5313,878.5781 Q173.1875,878.5781 172.5,879.6563 Q171.8125,880.7188 171.8125,882.8125 Q171.8125,884.9063 172.5,885.9844 Q173.1875,887.0469 174.5313,887.0469 Q175.1563,887.0469 175.75,886.7813 Q176.3438,886.5 176.9688,885.9219 L176.9688,888.6406 Z " fill="#000000"/><text fill="#000000" font-family="sans-serif" font-size="14" lengthAdjust="spacing" textLength="62.2891" x="188" y="887.8467">JsonData</text></g><!--class StructureParserBase--><g id="elem_StructureParserBase"><rect fill="#F1F1F1" height="32" id="StructureParserBase" rx="2.5" ry="2.5" style="stroke:#181818;stroke-width:0.5;" width="175.9648" x="1120" y="867"/><ellipse cx="1135" cy="883" fill="#ADD1B2" rx="11" ry="11" style="stroke:#181818;stroke-width:1;"/><path d="M1137.9688,888.6406 Q1137.3906,888.9375 1136.75,889.0781 Q1136.1094,889.2344 1135.4063,889.2344 Q1132.9063,889.2344 1131.5781,887.5938 Q1130.2656,885.9375 1130.2656,882.8125 Q1130.2656,879.6875 1131.5781,878.0313 Q1132.9063,876.375 1135.4063,876.375 Q1136.1094,876.375 1136.75,876.5313 Q1137.4063,876.6875 1137.9688,876.9844 L1137.9688,879.7031 Q1137.3438,879.125 1136.75,878.8594 Q1136.1563,878.5781 1135.5313,878.5781 Q1134.1875,878.5781 1133.5,879.6563 Q1132.8125,880.7188 1132.8125,882.8125 Q1132.8125,884.9063 1133.5,885.9844 Q1134.1875,887.0469 1135.5313,887.0469 Q1136.1563,887.0469 1136.75,886.7813 Q1137.3438,886.5 1137.9688,885.9219 L1137.9688,888.6406 Z " fill="#000000"/><text fill="#000000" font-family="sans-serif" font-size="14" lengthAdjust="spacing" textLength="143.9648" x="1149" y="887.8467">StructureParserBase</text></g><!--link JsonParser to CompositionParser--><g id="link_JsonParser_CompositionParser"><path codeLine="56" d="M331.88,489.7 C286.18,531.92 248.8573,566.4087 226.8173,586.7687 " fill="transparent" id="JsonParser-to-CompositionParser" style="stroke:#181818;stroke-width:1;"/><polygon fill="#181818" points="222.41,590.84,231.7352,587.6712,226.0827,587.4472,226.3067,581.7948,222.41,590.84" style="stroke:#181818;stroke-width:1;"/></g><!--link JsonParser to StartObjectParser--><g id="link_JsonParser_StartObjectParser"><path codeLine="57" d="M724.22,521.54 C751.15,550.79 770.2352,571.5167 784.1152,586.5867 " fill="transparent" id="JsonParser-to-StartObjectParser" style="stroke:#181818;stroke-width:1;"/><polygon fill="#181818" points="788.18,591,785.025,581.6702,784.7927,587.3222,779.1406,587.0899,788.18,591" style="stroke:#181818;stroke-width:1;"/></g><!--link JsonParser to EndObjectParser--><g id="link_JsonParser_EndObjectParser"><path codeLine="58" d="M724.26,434.88 C818.88,495.81 916.4153,558.6118 961.4853,587.6318 " fill="transparent" id="JsonParser-to-EndObjectParser" style="stroke:#181818;stroke-width:1;"/><polygon fill="#181818" points="966.53,590.88,961.1284,582.6445,962.3261,588.1731,956.7975,589.3708,966.53,590.88" style="stroke:#181818;stroke-width:1;"/></g><!--link JsonParser to StartArrayParser--><g id="link_JsonParser_StartArrayParser"><path codeLine="59" d="M460.59,531.31 C453.05,556.25 448.3655,571.7165 444.3255,585.0865 " fill="transparent" id="JsonParser-to-StartArrayParser" style="stroke:#181818;stroke-width:1;"/><polygon fill="#181818" points="442.59,590.83,449.0223,583.3717,444.0363,586.0437,441.3643,581.0577,442.59,590.83" style="stroke:#181818;stroke-width:1;"/></g><!--link JsonParser to EndArrayParser--><g id="link_JsonParser_EndArrayParser"><path codeLine="60" d="M595.41,531.31 C602.95,556.25 607.6345,571.7165 611.6745,585.0865 " fill="transparent" id="JsonParser-to-EndArrayParser" style="stroke:#181818;stroke-width:1;"/><polygon fill="#181818" points="613.41,590.83,614.6357,581.0577,611.9637,586.0437,606.9777,583.3717,613.41,590.83" style="stroke:#181818;stroke-width:1;"/></g><!--link JsonParser to JsonData--><g id="link_JsonParser_JsonData"><path codeLine="61" d="M331.95,375.13 C233.41,419.72 123.07,489.21 66,591 C8.56,693.45 134.4034,819.1162 183.6534,862.8462 " fill="transparent" id="JsonParser-to-JsonData" style="stroke:#181818;stroke-width:1;"/><polygon fill="#181818" points="188.14,866.83,184.0659,857.8633,184.4012,863.5102,178.7542,863.8455,188.14,866.83" style="stroke:#181818;stroke-width:1;"/></g><!--link StartObjectParser to VirtualParser--><g id="link_StartObjectParser_VirtualParser"><path codeLine="63" d="M771.2,623.06 C737.24,639.68 699.0676,658.3374 665.0676,674.9774 " fill="transparent" id="StartObjectParser-to-VirtualParser" style="stroke:#181818;stroke-width:1;"/><polygon fill="transparent" points="648.9,682.89,667.7051,680.3666,662.43,669.5882,648.9,682.89" style="stroke:#181818;stroke-width:1;"/></g><!--link EndObjectParser to VirtualParser--><g id="link_EndObjectParser_VirtualParser"><path codeLine="64" d="M927.74,623.06 C858.65,639.78 765.3848,662.3352 696.7248,678.9552 " fill="transparent" id="EndObjectParser-to-VirtualParser" style="stroke:#181818;stroke-width:1;"/><polygon fill="transparent" points="679.23,683.19,698.1364,684.7868,695.3131,673.1236,679.23,683.19" style="stroke:#181818;stroke-width:1;"/></g><!--link StartArrayParser to VirtualParser--><g id="link_StartArrayParser_VirtualParser"><path codeLine="65" d="M468.13,623.06 C501.35,639.68 538.4122,658.1963 571.6722,674.8363 " fill="transparent" id="StartArrayParser-to-VirtualParser" style="stroke:#181818;stroke-width:1;"/><polygon fill="transparent" points="587.77,682.89,574.3568,669.4704,568.9877,680.2022,587.77,682.89" style="stroke:#181818;stroke-width:1;"/></g><!--link EndArrayParser to VirtualParser--><g id="link_EndArrayParser_VirtualParser"><path codeLine="66" d="M618,623.27 C618,639.92 618,648.4 618,664.96 " fill="transparent" id="EndArrayParser-to-VirtualParser" style="stroke:#181818;stroke-width:1;"/><polygon fill="transparent" points="618,682.96,624,664.96,612,664.96,618,682.96" style="stroke:#181818;stroke-width:1;"/></g><!--link CompositionParser to VirtualParser--><g id="link_CompositionParser_VirtualParser"><path codeLine="68" d="M274.96,623.06 C353.76,640.28 463.9446,664.349 539.3046,680.809 " fill="transparent" id="CompositionParser-to-VirtualParser" style="stroke:#181818;stroke-width:1;"/><polygon fill="transparent" points="556.89,684.65,540.5849,674.9472,538.0243,686.6708,556.89,684.65" style="stroke:#181818;stroke-width:1;"/></g><!--link CompositionParser to JsonData--><g id="link_CompositionParser_JsonData"><path codeLine="69" d="M206,623.12 C206,671.03 206,813.09 206,860.93 " fill="transparent" id="CompositionParser-to-JsonData" style="stroke:#181818;stroke-width:1;"/><polygon fill="#181818" points="206,866.93,210,857.93,206,861.93,202,857.93,206,866.93" style="stroke:#181818;stroke-width:1;"/></g><!--link VirtualParser to StructureParser--><g id="link_VirtualParser_StructureParser"><path codeLine="71" d="M608.15,715.27 C604.27,731.92 602.8979,752.5614 606.8179,769.1214 " fill="transparent" id="VirtualParser-to-StructureParser" style="stroke:#181818;stroke-width:1;"/><polygon fill="#181818" points="608.2,774.96,610.0193,765.2806,607.0483,770.0945,602.2344,767.1234,608.2,774.96" style="stroke:#181818;stroke-width:1;"/></g><!--link StructureParser to VirtualParser--><g id="link_StructureParser_VirtualParser"><path codeLine="76" d="M628.38,774.96 C632.52,758.4 633.9779,737.7452 629.8679,721.0952 " fill="transparent" id="StructureParser-to-VirtualParser" style="stroke:#181818;stroke-width:1;"/><polygon fill="#181818" points="628.43,715.27,626.7034,724.9663,629.6283,720.1243,634.4703,723.0491,628.43,715.27" style="stroke:#181818;stroke-width:1;"/></g><!--link StructureParser to JsonData--><g id="link_StructureParser_JsonData"><path codeLine="73" d="M549.04,807.06 C465.08,825.4 331.4117,854.599 258.8817,870.449 " fill="transparent" id="StructureParser-to-JsonData" style="stroke:#181818;stroke-width:1;"/><polygon fill="#181818" points="253.02,871.73,262.6665,873.7164,257.9047,870.6625,260.9585,865.9008,253.02,871.73" style="stroke:#181818;stroke-width:1;"/></g><!--link StructureParser to StructureParserBase--><g id="link_StructureParser_StructureParserBase"><path codeLine="74" d="M716.42,807.01 C829.04,824.19 994.0158,849.3556 1102.1158,865.8456 " fill="transparent" id="StructureParser-to-StructureParserBase" style="stroke:#181818;stroke-width:1;"/><polygon fill="transparent" points="1119.91,868.56,1103.0206,859.9142,1101.211,871.777,1119.91,868.56" style="stroke:#181818;stroke-width:1;"/></g><!--SRC=[bPLHRu8m4CVV-HJD7Wncmmz028awJRObsp8Jtq_eN1sqfYrRZEwxZyfmb5QWFXYz-_sFtlykvOEa6E5yBmyen_a6S-5vUqW-OOlHZKWOnpVew25qYUq4eofKnX1ACX02FPQXL-02ypEgFhUDeAz-teE4qVYIXK8oj8QCf22nFqO9eqAY84PlM1IPZBuOIMETViA7Q4bZVqahUZHM_FzZHWRkhoGdTBic-BkVdRl0m24CbJbXMCcw9Ii9NBviTZYHVZUveEaWxbnnoZaS-WiEmMQCPIxkLbsxAmQFv0-VE_B6O0QTxRbGc-_IpOnGu4xxU9w2ks7EigeNPvbQ06THjQgwuWvjob8zNgJfWdF67-WxEu_O4H-q4KrLDELR4VlgUpAPM7K_pHjjpl8z4qIIcedMXCi2ikfVZ8uQhYLRkVAuHI8BZeSKQbmKrcANw-7Ae-fBuPhuUhAhXVh-ReKDarHU6LbIZLT2K9fje6t0QBmDj3gtwXlTMUGTsRf1ppC740IdM7V7Qq_1WXYZi9Vf8JpJOWjbWvezwQEjtD9sKhMj1VG2Pl9ab9Y1mFOo-bb_0G00]--></g></svg>