<svg xmlns="http://www.w3.org/2000/svg" xmlns:xlink="http://www.w3.org/1999/xlink" contentStyleType="text/css" data-diagram-type="CLASS" height="623px" preserveAspectRatio="none" style="width:521px;height:623px;background:#FFFFFF;" version="1.1" viewBox="0 0 521 623" width="521px" zoomAndPan="magnify"><defs/><g><!--cluster score--><g id="cluster_score"><path d="M8.5,6 L52.1494,6 A3.75,3.75 0 0 1 54.6494,8.5 L61.6494,28.2969 L511.5,28.2969 A2.5,2.5 0 0 1 514,30.7969 L514,613.5 A2.5,2.5 0 0 1 511.5,616 L8.5,616 A2.5,2.5 0 0 1 6,613.5 L6,8.5 A2.5,2.5 0 0 1 8.5,6 " fill="transparent" style="stroke:#000000;stroke-width:1.5;"/><line style="stroke:#000000;stroke-width:1.5;" x1="6" x2="61.6494" y1="28.2969" y2="28.2969"/><text fill="#000000" font-family="sans-serif" font-size="14" font-weight="bold" lengthAdjust="spacing" textLength="42.6494" x="10" y="20.9951">score</text></g><!--cluster json--><g id="cluster_json"><path d="M32.5,49 L66.2168,49 A3.75,3.75 0 0 1 68.7168,51.5 L75.7168,71.2969 L487.5,71.2969 A2.5,2.5 0 0 1 490,73.7969 L490,589.5 A2.5,2.5 0 0 1 487.5,592 L32.5,592 A2.5,2.5 0 0 1 30,589.5 L30,51.5 A2.5,2.5 0 0 1 32.5,49 " fill="transparent" style="stroke:#000000;stroke-width:1.5;"/><line style="stroke:#000000;stroke-width:1.5;" x1="30" x2="75.7168" y1="71.2969" y2="71.2969"/><text fill="#000000" font-family="sans-serif" font-size="14" font-weight="bold" lengthAdjust="spacing" textLength="32.7168" x="34" y="63.9951">json</text></g><!--cluster vajson--><g id="cluster_vajson"><path d="M56.5,92 L108.79,92 A3.75,3.75 0 0 1 111.29,94.5 L118.29,114.2969 L463.5,114.2969 A2.5,2.5 0 0 1 466,116.7969 L466,565.5 A2.5,2.5 0 0 1 463.5,568 L56.5,568 A2.5,2.5 0 0 1 54,565.5 L54,94.5 A2.5,2.5 0 0 1 56.5,92 " fill="transparent" style="stroke:#000000;stroke-width:1.5;"/><line style="stroke:#000000;stroke-width:1.5;" x1="54" x2="118.29" y1="114.2969" y2="114.2969"/><text fill="#000000" font-family="sans-serif" font-size="14" font-weight="bold" lengthAdjust="spacing" textLength="51.29" x="58" y="106.9951">vajson</text></g><!--class StrictParser--><g id="elem_StrictParser"><rect codeLine="6" fill="#F1F1F1" height="333.3438" id="StrictParser" rx="2.5" ry="2.5" style="stroke:#181818;stroke-width:0.5;" width="379.6982" x="70" y="127"/><ellipse cx="197.6401" cy="143" fill="#ADD1B2" rx="11" ry="11" style="stroke:#181818;stroke-width:1;"/><path d="M200.6089,148.6406 Q200.0308,148.9375 199.3901,149.0781 Q198.7495,149.2344 198.0464,149.2344 Q195.5464,149.2344 194.2183,147.5938 Q192.9058,145.9375 192.9058,142.8125 Q192.9058,139.6875 194.2183,138.0313 Q195.5464,136.375 198.0464,136.375 Q198.7495,136.375 199.3901,136.5313 Q200.0464,136.6875 200.6089,136.9844 L200.6089,139.7031 Q199.9839,139.125 199.3901,138.8594 Q198.7964,138.5781 198.1714,138.5781 Q196.8276,138.5781 196.1401,139.6563 Q195.4526,140.7188 195.4526,142.8125 Q195.4526,144.9063 196.1401,145.9844 Q196.8276,147.0469 198.1714,147.0469 Q198.7964,147.0469 199.3901,146.7813 Q199.9839,146.5 200.6089,145.9219 L200.6089,148.6406 Z " fill="#000000"/><text fill="#000000" font-family="sans-serif" font-size="14" lengthAdjust="spacing" textLength="81.6484" x="218.1401" y="147.8467">StrictParser</text><rect fill="#FFFFFF" height="15.9688" style="stroke:#181818;stroke-width:1;stroke-dasharray:2.0,2.0;" width="32.2695" x="420.4287" y="124"/><text fill="#000000" font-family="sans-serif" font-size="12" font-style="italic" lengthAdjust="spacing" textLength="30.2695" x="421.4287" y="136.1387">Child</text><line style="stroke:#181818;stroke-width:0.5;" x1="71" x2="448.6982" y1="159" y2="159"/><ellipse cx="81" cy="172.6484" fill="#84BE84" rx="3" ry="3" style="stroke:#038048;stroke-width:1;"/><text fill="#000000" font-family="sans-serif" font-size="14" lengthAdjust="spacing" textLength="165.7783" x="90" y="175.9951">StrictParser(JsonData&amp;)</text><ellipse cx="81" cy="188.9453" fill="#84BE84" rx="3" ry="3" style="stroke:#038048;stroke-width:1;"/><text fill="#000000" font-family="sans-serif" font-size="14" lengthAdjust="spacing" textLength="208.2227" x="90" y="192.292">auto Parse() -&gt; Result&lt;void&gt;</text><ellipse cx="81" cy="205.2422" fill="#84BE84" rx="3" ry="3" style="stroke:#038048;stroke-width:1;"/><text fill="#000000" font-family="sans-serif" font-size="14" lengthAdjust="spacing" textLength="226.2217" x="90" y="208.5889">auto SubParse() -&gt; ParserResult</text><ellipse cx="81" cy="221.5391" fill="#84BE84" rx="3" ry="3" style="stroke:#038048;stroke-width:1;"/><text fill="#000000" font-family="sans-serif" font-size="14" lengthAdjust="spacing" textLength="207.9082" x="90" y="224.8857">auto OnNull() -&gt; ParserResult</text><ellipse cx="81" cy="237.8359" fill="#84BE84" rx="3" ry="3" style="stroke:#038048;stroke-width:1;"/><text fill="#000000" font-family="sans-serif" font-size="14" lengthAdjust="spacing" textLength="241.3154" x="90" y="241.1826">auto OnBool(bool) -&gt; ParserResult</text><ellipse cx="81" cy="254.1328" fill="#84BE84" rx="3" ry="3" style="stroke:#038048;stroke-width:1;"/><text fill="#000000" font-family="sans-serif" font-size="14" lengthAdjust="spacing" textLength="353.6982" x="90" y="257.4795">auto OnNumber(util::JsonNumber) -&gt; ParserResult</text><ellipse cx="81" cy="270.4297" fill="#84BE84" rx="3" ry="3" style="stroke:#038048;stroke-width:1;"/><text fill="#000000" font-family="sans-serif" font-size="14" lengthAdjust="spacing" textLength="307.6514" x="90" y="273.7764">auto OnString(CStringView) -&gt; ParserResult</text><ellipse cx="81" cy="286.7266" fill="#84BE84" rx="3" ry="3" style="stroke:#038048;stroke-width:1;"/><text fill="#000000" font-family="sans-serif" font-size="14" lengthAdjust="spacing" text-decoration="underline" textLength="342.8633" x="90" y="290.0732">auto OnBinaryString(StringView) -&gt; ParserResult</text><ellipse cx="81" cy="303.0234" fill="#84BE84" rx="3" ry="3" style="stroke:#038048;stroke-width:1;"/><text fill="#000000" font-family="sans-serif" font-size="14" lengthAdjust="spacing" textLength="291.9492" x="90" y="306.3701">auto OnKey(CStringView) -&gt; ParserResult</text><ellipse cx="81" cy="319.3203" fill="#84BE84" rx="3" ry="3" style="stroke:#038048;stroke-width:1;"/><text fill="#000000" font-family="sans-serif" font-size="14" lengthAdjust="spacing" text-decoration="underline" textLength="327.1611" x="90" y="322.667">auto OnBinaryKey(StringView) -&gt; ParserResult</text><ellipse cx="81" cy="335.6172" fill="#84BE84" rx="3" ry="3" style="stroke:#038048;stroke-width:1;"/><text fill="#000000" font-family="sans-serif" font-size="14" lengthAdjust="spacing" textLength="260.5791" x="90" y="338.9639">auto OnStartObject() -&gt; ParserResult</text><ellipse cx="81" cy="351.9141" fill="#84BE84" rx="3" ry="3" style="stroke:#038048;stroke-width:1;"/><text fill="#000000" font-family="sans-serif" font-size="14" lengthAdjust="spacing" textLength="323.7227" x="90" y="355.2607">auto OnEndObject(std::size_t) -&gt; ParserResult</text><ellipse cx="81" cy="368.2109" fill="#84BE84" rx="3" ry="3" style="stroke:#038048;stroke-width:1;"/><text fill="#000000" font-family="sans-serif" font-size="14" lengthAdjust="spacing" textLength="252.9365" x="90" y="371.5576">auto OnStartArray() -&gt; ParserResult</text><ellipse cx="81" cy="384.5078" fill="#84BE84" rx="3" ry="3" style="stroke:#038048;stroke-width:1;"/><text fill="#000000" font-family="sans-serif" font-size="14" lengthAdjust="spacing" textLength="316.0801" x="90" y="387.8545">auto OnEndArray(std::size_t) -&gt; ParserResult</text><ellipse cx="81" cy="400.8047" fill="#84BE84" rx="3" ry="3" style="stroke:#038048;stroke-width:1;"/><text fill="#000000" font-family="sans-serif" font-size="14" lengthAdjust="spacing" text-decoration="underline" textLength="265.0566" x="90" y="404.1514">auto OnBinary(Bytes) -&gt; ParserResult</text><ellipse cx="81" cy="417.1016" fill="#84BE84" rx="3" ry="3" style="stroke:#038048;stroke-width:1;"/><text fill="#000000" font-family="sans-serif" font-size="14" lengthAdjust="spacing" text-decoration="underline" textLength="305.0947" x="90" y="420.4482">auto OnUnexpectedEvent() -&gt; ParserResult</text><text fill="#000000" font-family="sans-serif" font-size="14" lengthAdjust="spacing" textLength="4.4502" x="90" y="436.7451">&#160;</text><polygon fill="#FFFF44" points="81,444.6953,85,448.6953,81,452.6953,77,448.6953" style="stroke:#B38D22;stroke-width:1;"/><text fill="#000000" font-family="sans-serif" font-size="14" lengthAdjust="spacing" textLength="304.1855" x="90" y="453.042">auto GetCurrentKey() const -&gt; CStringView</text></g><!--class StructureParser--><g id="elem_StructureParser"><rect codeLine="27" fill="#F1F1F1" height="32" id="StructureParser" rx="2.5" ry="2.5" style="stroke:#181818;stroke-width:0.5;" width="215.8584" x="152" y="520"/><ellipse cx="167" cy="536" fill="#ADD1B2" rx="11" ry="11" style="stroke:#181818;stroke-width:1;"/><path d="M169.9688,541.6406 Q169.3906,541.9375 168.75,542.0781 Q168.1094,542.2344 167.4063,542.2344 Q164.9063,542.2344 163.5781,540.5938 Q162.2656,538.9375 162.2656,535.8125 Q162.2656,532.6875 163.5781,531.0313 Q164.9063,529.375 167.4063,529.375 Q168.1094,529.375 168.75,529.5313 Q169.4063,529.6875 169.9688,529.9844 L169.9688,532.7031 Q169.3438,532.125 168.75,531.8594 Q168.1563,531.5781 167.5313,531.5781 Q166.1875,531.5781 165.5,532.6563 Q164.8125,533.7188 164.8125,535.8125 Q164.8125,537.9063 165.5,538.9844 Q166.1875,540.0469 167.5313,540.0469 Q168.1563,540.0469 168.75,539.7813 Q169.3438,539.5 169.9688,538.9219 L169.9688,541.6406 Z " fill="#000000"/><text fill="#000000" font-family="sans-serif" font-size="14" lengthAdjust="spacing" textLength="109.874" x="181" y="540.8467">StructureParser</text><rect fill="#FFFFFF" height="15.9688" style="stroke:#181818;stroke-width:1;stroke-dasharray:2.0,2.0;" width="71.9844" x="298.874" y="517"/><text fill="#000000" font-family="sans-serif" font-size="12" font-style="italic" lengthAdjust="spacing" textLength="69.9844" x="299.874" y="529.1387">StrictParser</text></g><!--link StrictParser to StructureParser--><g id="link_StrictParser_StructureParser"><path codeLine="32" d="M260,460.22 C260,484.79 260,500.4 260,513.98 " fill="transparent" id="StrictParser-to-StructureParser" style="stroke:#181818;stroke-width:1;"/><polygon fill="#181818" points="260,519.98,264,510.98,260,514.98,256,510.98,260,519.98" style="stroke:#181818;stroke-width:1;"/></g><!--SRC=[fPFHIiCm58Rl-nI72T8XUu4o1cuEGS69GsybJGzRPfgCv6HQnzxTnfGInnWPNZI5a-__J_A7inOL0jPRQg36kaHZispB-0TR8GmirmO7iCy0-jh6QXLAKN77uZ80bynQM98Hd9wPiMZ6ixMGrQGd06x-xESFhS4T8tOzZ0ZcICCla0zXD84Nj4xIUAT5DJd6bgwCoE0Q-6DoePwSb2dSL6kPb-sIvEdZonq9MHJ-Dg6GeFGvg5K-2_ytWP_dH7jBZ0G_z6SKYfccyqYpw9IFsFolgJUugEEIcA55kK5EAV7FLTN1bggYiE8RtocrpQqnh4di4jZ49gUpoASDeRr4zwhmQzjU3glv3jMfG7hnLT3S8ysSCItiany2rygILqMls6aEGTmFekFa37Qp60zUcAD3vhzM56_1gBK-qlu0]--></g></svg>