<svg xmlns="http://www.w3.org/2000/svg" xmlns:xlink="http://www.w3.org/1999/xlink" contentStyleType="text/css" data-diagram-type="CLASS" height="641px" preserveAspectRatio="none" style="width:446px;height:641px;background:#FFFFFF;" version="1.1" viewBox="0 0 446 641" width="446px" zoomAndPan="magnify"><defs/><g><!--cluster score--><g id="cluster_score"><path d="M8.5,6 L52.1494,6 A3.75,3.75 0 0 1 54.6494,8.5 L61.6494,28.2969 L436.5,28.2969 A2.5,2.5 0 0 1 439,30.7969 L439,631.5 A2.5,2.5 0 0 1 436.5,634 L8.5,634 A2.5,2.5 0 0 1 6,631.5 L6,8.5 A2.5,2.5 0 0 1 8.5,6 " fill="transparent" style="stroke:#000000;stroke-width:1.5;"/><line style="stroke:#000000;stroke-width:1.5;" x1="6" x2="61.6494" y1="28.2969" y2="28.2969"/><text fill="#000000" font-family="sans-serif" font-size="14" font-weight="bold" lengthAdjust="spacing" textLength="42.6494" x="10" y="20.9951">score</text></g><!--cluster json--><g id="cluster_json"><path d="M32.5,49 L66.2168,49 A3.75,3.75 0 0 1 68.7168,51.5 L75.7168,71.2969 L412.5,71.2969 A2.5,2.5 0 0 1 415,73.7969 L415,607.5 A2.5,2.5 0 0 1 412.5,610 L32.5,610 A2.5,2.5 0 0 1 30,607.5 L30,51.5 A2.5,2.5 0 0 1 32.5,49 " fill="transparent" style="stroke:#000000;stroke-width:1.5;"/><line style="stroke:#000000;stroke-width:1.5;" x1="30" x2="75.7168" y1="71.2969" y2="71.2969"/><text fill="#000000" font-family="sans-serif" font-size="14" font-weight="bold" lengthAdjust="spacing" textLength="32.7168" x="34" y="63.9951">json</text></g><!--cluster vajson--><g id="cluster_vajson"><path d="M56.5,92 L108.79,92 A3.75,3.75 0 0 1 111.29,94.5 L118.29,114.2969 L388.5,114.2969 A2.5,2.5 0 0 1 391,116.7969 L391,583.5 A2.5,2.5 0 0 1 388.5,586 L56.5,586 A2.5,2.5 0 0 1 54,583.5 L54,94.5 A2.5,2.5 0 0 1 56.5,92 " fill="transparent" style="stroke:#000000;stroke-width:1.5;"/><line style="stroke:#000000;stroke-width:1.5;" x1="54" x2="118.29" y1="114.2969" y2="114.2969"/><text fill="#000000" font-family="sans-serif" font-size="14" font-weight="bold" lengthAdjust="spacing" textLength="51.29" x="58" y="106.9951">vajson</text></g><!--cluster v2--><g id="cluster_v2"><path d="M208.5,135 L228.3672,135 A3.75,3.75 0 0 1 230.8672,137.5 L237.8672,157.2969 L311.5,157.2969 A2.5,2.5 0 0 1 314,159.7969 L314,215.5 A2.5,2.5 0 0 1 311.5,218 L208.5,218 A2.5,2.5 0 0 1 206,215.5 L206,137.5 A2.5,2.5 0 0 1 208.5,135 " fill="transparent" style="stroke:#000000;stroke-width:1.5;"/><line style="stroke:#000000;stroke-width:1.5;" x1="206" x2="237.8672" y1="157.2969" y2="157.2969"/><text fill="#000000" font-family="sans-serif" font-size="14" font-weight="bold" lengthAdjust="spacing" textLength="18.8672" x="210" y="149.9951">v2</text></g><!--class CompositionParser--><g id="elem_CompositionParser"><rect codeLine="12" fill="#F1F1F1" height="32" id="CompositionParser" rx="2.5" ry="2.5" style="stroke:#181818;stroke-width:0.5;" width="245.4385" x="84.5" y="262"/><ellipse cx="99.5" cy="278" fill="#ADD1B2" rx="11" ry="11" style="stroke:#181818;stroke-width:1;"/><path d="M102.4688,283.6406 Q101.8906,283.9375 101.25,284.0781 Q100.6094,284.2344 99.9063,284.2344 Q97.4063,284.2344 96.0781,282.5938 Q94.7656,280.9375 94.7656,277.8125 Q94.7656,274.6875 96.0781,273.0313 Q97.4063,271.375 99.9063,271.375 Q100.6094,271.375 101.25,271.5313 Q101.9063,271.6875 102.4688,271.9844 L102.4688,274.7031 Q101.8438,274.125 101.25,273.8594 Q100.6563,273.5781 100.0313,273.5781 Q98.6875,273.5781 98,274.6563 Q97.3125,275.7188 97.3125,277.8125 Q97.3125,279.9063 98,280.9844 Q98.6875,282.0469 100.0313,282.0469 Q100.6563,282.0469 101.25,281.7813 Q101.8438,281.5 102.4688,280.9219 L102.4688,283.6406 Z " fill="#000000"/><text fill="#000000" font-family="sans-serif" font-size="14" lengthAdjust="spacing" textLength="131.8721" x="113.5" y="282.8467">CompositionParser</text><rect fill="#FFFFFF" height="15.9688" style="stroke:#181818;stroke-width:1;stroke-dasharray:2.0,2.0;" width="79.5664" x="253.3721" y="259"/><text fill="#000000" font-family="sans-serif" font-size="12" font-style="italic" lengthAdjust="spacing" textLength="77.5664" x="254.3721" y="271.1387">VirtualParser</text></g><!--class VirtualParser--><g id="elem_VirtualParser"><rect codeLine="14" fill="#F1F1F1" height="32" id="VirtualParser" rx="2.5" ry="2.5" style="stroke:#181818;stroke-width:0.5;" width="122.4941" x="120" y="354"/><ellipse cx="135" cy="370" fill="#ADD1B2" rx="11" ry="11" style="stroke:#181818;stroke-width:1;"/><path d="M137.9688,375.6406 Q137.3906,375.9375 136.75,376.0781 Q136.1094,376.2344 135.4063,376.2344 Q132.9063,376.2344 131.5781,374.5938 Q130.2656,372.9375 130.2656,369.8125 Q130.2656,366.6875 131.5781,365.0313 Q132.9063,363.375 135.4063,363.375 Q136.1094,363.375 136.75,363.5313 Q137.4063,363.6875 137.9688,363.9844 L137.9688,366.7031 Q137.3438,366.125 136.75,365.8594 Q136.1563,365.5781 135.5313,365.5781 Q134.1875,365.5781 133.5,366.6563 Q132.8125,367.7188 132.8125,369.8125 Q132.8125,371.9063 133.5,372.9844 Q134.1875,374.0469 135.5313,374.0469 Q136.1563,374.0469 136.75,373.7813 Q137.3438,373.5 137.9688,372.9219 L137.9688,375.6406 Z " fill="#000000"/><text fill="#000000" font-family="sans-serif" font-size="14" lengthAdjust="spacing" textLength="90.4941" x="149" y="374.8467">VirtualParser</text></g><!--class StructureParser--><g id="elem_StructureParser"><rect codeLine="16" fill="#F1F1F1" height="32" id="StructureParser" rx="2.5" ry="2.5" style="stroke:#181818;stroke-width:0.5;" width="223.4404" x="69.5" y="446"/><ellipse cx="84.5" cy="462" fill="#ADD1B2" rx="11" ry="11" style="stroke:#181818;stroke-width:1;"/><path d="M87.4688,467.6406 Q86.8906,467.9375 86.25,468.0781 Q85.6094,468.2344 84.9063,468.2344 Q82.4063,468.2344 81.0781,466.5938 Q79.7656,464.9375 79.7656,461.8125 Q79.7656,458.6875 81.0781,457.0313 Q82.4063,455.375 84.9063,455.375 Q85.6094,455.375 86.25,455.5313 Q86.9063,455.6875 87.4688,455.9844 L87.4688,458.7031 Q86.8438,458.125 86.25,457.8594 Q85.6563,457.5781 85.0313,457.5781 Q83.6875,457.5781 83,458.6563 Q82.3125,459.7188 82.3125,461.8125 Q82.3125,463.9063 83,464.9844 Q83.6875,466.0469 85.0313,466.0469 Q85.6563,466.0469 86.25,465.7813 Q86.8438,465.5 87.4688,464.9219 L87.4688,467.6406 Z " fill="#000000"/><text fill="#000000" font-family="sans-serif" font-size="14" lengthAdjust="spacing" textLength="109.874" x="98.5" y="466.8467">StructureParser</text><rect fill="#FFFFFF" height="15.9688" style="stroke:#181818;stroke-width:1;stroke-dasharray:2.0,2.0;" width="79.5664" x="216.374" y="443"/><text fill="#000000" font-family="sans-serif" font-size="12" font-style="italic" lengthAdjust="spacing" textLength="77.5664" x="217.374" y="455.1387">VirtualParser</text></g><!--class JsonData--><g id="elem_JsonData"><rect codeLine="18" fill="#F1F1F1" height="32" id="JsonData" rx="2.5" ry="2.5" style="stroke:#181818;stroke-width:0.5;" width="94.2891" x="281" y="538"/><ellipse cx="296" cy="554" fill="#ADD1B2" rx="11" ry="11" style="stroke:#181818;stroke-width:1;"/><path d="M298.9688,559.6406 Q298.3906,559.9375 297.75,560.0781 Q297.1094,560.2344 296.4063,560.2344 Q293.9063,560.2344 292.5781,558.5938 Q291.2656,556.9375 291.2656,553.8125 Q291.2656,550.6875 292.5781,549.0313 Q293.9063,547.375 296.4063,547.375 Q297.1094,547.375 297.75,547.5313 Q298.4063,547.6875 298.9688,547.9844 L298.9688,550.7031 Q298.3438,550.125 297.75,549.8594 Q297.1563,549.5781 296.5313,549.5781 Q295.1875,549.5781 294.5,550.6563 Q293.8125,551.7188 293.8125,553.8125 Q293.8125,555.9063 294.5,556.9844 Q295.1875,558.0469 296.5313,558.0469 Q297.1563,558.0469 297.75,557.7813 Q298.3438,557.5 298.9688,556.9219 L298.9688,559.6406 Z " fill="#000000"/><text fill="#000000" font-family="sans-serif" font-size="14" lengthAdjust="spacing" textLength="62.2891" x="310" y="558.8467">JsonData</text></g><!--class StructureParserBase--><g id="elem_StructureParserBase"><rect fill="#F1F1F1" height="32" id="StructureParserBase" rx="2.5" ry="2.5" style="stroke:#181818;stroke-width:0.5;" width="175.9648" x="70" y="538"/><ellipse cx="85" cy="554" fill="#ADD1B2" rx="11" ry="11" style="stroke:#181818;stroke-width:1;"/><path d="M87.9688,559.6406 Q87.3906,559.9375 86.75,560.0781 Q86.1094,560.2344 85.4063,560.2344 Q82.9063,560.2344 81.5781,558.5938 Q80.2656,556.9375 80.2656,553.8125 Q80.2656,550.6875 81.5781,549.0313 Q82.9063,547.375 85.4063,547.375 Q86.1094,547.375 86.75,547.5313 Q87.4063,547.6875 87.9688,547.9844 L87.9688,550.7031 Q87.3438,550.125 86.75,549.8594 Q86.1563,549.5781 85.5313,549.5781 Q84.1875,549.5781 83.5,550.6563 Q82.8125,551.7188 82.8125,553.8125 Q82.8125,555.9063 83.5,556.9844 Q84.1875,558.0469 85.5313,558.0469 Q86.1563,558.0469 86.75,557.7813 Q87.3438,557.5 87.9688,556.9219 L87.9688,559.6406 Z " fill="#000000"/><text fill="#000000" font-family="sans-serif" font-size="14" lengthAdjust="spacing" textLength="143.9648" x="99" y="558.8467">StructureParserBase</text></g><!--class Parser--><g id="elem_Parser"><rect codeLine="8" fill="#F1F1F1" height="32" id="Parser" rx="2.5" ry="2.5" style="stroke:#181818;stroke-width:0.5;" width="76.4404" x="222" y="170"/><ellipse cx="237" cy="186" fill="#ADD1B2" rx="11" ry="11" style="stroke:#181818;stroke-width:1;"/><path d="M239.9688,191.6406 Q239.3906,191.9375 238.75,192.0781 Q238.1094,192.2344 237.4063,192.2344 Q234.9063,192.2344 233.5781,190.5938 Q232.2656,188.9375 232.2656,185.8125 Q232.2656,182.6875 233.5781,181.0313 Q234.9063,179.375 237.4063,179.375 Q238.1094,179.375 238.75,179.5313 Q239.4063,179.6875 239.9688,179.9844 L239.9688,182.7031 Q239.3438,182.125 238.75,181.8594 Q238.1563,181.5781 237.5313,181.5781 Q236.1875,181.5781 235.5,182.6563 Q234.8125,183.7188 234.8125,185.8125 Q234.8125,187.9063 235.5,188.9844 Q236.1875,190.0469 237.5313,190.0469 Q238.1563,190.0469 238.75,189.7813 Q239.3438,189.5 239.9688,188.9219 L239.9688,191.6406 Z " fill="#000000"/><text fill="#000000" font-family="sans-serif" font-size="14" lengthAdjust="spacing" textLength="44.4404" x="251" y="190.8467">Parser</text></g><!--link Parser to CompositionParser--><g id="link_Parser_CompositionParser"><path codeLine="20" d="M251.01,202.27 C241.2,218.92 234.7425,229.8888 224.9925,246.4488 " fill="transparent" id="Parser-to-CompositionParser" style="stroke:#181818;stroke-width:1;"/><polygon fill="transparent" points="215.86,261.96,230.1629,249.493,219.8221,243.4046,215.86,261.96" style="stroke:#181818;stroke-width:1;"/></g><!--link Parser to JsonData--><g id="link_Parser_JsonData"><path codeLine="21" d="M288.09,202.25 C308.64,215.14 334.95,235.71 347,262 C391.39,358.89 351.9685,487.5469 335.8285,532.2269 " fill="transparent" id="Parser-to-JsonData" style="stroke:#181818;stroke-width:1;"/><polygon fill="#181818" points="333.79,537.87,340.6098,530.7643,335.4887,533.1674,333.0857,528.0464,333.79,537.87" style="stroke:#181818;stroke-width:1;"/></g><!--link CompositionParser to VirtualParser--><g id="link_CompositionParser_VirtualParser"><path codeLine="23" d="M202.59,294.27 C197.78,310.92 195.1219,320.106 190.3419,336.666 " fill="transparent" id="CompositionParser-to-VirtualParser" style="stroke:#181818;stroke-width:1;"/><polygon fill="transparent" points="185.35,353.96,196.1065,338.33,184.5772,335.0021,185.35,353.96" style="stroke:#181818;stroke-width:1;"/></g><!--link CompositionParser to JsonData--><g id="link_CompositionParser_JsonData"><path codeLine="24" d="M219.8,294.38 C242.38,322.46 288.89,384.82 310,446 C320.88,477.52 324.8386,510.6193 326.5386,531.7393 " fill="transparent" id="CompositionParser-to-JsonData" style="stroke:#181818;stroke-width:1;"/><polygon fill="#181818" points="327.02,537.72,330.285,528.4281,326.6188,532.7361,322.3108,529.0699,327.02,537.72" style="stroke:#181818;stroke-width:1;"/></g><!--link VirtualParser to StructureParser--><g id="link_VirtualParser_StructureParser"><path codeLine="26" d="M171.15,386.27 C167.27,402.92 165.8979,423.5614 169.8179,440.1214 " fill="transparent" id="VirtualParser-to-StructureParser" style="stroke:#181818;stroke-width:1;"/><polygon fill="#181818" points="171.2,445.96,173.0193,436.2806,170.0483,441.0945,165.2344,438.1234,171.2,445.96" style="stroke:#181818;stroke-width:1;"/></g><!--link StructureParser to VirtualParser--><g id="link_StructureParser_VirtualParser"><path codeLine="30" d="M191.38,445.96 C195.52,429.4 196.9779,408.7452 192.8679,392.0952 " fill="transparent" id="StructureParser-to-VirtualParser" style="stroke:#181818;stroke-width:1;"/><polygon fill="#181818" points="191.43,386.27,189.7034,395.9663,192.6283,391.1243,197.4703,394.0491,191.43,386.27" style="stroke:#181818;stroke-width:1;"/></g><!--link StructureParser to JsonData--><g id="link_StructureParser_JsonData"><path codeLine="28" d="M205.6,478.06 C232.74,494.68 271.0333,518.1164 298.2033,534.7564 " fill="transparent" id="StructureParser-to-JsonData" style="stroke:#181818;stroke-width:1;"/><polygon fill="#181818" points="303.32,537.89,297.7341,529.7784,299.0561,535.2786,293.5559,536.6006,303.32,537.89" style="stroke:#181818;stroke-width:1;"/></g><!--link StructureParser to StructureParserBase--><g id="link_StructureParser_StructureParserBase"><path codeLine="29" d="M177.1,478.27 C172.84,494.92 170.5447,503.9625 166.3047,520.5225 " fill="transparent" id="StructureParser-to-StructureParserBase" style="stroke:#181818;stroke-width:1;"/><polygon fill="transparent" points="161.84,537.96,172.1172,522.0107,160.4922,519.0343,161.84,537.96" style="stroke:#181818;stroke-width:1;"/></g><!--SRC=[ZO_13e8m44Jl_Ohz0I-U3GVrvCd4nFjQDrgbb7IBYG7-NQ28QGk9XwRfczdfx5rT2KYNxWsQz8Ki2r6YVEADWAMn1BK0-987cs80F_J2ERZkm400P8xCS4JBPA5kFHulh-sCBWqhfqpXRPkpigx2tB-oQShR0p7IJivMqbMM_WawTCNtw732O-HgrMHfgT2HJTD-DB7xbE3_HMCS5cxOwz5UtXR1C6ZUq2HHMsHQJ4lhjw8_hVW0]--></g></svg>