<svg xmlns="http://www.w3.org/2000/svg" xmlns:xlink="http://www.w3.org/1999/xlink" contentStyleType="text/css" data-diagram-type="CLASS" height="797px" preserveAspectRatio="none" style="width:1317px;height:797px;background:#FFFFFF;" version="1.1" viewBox="0 0 1317 797" width="1317px" zoomAndPan="magnify"><defs/><g><!--cluster score--><g id="cluster_score"><path d="M8.5,6 L52.1494,6 A3.75,3.75 0 0 1 54.6494,8.5 L61.6494,28.2969 L1307.5,28.2969 A2.5,2.5 0 0 1 1310,30.7969 L1310,787.5 A2.5,2.5 0 0 1 1307.5,790 L8.5,790 A2.5,2.5 0 0 1 6,787.5 L6,8.5 A2.5,2.5 0 0 1 8.5,6 " fill="transparent" style="stroke:#000000;stroke-width:1.5;"/><line style="stroke:#000000;stroke-width:1.5;" x1="6" x2="61.6494" y1="28.2969" y2="28.2969"/><text fill="#000000" font-family="sans-serif" font-size="14" font-weight="bold" lengthAdjust="spacing" textLength="42.6494" x="10" y="20.9951">score</text></g><!--cluster json--><g id="cluster_json"><path d="M32.5,49 L66.2168,49 A3.75,3.75 0 0 1 68.7168,51.5 L75.7168,71.2969 L1283.5,71.2969 A2.5,2.5 0 0 1 1286,73.7969 L1286,763.5 A2.5,2.5 0 0 1 1283.5,766 L32.5,766 A2.5,2.5 0 0 1 30,763.5 L30,51.5 A2.5,2.5 0 0 1 32.5,49 " fill="transparent" style="stroke:#000000;stroke-width:1.5;"/><line style="stroke:#000000;stroke-width:1.5;" x1="30" x2="75.7168" y1="71.2969" y2="71.2969"/><text fill="#000000" font-family="sans-serif" font-size="14" font-weight="bold" lengthAdjust="spacing" textLength="32.7168" x="34" y="63.9951">json</text></g><!--cluster vajson--><g id="cluster_vajson"><path d="M56.5,92 L108.79,92 A3.75,3.75 0 0 1 111.29,94.5 L118.29,114.2969 L1259.5,114.2969 A2.5,2.5 0 0 1 1262,116.7969 L1262,739.5 A2.5,2.5 0 0 1 1259.5,742 L56.5,742 A2.5,2.5 0 0 1 54,739.5 L54,94.5 A2.5,2.5 0 0 1 56.5,92 " fill="transparent" style="stroke:#000000;stroke-width:1.5;"/><line style="stroke:#000000;stroke-width:1.5;" x1="54" x2="118.29" y1="114.2969" y2="114.2969"/><text fill="#000000" font-family="sans-serif" font-size="14" font-weight="bold" lengthAdjust="spacing" textLength="51.29" x="58" y="106.9951">vajson</text></g><!--class CompositionParser--><g id="elem_CompositionParser"><rect codeLine="6" fill="#F1F1F1" height="414.8281" id="CompositionParser" rx="2.5" ry="2.5" style="stroke:#181818;stroke-width:0.5;" width="590.4434" x="361" y="127"/><ellipse cx="568.1714" cy="143" fill="#ADD1B2" rx="11" ry="11" style="stroke:#181818;stroke-width:1;"/><path d="M571.1401,148.6406 Q570.562,148.9375 569.9214,149.0781 Q569.2808,149.2344 568.5776,149.2344 Q566.0776,149.2344 564.7495,147.5938 Q563.437,145.9375 563.437,142.8125 Q563.437,139.6875 564.7495,138.0313 Q566.0776,136.375 568.5776,136.375 Q569.2808,136.375 569.9214,136.5313 Q570.5776,136.6875 571.1401,136.9844 L571.1401,139.7031 Q570.5151,139.125 569.9214,138.8594 Q569.3276,138.5781 568.7026,138.5781 Q567.3589,138.5781 566.6714,139.6563 Q565.9839,140.7188 565.9839,142.8125 Q565.9839,144.9063 566.6714,145.9844 Q567.3589,147.0469 568.7026,147.0469 Q569.3276,147.0469 569.9214,146.7813 Q570.5151,146.5 571.1401,145.9219 L571.1401,148.6406 Z " fill="#000000"/><text fill="#000000" font-family="sans-serif" font-size="14" lengthAdjust="spacing" textLength="131.8721" x="588.6714" y="147.8467">CompositionParser</text><rect fill="#FFFFFF" height="15.9688" style="stroke:#181818;stroke-width:1;stroke-dasharray:2.0,2.0;" width="33.7285" x="920.7148" y="124"/><text fill="#000000" font-family="sans-serif" font-size="12" font-style="italic" lengthAdjust="spacing" textLength="31.7285" x="921.7148" y="136.1387">Mixin</text><line style="stroke:#181818;stroke-width:0.5;" x1="362" x2="950.4434" y1="159" y2="159"/><ellipse cx="372" cy="172.6484" fill="#84BE84" rx="3" ry="3" style="stroke:#038048;stroke-width:1;"/><text fill="#000000" font-family="sans-serif" font-size="14" lengthAdjust="spacing" textLength="216.002" x="381" y="175.9951">CompositionParser(JsonData&amp;)</text><ellipse cx="372" cy="188.9453" fill="#84BE84" rx="3" ry="3" style="stroke:#038048;stroke-width:1;"/><text fill="#000000" font-family="sans-serif" font-size="14" lengthAdjust="spacing" textLength="472.835" x="381" y="192.292">auto Key&lt;Fn&gt;(Fn) -&gt; CallableReturnsNoResult&lt;Fn, StringView, R&gt;</text><ellipse cx="372" cy="205.2422" fill="#84BE84" rx="3" ry="3" style="stroke:#038048;stroke-width:1;"/><text fill="#000000" font-family="sans-serif" font-size="14" lengthAdjust="spacing" textLength="453.7969" x="381" y="208.5889">auto Key&lt;Fn&gt;(Fn) -&gt; CallableReturnsResult&lt;Fn, StringView, R&gt;</text><ellipse cx="372" cy="221.5391" fill="#84BE84" rx="3" ry="3" style="stroke:#038048;stroke-width:1;"/><text fill="#000000" font-family="sans-serif" font-size="14" lengthAdjust="spacing" textLength="183.6816" x="381" y="224.8857">auto Key(StringView) -&gt; R</text><ellipse cx="372" cy="237.8359" fill="#84BE84" rx="3" ry="3" style="stroke:#038048;stroke-width:1;"/><text fill="#000000" font-family="sans-serif" font-size="14" lengthAdjust="spacing" textLength="431.9766" x="381" y="241.1826">auto Bool&lt;Fn&gt;(Fn) -&gt; CallableReturnsNoResult&lt;Fn, bool, R&gt;</text><ellipse cx="372" cy="254.1328" fill="#84BE84" rx="3" ry="3" style="stroke:#038048;stroke-width:1;"/><text fill="#000000" font-family="sans-serif" font-size="14" lengthAdjust="spacing" textLength="412.9385" x="381" y="257.4795">auto Bool&lt;Fn&gt;(Fn) -&gt; CallableReturnsResult&lt;Fn, bool, R&gt;</text><ellipse cx="372" cy="270.4297" fill="#84BE84" rx="3" ry="3" style="stroke:#038048;stroke-width:1;"/><text fill="#000000" font-family="sans-serif" font-size="14" lengthAdjust="spacing" textLength="436.2354" x="381" y="273.7764">auto Number&lt;Fn&gt;(Fn) -&gt; CallableReturnsNoResult&lt;Fn, T, R&gt;</text><ellipse cx="372" cy="286.7266" fill="#84BE84" rx="3" ry="3" style="stroke:#038048;stroke-width:1;"/><text fill="#000000" font-family="sans-serif" font-size="14" lengthAdjust="spacing" textLength="417.1973" x="381" y="290.0732">auto Number&lt;Fn&gt;(Fn) -&gt; CallableReturnsResult&lt;Fn, T, R&gt;</text><ellipse cx="372" cy="303.0234" fill="#84BE84" rx="3" ry="3" style="stroke:#038048;stroke-width:1;"/><text fill="#000000" font-family="sans-serif" font-size="14" lengthAdjust="spacing" textLength="488.5371" x="381" y="306.3701">auto String&lt;Fn&gt;(Fn) -&gt; CallableReturnsNoResult&lt;Fn, StringView, R&gt;</text><ellipse cx="372" cy="319.3203" fill="#84BE84" rx="3" ry="3" style="stroke:#038048;stroke-width:1;"/><text fill="#000000" font-family="sans-serif" font-size="14" lengthAdjust="spacing" textLength="469.499" x="381" y="322.667">auto String&lt;Fn&gt;(Fn) -&gt; CallableReturnsResult&lt;Fn, StringView, R&gt;</text><ellipse cx="372" cy="335.6172" fill="#84BE84" rx="3" ry="3" style="stroke:#038048;stroke-width:1;"/><text fill="#000000" font-family="sans-serif" font-size="14" lengthAdjust="spacing" textLength="228.8398" x="381" y="338.9639">auto String(StringView key) -&gt; R</text><ellipse cx="372" cy="351.9141" fill="#84BE84" rx="3" ry="3" style="stroke:#038048;stroke-width:1;"/><text fill="#000000" font-family="sans-serif" font-size="14" lengthAdjust="spacing" textLength="512.1416" x="381" y="355.2607">auto NumberArray&lt;Fn&gt;(Fn) -&gt; ArrayCallableReturnsNoResult&lt;Fn, T, R&gt;</text><ellipse cx="372" cy="368.2109" fill="#84BE84" rx="3" ry="3" style="stroke:#038048;stroke-width:1;"/><text fill="#000000" font-family="sans-serif" font-size="14" lengthAdjust="spacing" textLength="493.1035" x="381" y="371.5576">auto NumberArray&lt;Fn&gt;(Fn) -&gt; ArrayCallableReturnsResult&lt;Fn, T, R&gt;</text><ellipse cx="372" cy="384.5078" fill="#84BE84" rx="3" ry="3" style="stroke:#038048;stroke-width:1;"/><text fill="#000000" font-family="sans-serif" font-size="14" lengthAdjust="spacing" textLength="564.4434" x="381" y="387.8545">auto StringArray&lt;Fn&gt;(Fn) -&gt; ArrayCallableReturnsNoResult&lt;Fn, StringView, R&gt;</text><ellipse cx="372" cy="400.8047" fill="#84BE84" rx="3" ry="3" style="stroke:#038048;stroke-width:1;"/><text fill="#000000" font-family="sans-serif" font-size="14" lengthAdjust="spacing" textLength="545.4053" x="381" y="404.1514">auto StringArray&lt;Fn&gt;(Fn) -&gt; ArrayCallableReturnsResult&lt;Fn, StringView, R&gt;</text><ellipse cx="372" cy="417.1016" fill="#84BE84" rx="3" ry="3" style="stroke:#038048;stroke-width:1;"/><text fill="#000000" font-family="sans-serif" font-size="14" lengthAdjust="spacing" textLength="507.8828" x="381" y="420.4482">auto BoolArray&lt;Fn&gt;(Fn) -&gt; ArrayCallableReturnsNoResult&lt;Fn, bool, R&gt;</text><ellipse cx="372" cy="433.3984" fill="#84BE84" rx="3" ry="3" style="stroke:#038048;stroke-width:1;"/><text fill="#000000" font-family="sans-serif" font-size="14" lengthAdjust="spacing" textLength="488.8447" x="381" y="436.7451">auto BoolArray&lt;Fn&gt;(Fn) -&gt; ArrayCallableReturnsResult&lt;Fn, bool, R&gt;</text><ellipse cx="372" cy="449.6953" fill="#84BE84" rx="3" ry="3" style="stroke:#038048;stroke-width:1;"/><text fill="#000000" font-family="sans-serif" font-size="14" lengthAdjust="spacing" textLength="455.7178" x="381" y="453.042">auto Binary&lt;Fn&gt;(Fn) -&gt; CallableReturnsNoResult&lt;Fn, Bytes, R&gt;</text><ellipse cx="372" cy="465.9922" fill="#84BE84" rx="3" ry="3" style="stroke:#038048;stroke-width:1;"/><text fill="#000000" font-family="sans-serif" font-size="14" lengthAdjust="spacing" textLength="436.6797" x="381" y="469.3389">auto Binary&lt;Fn&gt;(Fn) -&gt; CallableReturnsResult&lt;Fn, Bytes, R&gt;</text><ellipse cx="372" cy="482.2891" fill="#84BE84" rx="3" ry="3" style="stroke:#038048;stroke-width:1;"/><text fill="#000000" font-family="sans-serif" font-size="14" lengthAdjust="spacing" textLength="480.1357" x="381" y="485.6357">auto Array&lt;Fn&gt;(Fn) -&gt; CallableReturnsNoResult&lt;Fn, std::size_t, R&gt;</text><ellipse cx="372" cy="498.5859" fill="#84BE84" rx="3" ry="3" style="stroke:#038048;stroke-width:1;"/><text fill="#000000" font-family="sans-serif" font-size="14" lengthAdjust="spacing" textLength="461.0977" x="381" y="501.9326">auto Array&lt;Fn&gt;(Fn) -&gt; CallableReturnsResult&lt;Fn, std::size_t, R&gt;</text><ellipse cx="372" cy="514.8828" fill="#84BE84" rx="3" ry="3" style="stroke:#038048;stroke-width:1;"/><text fill="#000000" font-family="sans-serif" font-size="14" lengthAdjust="spacing" textLength="531.1592" x="381" y="518.2295">auto Object&lt;Fn&gt;(Fn, bool) -&gt; CallableReturnsNoResult&lt;Fn, StringView, R&gt;</text><ellipse cx="372" cy="531.1797" fill="#84BE84" rx="3" ry="3" style="stroke:#038048;stroke-width:1;"/><text fill="#000000" font-family="sans-serif" font-size="14" lengthAdjust="spacing" textLength="512.1211" x="381" y="534.5264">auto Object&lt;Fn&gt;(Fn, bool) -&gt; CallableReturnsResult&lt;Fn, StringView, R&gt;</text></g><!--class ArrayParser--><g id="elem_ArrayParser"><rect codeLine="32" fill="#F1F1F1" height="32" id="ArrayParser" rx="2.5" ry="2.5" style="stroke:#181818;stroke-width:0.5;" width="114.3936" x="70" y="602"/><ellipse cx="85" cy="618" fill="#ADD1B2" rx="11" ry="11" style="stroke:#181818;stroke-width:1;"/><path d="M87.9688,623.6406 Q87.3906,623.9375 86.75,624.0781 Q86.1094,624.2344 85.4063,624.2344 Q82.9063,624.2344 81.5781,622.5938 Q80.2656,620.9375 80.2656,617.8125 Q80.2656,614.6875 81.5781,613.0313 Q82.9063,611.375 85.4063,611.375 Q86.1094,611.375 86.75,611.5313 Q87.4063,611.6875 87.9688,611.9844 L87.9688,614.7031 Q87.3438,614.125 86.75,613.8594 Q86.1563,613.5781 85.5313,613.5781 Q84.1875,613.5781 83.5,614.6563 Q82.8125,615.7188 82.8125,617.8125 Q82.8125,619.9063 83.5,620.9844 Q84.1875,622.0469 85.5313,622.0469 Q86.1563,622.0469 86.75,621.7813 Q87.3438,621.5 87.9688,620.9219 L87.9688,623.6406 Z " fill="#000000"/><text fill="#000000" font-family="sans-serif" font-size="14" lengthAdjust="spacing" textLength="82.3936" x="99" y="622.8467">ArrayParser</text></g><!--class ObjectParser--><g id="elem_ObjectParser"><rect codeLine="34" fill="#F1F1F1" height="32" id="ObjectParser" rx="2.5" ry="2.5" style="stroke:#181818;stroke-width:0.5;" width="122.0361" x="219" y="602"/><ellipse cx="234" cy="618" fill="#ADD1B2" rx="11" ry="11" style="stroke:#181818;stroke-width:1;"/><path d="M236.9688,623.6406 Q236.3906,623.9375 235.75,624.0781 Q235.1094,624.2344 234.4063,624.2344 Q231.9063,624.2344 230.5781,622.5938 Q229.2656,620.9375 229.2656,617.8125 Q229.2656,614.6875 230.5781,613.0313 Q231.9063,611.375 234.4063,611.375 Q235.1094,611.375 235.75,611.5313 Q236.4063,611.6875 236.9688,611.9844 L236.9688,614.7031 Q236.3438,614.125 235.75,613.8594 Q235.1563,613.5781 234.5313,613.5781 Q233.1875,613.5781 232.5,614.6563 Q231.8125,615.7188 231.8125,617.8125 Q231.8125,619.9063 232.5,620.9844 Q233.1875,622.0469 234.5313,622.0469 Q235.1563,622.0469 235.75,621.7813 Q236.3438,621.5 236.9688,620.9219 L236.9688,623.6406 Z " fill="#000000"/><text fill="#000000" font-family="sans-serif" font-size="14" lengthAdjust="spacing" textLength="90.0361" x="248" y="622.8467">ObjectParser</text></g><!--class SingleArrayParser--><g id="elem_SingleArrayParser"><rect codeLine="36" fill="#F1F1F1" height="32" id="SingleArrayParser" rx="2.5" ry="2.5" style="stroke:#181818;stroke-width:0.5;" width="157.4326" x="70.5" y="694"/><ellipse cx="85.5" cy="710" fill="#ADD1B2" rx="11" ry="11" style="stroke:#181818;stroke-width:1;"/><path d="M88.4688,715.6406 Q87.8906,715.9375 87.25,716.0781 Q86.6094,716.2344 85.9063,716.2344 Q83.4063,716.2344 82.0781,714.5938 Q80.7656,712.9375 80.7656,709.8125 Q80.7656,706.6875 82.0781,705.0313 Q83.4063,703.375 85.9063,703.375 Q86.6094,703.375 87.25,703.5313 Q87.9063,703.6875 88.4688,703.9844 L88.4688,706.7031 Q87.8438,706.125 87.25,705.8594 Q86.6563,705.5781 86.0313,705.5781 Q84.6875,705.5781 84,706.6563 Q83.3125,707.7188 83.3125,709.8125 Q83.3125,711.9063 84,712.9844 Q84.6875,714.0469 86.0313,714.0469 Q86.6563,714.0469 87.25,713.7813 Q87.8438,713.5 88.4688,712.9219 L88.4688,715.6406 Z " fill="#000000"/><text fill="#000000" font-family="sans-serif" font-size="14" lengthAdjust="spacing" textLength="125.4326" x="99.5" y="714.8467">SingleArrayParser</text></g><!--class SingleObjectParser--><g id="elem_SingleObjectParser"><rect codeLine="38" fill="#F1F1F1" height="32" id="SingleObjectParser" rx="2.5" ry="2.5" style="stroke:#181818;stroke-width:0.5;" width="165.0752" x="262.5" y="694"/><ellipse cx="277.5" cy="710" fill="#ADD1B2" rx="11" ry="11" style="stroke:#181818;stroke-width:1;"/><path d="M280.4688,715.6406 Q279.8906,715.9375 279.25,716.0781 Q278.6094,716.2344 277.9063,716.2344 Q275.4063,716.2344 274.0781,714.5938 Q272.7656,712.9375 272.7656,709.8125 Q272.7656,706.6875 274.0781,705.0313 Q275.4063,703.375 277.9063,703.375 Q278.6094,703.375 279.25,703.5313 Q279.9063,703.6875 280.4688,703.9844 L280.4688,706.7031 Q279.8438,706.125 279.25,705.8594 Q278.6563,705.5781 278.0313,705.5781 Q276.6875,705.5781 276,706.6563 Q275.3125,707.7188 275.3125,709.8125 Q275.3125,711.9063 276,712.9844 Q276.6875,714.0469 278.0313,714.0469 Q278.6563,714.0469 279.25,713.7813 Q279.8438,713.5 280.4688,712.9219 L280.4688,715.6406 Z " fill="#000000"/><text fill="#000000" font-family="sans-serif" font-size="14" lengthAdjust="spacing" textLength="133.0752" x="291.5" y="714.8467">SingleObjectParser</text></g><!--class BinaryParser--><g id="elem_BinaryParser"><rect codeLine="40" fill="#F1F1F1" height="32" id="BinaryParser" rx="2.5" ry="2.5" style="stroke:#181818;stroke-width:0.5;" width="121.4277" x="376.5" y="602"/><ellipse cx="391.5" cy="618" fill="#ADD1B2" rx="11" ry="11" style="stroke:#181818;stroke-width:1;"/><path d="M394.4688,623.6406 Q393.8906,623.9375 393.25,624.0781 Q392.6094,624.2344 391.9063,624.2344 Q389.4063,624.2344 388.0781,622.5938 Q386.7656,620.9375 386.7656,617.8125 Q386.7656,614.6875 388.0781,613.0313 Q389.4063,611.375 391.9063,611.375 Q392.6094,611.375 393.25,611.5313 Q393.9063,611.6875 394.4688,611.9844 L394.4688,614.7031 Q393.8438,614.125 393.25,613.8594 Q392.6563,613.5781 392.0313,613.5781 Q390.6875,613.5781 390,614.6563 Q389.3125,615.7188 389.3125,617.8125 Q389.3125,619.9063 390,620.9844 Q390.6875,622.0469 392.0313,622.0469 Q392.6563,622.0469 393.25,621.7813 Q393.8438,621.5 394.4688,620.9219 L394.4688,623.6406 Z " fill="#000000"/><text fill="#000000" font-family="sans-serif" font-size="14" lengthAdjust="spacing" textLength="89.4277" x="405.5" y="622.8467">BinaryParser</text></g><!--class BoolParser--><g id="elem_BoolParser"><rect codeLine="42" fill="#F1F1F1" height="32" id="BoolParser" rx="2.5" ry="2.5" style="stroke:#181818;stroke-width:0.5;" width="107.0654" x="532.5" y="602"/><ellipse cx="547.5" cy="618" fill="#ADD1B2" rx="11" ry="11" style="stroke:#181818;stroke-width:1;"/><path d="M550.4688,623.6406 Q549.8906,623.9375 549.25,624.0781 Q548.6094,624.2344 547.9063,624.2344 Q545.4063,624.2344 544.0781,622.5938 Q542.7656,620.9375 542.7656,617.8125 Q542.7656,614.6875 544.0781,613.0313 Q545.4063,611.375 547.9063,611.375 Q548.6094,611.375 549.25,611.5313 Q549.9063,611.6875 550.4688,611.9844 L550.4688,614.7031 Q549.8438,614.125 549.25,613.8594 Q548.6563,613.5781 548.0313,613.5781 Q546.6875,613.5781 546,614.6563 Q545.3125,615.7188 545.3125,617.8125 Q545.3125,619.9063 546,620.9844 Q546.6875,622.0469 548.0313,622.0469 Q548.6563,622.0469 549.25,621.7813 Q549.8438,621.5 550.4688,620.9219 L550.4688,623.6406 Z " fill="#000000"/><text fill="#000000" font-family="sans-serif" font-size="14" lengthAdjust="spacing" textLength="75.0654" x="561.5" y="622.8467">BoolParser</text></g><!--class KeyParser--><g id="elem_KeyParser"><rect codeLine="44" fill="#F1F1F1" height="32" id="KeyParser" rx="2.5" ry="2.5" style="stroke:#181818;stroke-width:0.5;" width="102.5195" x="674.5" y="602"/><ellipse cx="689.5" cy="618" fill="#ADD1B2" rx="11" ry="11" style="stroke:#181818;stroke-width:1;"/><path d="M692.4688,623.6406 Q691.8906,623.9375 691.25,624.0781 Q690.6094,624.2344 689.9063,624.2344 Q687.4063,624.2344 686.0781,622.5938 Q684.7656,620.9375 684.7656,617.8125 Q684.7656,614.6875 686.0781,613.0313 Q687.4063,611.375 689.9063,611.375 Q690.6094,611.375 691.25,611.5313 Q691.9063,611.6875 692.4688,611.9844 L692.4688,614.7031 Q691.8438,614.125 691.25,613.8594 Q690.6563,613.5781 690.0313,613.5781 Q688.6875,613.5781 688,614.6563 Q687.3125,615.7188 687.3125,617.8125 Q687.3125,619.9063 688,620.9844 Q688.6875,622.0469 690.0313,622.0469 Q690.6563,622.0469 691.25,621.7813 Q691.8438,621.5 692.4688,620.9219 L692.4688,623.6406 Z " fill="#000000"/><text fill="#000000" font-family="sans-serif" font-size="14" lengthAdjust="spacing" textLength="70.5195" x="703.5" y="622.8467">KeyParser</text></g><!--class NumberParser--><g id="elem_NumberParser"><rect codeLine="46" fill="#F1F1F1" height="32" id="NumberParser" rx="2.5" ry="2.5" style="stroke:#181818;stroke-width:0.5;" width="151.1875" x="812.5" y="602"/><ellipse cx="827.5" cy="618" fill="#ADD1B2" rx="11" ry="11" style="stroke:#181818;stroke-width:1;"/><path d="M830.4688,623.6406 Q829.8906,623.9375 829.25,624.0781 Q828.6094,624.2344 827.9063,624.2344 Q825.4063,624.2344 824.0781,622.5938 Q822.7656,620.9375 822.7656,617.8125 Q822.7656,614.6875 824.0781,613.0313 Q825.4063,611.375 827.9063,611.375 Q828.6094,611.375 829.25,611.5313 Q829.9063,611.6875 830.4688,611.9844 L830.4688,614.7031 Q829.8438,614.125 829.25,613.8594 Q828.6563,613.5781 828.0313,613.5781 Q826.6875,613.5781 826,614.6563 Q825.3125,615.7188 825.3125,617.8125 Q825.3125,619.9063 826,620.9844 Q826.6875,622.0469 828.0313,622.0469 Q828.6563,622.0469 829.25,621.7813 Q829.8438,621.5 830.4688,620.9219 L830.4688,623.6406 Z " fill="#000000"/><text fill="#000000" font-family="sans-serif" font-size="14" lengthAdjust="spacing" textLength="100.6797" x="841.5" y="622.8467">NumberParser</text><rect fill="#FFFFFF" height="15.9688" style="stroke:#181818;stroke-width:1;stroke-dasharray:2.0,2.0;" width="16.5078" x="950.1797" y="599"/><text fill="#000000" font-family="sans-serif" font-size="12" font-style="italic" lengthAdjust="spacing" textLength="14.5078" x="951.1797" y="611.1387">Fn</text></g><!--class StringParser--><g id="elem_StringParser"><rect codeLine="48" fill="#F1F1F1" height="32" id="StringParser" rx="2.5" ry="2.5" style="stroke:#181818;stroke-width:0.5;" width="118.2217" x="999" y="602"/><ellipse cx="1014" cy="618" fill="#ADD1B2" rx="11" ry="11" style="stroke:#181818;stroke-width:1;"/><path d="M1016.9688,623.6406 Q1016.3906,623.9375 1015.75,624.0781 Q1015.1094,624.2344 1014.4063,624.2344 Q1011.9063,624.2344 1010.5781,622.5938 Q1009.2656,620.9375 1009.2656,617.8125 Q1009.2656,614.6875 1010.5781,613.0313 Q1011.9063,611.375 1014.4063,611.375 Q1015.1094,611.375 1015.75,611.5313 Q1016.4063,611.6875 1016.9688,611.9844 L1016.9688,614.7031 Q1016.3438,614.125 1015.75,613.8594 Q1015.1563,613.5781 1014.5313,613.5781 Q1013.1875,613.5781 1012.5,614.6563 Q1011.8125,615.7188 1011.8125,617.8125 Q1011.8125,619.9063 1012.5,620.9844 Q1013.1875,622.0469 1014.5313,622.0469 Q1015.1563,622.0469 1015.75,621.7813 Q1016.3438,621.5 1016.9688,620.9219 L1016.9688,623.6406 Z " fill="#000000"/><text fill="#000000" font-family="sans-serif" font-size="14" lengthAdjust="spacing" textLength="86.2217" x="1028" y="622.8467">StringParser</text></g><!--class VirtualParser--><g id="elem_VirtualParser"><rect codeLine="50" fill="#F1F1F1" height="32" id="VirtualParser" rx="2.5" ry="2.5" style="stroke:#181818;stroke-width:0.5;" width="122.4941" x="665" y="694"/><ellipse cx="680" cy="710" fill="#ADD1B2" rx="11" ry="11" style="stroke:#181818;stroke-width:1;"/><path d="M682.9688,715.6406 Q682.3906,715.9375 681.75,716.0781 Q681.1094,716.2344 680.4063,716.2344 Q677.9063,716.2344 676.5781,714.5938 Q675.2656,712.9375 675.2656,709.8125 Q675.2656,706.6875 676.5781,705.0313 Q677.9063,703.375 680.4063,703.375 Q681.1094,703.375 681.75,703.5313 Q682.4063,703.6875 682.9688,703.9844 L682.9688,706.7031 Q682.3438,706.125 681.75,705.8594 Q681.1563,705.5781 680.5313,705.5781 Q679.1875,705.5781 678.5,706.6563 Q677.8125,707.7188 677.8125,709.8125 Q677.8125,711.9063 678.5,712.9844 Q679.1875,714.0469 680.5313,714.0469 Q681.1563,714.0469 681.75,713.7813 Q682.3438,713.5 682.9688,712.9219 L682.9688,715.6406 Z " fill="#000000"/><text fill="#000000" font-family="sans-serif" font-size="14" lengthAdjust="spacing" textLength="90.4941" x="694" y="714.8467">VirtualParser</text></g><!--class JsonData--><g id="elem_JsonData"><rect codeLine="52" fill="#F1F1F1" height="32" id="JsonData" rx="2.5" ry="2.5" style="stroke:#181818;stroke-width:0.5;" width="94.2891" x="1152" y="602"/><ellipse cx="1167" cy="618" fill="#ADD1B2" rx="11" ry="11" style="stroke:#181818;stroke-width:1;"/><path d="M1169.9688,623.6406 Q1169.3906,623.9375 1168.75,624.0781 Q1168.1094,624.2344 1167.4063,624.2344 Q1164.9063,624.2344 1163.5781,622.5938 Q1162.2656,620.9375 1162.2656,617.8125 Q1162.2656,614.6875 1163.5781,613.0313 Q1164.9063,611.375 1167.4063,611.375 Q1168.1094,611.375 1168.75,611.5313 Q1169.4063,611.6875 1169.9688,611.9844 L1169.9688,614.7031 Q1169.3438,614.125 1168.75,613.8594 Q1168.1563,613.5781 1167.5313,613.5781 Q1166.1875,613.5781 1165.5,614.6563 Q1164.8125,615.7188 1164.8125,617.8125 Q1164.8125,619.9063 1165.5,620.9844 Q1166.1875,622.0469 1167.5313,622.0469 Q1168.1563,622.0469 1168.75,621.7813 Q1169.3438,621.5 1169.9688,620.9219 L1169.9688,623.6406 Z " fill="#000000"/><text fill="#000000" font-family="sans-serif" font-size="14" lengthAdjust="spacing" textLength="62.2891" x="1181" y="622.8467">JsonData</text></g><!--link ArrayParser to SingleArrayParser--><g id="link_ArrayParser_SingleArrayParser"><path codeLine="57" d="M130.73,634.27 C134.8,650.92 136.9939,659.9153 141.0439,676.4753 " fill="transparent" id="ArrayParser-to-SingleArrayParser" style="stroke:#181818;stroke-width:1;"/><polygon fill="transparent" points="145.32,693.96,146.8721,675.0499,135.2156,677.9007,145.32,693.96" style="stroke:#181818;stroke-width:1;"/></g><!--link ObjectParser to SingleObjectParser--><g id="link_ObjectParser_SingleObjectParser"><path codeLine="59" d="M291.03,634.27 C303.05,650.92 311.6412,662.8078 323.6012,679.3678 " fill="transparent" id="ObjectParser-to-SingleObjectParser" style="stroke:#181818;stroke-width:1;"/><polygon fill="transparent" points="334.14,693.96,328.4652,675.8548,318.7371,682.8807,334.14,693.96" style="stroke:#181818;stroke-width:1;"/></g><!--link CompositionParser to ArrayParser--><g id="link_CompositionParser_ArrayParser"><path codeLine="61" d="M360.95,492.51 C276.6,537.39 201.7369,577.2317 160.7269,599.0517 " fill="transparent" id="CompositionParser-to-ArrayParser" style="stroke:#181818;stroke-width:1;"/><polygon fill="#181818" points="155.43,601.87,165.2542,601.1738,159.8441,599.5214,161.4965,594.1113,155.43,601.87" style="stroke:#181818;stroke-width:1;"/></g><!--link CompositionParser to ObjectParser--><g id="link_CompositionParser_ObjectParser"><path codeLine="62" d="M379.77,542.3 C346.69,567.07 323.1232,584.7143 305.1832,598.1443 " fill="transparent" id="CompositionParser-to-ObjectParser" style="stroke:#181818;stroke-width:1;"/><polygon fill="#181818" points="300.38,601.74,309.982,599.5486,304.3827,598.7436,305.1877,593.1443,300.38,601.74" style="stroke:#181818;stroke-width:1;"/></g><!--link CompositionParser to BinaryParser--><g id="link_CompositionParser_BinaryParser"><path codeLine="63" d="M495.11,542.3 C475.84,567.07 463.0046,583.5746 452.5546,597.0046 " fill="transparent" id="CompositionParser-to-BinaryParser" style="stroke:#181818;stroke-width:1;"/><polygon fill="#181818" points="448.87,601.74,457.5538,597.0934,451.9405,597.7939,451.24,592.1806,448.87,601.74" style="stroke:#181818;stroke-width:1;"/></g><!--link CompositionParser to BoolParser--><g id="link_CompositionParser_BoolParser"><path codeLine="64" d="M604.57,542.3 C598.42,567.07 594.5781,582.4874 591.2381,595.9174 " fill="transparent" id="CompositionParser-to-BoolParser" style="stroke:#181818;stroke-width:1;"/><polygon fill="#181818" points="589.79,601.74,595.8439,593.9714,590.9967,596.8878,588.0804,592.0407,589.79,601.74" style="stroke:#181818;stroke-width:1;"/></g><!--link CompositionParser to KeyParser--><g id="link_CompositionParser_KeyParser"><path codeLine="65" d="M707.43,542.3 C713.58,567.07 717.4219,582.4874 720.7619,595.9174 " fill="transparent" id="CompositionParser-to-KeyParser" style="stroke:#181818;stroke-width:1;"/><polygon fill="#181818" points="722.21,601.74,723.9196,592.0407,721.0033,596.8878,716.1561,593.9714,722.21,601.74" style="stroke:#181818;stroke-width:1;"/></g><!--link CompositionParser to NumberParser--><g id="link_CompositionParser_NumberParser"><path codeLine="66" d="M826.44,542.3 C846.85,567.07 860.5437,583.6801 871.6137,597.1101 " fill="transparent" id="CompositionParser-to-NumberParser" style="stroke:#181818;stroke-width:1;"/><polygon fill="#181818" points="875.43,601.74,872.7921,592.251,872.2498,597.8818,866.619,597.3394,875.43,601.74" style="stroke:#181818;stroke-width:1;"/></g><!--link CompositionParser to StringParser--><g id="link_CompositionParser_StringParser"><path codeLine="67" d="M951.06,542.12 C986.75,567.11 1012.415,585.0787 1031.625,598.5287 " fill="transparent" id="CompositionParser-to-StringParser" style="stroke:#181818;stroke-width:1;"/><polygon fill="#181818" points="1036.54,601.97,1031.4616,593.5314,1032.4441,599.1023,1026.8733,600.0848,1036.54,601.97" style="stroke:#181818;stroke-width:1;"/></g><!--link CompositionParser to JsonData--><g id="link_CompositionParser_JsonData"><path codeLine="68" d="M951.33,488.61 C1040.63,534.9 1121.1434,576.6383 1164.4634,599.0983 " fill="transparent" id="CompositionParser-to-JsonData" style="stroke:#181818;stroke-width:1;"/><polygon fill="#181818" points="1169.79,601.86,1163.6412,594.1664,1165.3511,599.5586,1159.9589,601.2686,1169.79,601.86" style="stroke:#181818;stroke-width:1;"/></g><!--link BinaryParser to VirtualParser--><g id="link_BinaryParser_VirtualParser"><path codeLine="70" d="M485.37,634.06 C538.72,650.68 606.8747,671.8959 660.2847,688.5359 " fill="transparent" id="BinaryParser-to-VirtualParser" style="stroke:#181818;stroke-width:1;"/><polygon fill="transparent" points="677.47,693.89,662.0694,682.8075,658.5,694.2643,677.47,693.89" style="stroke:#181818;stroke-width:1;"/></g><!--link BoolParser to VirtualParser--><g id="link_BoolParser_VirtualParser"><path codeLine="71" d="M609.43,634.06 C635.28,650.68 661.4813,667.5125 687.3513,684.1525 " fill="transparent" id="BoolParser-to-VirtualParser" style="stroke:#181818;stroke-width:1;"/><polygon fill="transparent" points="702.49,693.89,690.5971,679.1063,684.1054,689.1988,702.49,693.89" style="stroke:#181818;stroke-width:1;"/></g><!--link KeyParser to VirtualParser--><g id="link_KeyParser_VirtualParser"><path codeLine="72" d="M726,634.27 C726,650.92 726,659.4 726,675.96 " fill="transparent" id="KeyParser-to-VirtualParser" style="stroke:#181818;stroke-width:1;"/><polygon fill="transparent" points="726,693.96,732,675.96,720,675.96,726,693.96" style="stroke:#181818;stroke-width:1;"/></g><!--link NumberParser to VirtualParser--><g id="link_NumberParser_VirtualParser"><path codeLine="73" d="M860.88,634.06 C830.98,650.68 798.8733,668.5058 768.9333,685.1458 " fill="transparent" id="NumberParser-to-VirtualParser" style="stroke:#181818;stroke-width:1;"/><polygon fill="transparent" points="753.2,693.89,771.8481,690.3902,766.0186,679.9013,753.2,693.89" style="stroke:#181818;stroke-width:1;"/></g><!--link StringParser to VirtualParser--><g id="link_StringParser_VirtualParser"><path codeLine="74" d="M1002.43,634.06 C941.05,650.7 860.1829,672.62 798.8429,689.25 " fill="transparent" id="StringParser-to-VirtualParser" style="stroke:#181818;stroke-width:1;"/><polygon fill="transparent" points="781.47,693.96,800.4128,695.041,797.2729,683.4591,781.47,693.96" style="stroke:#181818;stroke-width:1;"/></g><!--SRC=[hLNBRi8m4BpxAomE5QZm0mX5Agquj2gjGiMrCc553I56jjCsfVttEZ4FMx7pe3taiZCUxywkiszq2HYsEvdXBMmNm0L2En9jo0fmHqICGmVl4SQds5gmH8UCu3inmr5CXC2tRBjZWahAacV21V3H8_saIN0WONnTfdJlbSmTaUIgToAHL3By0DbeaWJTITB3Wm3VaZWcYnX2a2bFn9I58D9OAaeVpoIdoMfEuQEFmw2DJ7EHxXalX4ARCMOiRfhkGd7BTzGer9wVfdalc-RmSe50zN7jpt-qh5QfbOxHEBo1pDKyNVaDvyIQbI9maOcDf9hOsJwdUaFQ9bUbc0zj-npz3w1jRXubcX3U-EynpYI82qJg9KhLLAKXv78u5FGBNcLxfQOwJuirHF8WfEtxqrDjg5UjzeEC7L9KgbS3tbk8lii9pPHa3FwZ6gyGqCrsGwec9w2MWZEkVm671JZ9jv-TIs60y-ISSfaIzst7DQcYshFyKmopwC7WEoXxWP1Lk44oumYLLhEY1cO_F0nBnKqnxVLHJZPx22UxFRXfkuTYMk-X76r6o1g9mZIhFSYO2mTw7Wu7QARgmgqHSU2_]--></g></svg>