<svg xmlns="http://www.w3.org/2000/svg" xmlns:xlink="http://www.w3.org/1999/xlink" contentStyleType="text/css" data-diagram-type="CLASS" height="557px" preserveAspectRatio="none" style="width:1340px;height:557px;background:#FFFFFF;" version="1.1" viewBox="0 0 1340 557" width="1340px" zoomAndPan="magnify"><defs/><g><!--cluster score--><g id="cluster_score"><path d="M8.5,6 L52.1494,6 A3.75,3.75 0 0 1 54.6494,8.5 L61.6494,28.2969 L1330.5,28.2969 A2.5,2.5 0 0 1 1333,30.7969 L1333,547.5 A2.5,2.5 0 0 1 1330.5,550 L8.5,550 A2.5,2.5 0 0 1 6,547.5 L6,8.5 A2.5,2.5 0 0 1 8.5,6 " fill="transparent" style="stroke:#000000;stroke-width:1.5;"/><line style="stroke:#000000;stroke-width:1.5;" x1="6" x2="61.6494" y1="28.2969" y2="28.2969"/><text fill="#000000" font-family="sans-serif" font-size="14" font-weight="bold" lengthAdjust="spacing" textLength="42.6494" x="10" y="20.9951">score</text></g><!--cluster json--><g id="cluster_json"><path d="M32.5,49 L66.2168,49 A3.75,3.75 0 0 1 68.7168,51.5 L75.7168,71.2969 L1306.5,71.2969 A2.5,2.5 0 0 1 1309,73.7969 L1309,523.5 A2.5,2.5 0 0 1 1306.5,526 L32.5,526 A2.5,2.5 0 0 1 30,523.5 L30,51.5 A2.5,2.5 0 0 1 32.5,49 " fill="transparent" style="stroke:#000000;stroke-width:1.5;"/><line style="stroke:#000000;stroke-width:1.5;" x1="30" x2="75.7168" y1="71.2969" y2="71.2969"/><text fill="#000000" font-family="sans-serif" font-size="14" font-weight="bold" lengthAdjust="spacing" textLength="32.7168" x="34" y="63.9951">json</text></g><!--cluster vajson--><g id="cluster_vajson"><path d="M56.5,92 L108.79,92 A3.75,3.75 0 0 1 111.29,94.5 L118.29,114.2969 L1282.5,114.2969 A2.5,2.5 0 0 1 1285,116.7969 L1285,499.5 A2.5,2.5 0 0 1 1282.5,502 L56.5,502 A2.5,2.5 0 0 1 54,499.5 L54,94.5 A2.5,2.5 0 0 1 56.5,92 " fill="transparent" style="stroke:#000000;stroke-width:1.5;"/><line style="stroke:#000000;stroke-width:1.5;" x1="54" x2="118.29" y1="114.2969" y2="114.2969"/><text fill="#000000" font-family="sans-serif" font-size="14" font-weight="bold" lengthAdjust="spacing" textLength="51.29" x="58" y="106.9951">vajson</text></g><!--class JsonErrc--><g id="elem_JsonErrc"><rect codeLine="6" fill="#F1F1F1" height="105.1875" id="JsonErrc" rx="2.5" ry="2.5" style="stroke:#181818;stroke-width:0.5;" width="168.5977" x="421.5" y="264.5"/><ellipse cx="473.0908" cy="280.5" fill="#EB937F" rx="11" ry="11" style="stroke:#181818;stroke-width:1;"/><path d="M477.2002,286.5 L469.4814,286.5 L469.4814,274.1094 L477.2002,274.1094 L477.2002,276.2656 L471.9346,276.2656 L471.9346,278.9375 L476.7002,278.9375 L476.7002,281.0938 L471.9346,281.0938 L471.9346,284.3438 L477.2002,284.3438 L477.2002,286.5 Z " fill="#000000"/><text fill="#000000" font-family="sans-serif" font-size="14" lengthAdjust="spacing" textLength="56.916" x="493.5908" y="285.3467">JsonErrc</text><line style="stroke:#181818;stroke-width:0.5;" x1="422.5" x2="589.0977" y1="296.5" y2="296.5"/><text fill="#000000" font-family="sans-serif" font-size="14" lengthAdjust="spacing" textLength="100.1123" x="427.5" y="313.4951">kNotInitialized</text><text fill="#000000" font-family="sans-serif" font-size="14" lengthAdjust="spacing" textLength="87.9512" x="427.5" y="329.792">kInvalidJson,</text><text fill="#000000" font-family="sans-serif" font-size="14" lengthAdjust="spacing" textLength="156.5977" x="427.5" y="346.0889">kUserValidationFailed,</text><text fill="#000000" font-family="sans-serif" font-size="14" lengthAdjust="spacing" textLength="106.7227" x="427.5" y="362.3857">kStreamFailure</text></g><!--class JsonErrorDomain--><g id="elem_JsonErrorDomain"><rect codeLine="13" fill="#F1F1F1" height="32" id="JsonErrorDomain" rx="2.5" ry="2.5" style="stroke:#181818;stroke-width:0.5;" width="149.8652" x="237" y="301"/><ellipse cx="252" cy="317" fill="#ADD1B2" rx="11" ry="11" style="stroke:#181818;stroke-width:1;"/><path d="M254.9688,322.6406 Q254.3906,322.9375 253.75,323.0781 Q253.1094,323.2344 252.4063,323.2344 Q249.9063,323.2344 248.5781,321.5938 Q247.2656,319.9375 247.2656,316.8125 Q247.2656,313.6875 248.5781,312.0313 Q249.9063,310.375 252.4063,310.375 Q253.1094,310.375 253.75,310.5313 Q254.4063,310.6875 254.9688,310.9844 L254.9688,313.7031 Q254.3438,313.125 253.75,312.8594 Q253.1563,312.5781 252.5313,312.5781 Q251.1875,312.5781 250.5,313.6563 Q249.8125,314.7188 249.8125,316.8125 Q249.8125,318.9063 250.5,319.9844 Q251.1875,321.0469 252.5313,321.0469 Q253.1563,321.0469 253.75,320.7813 Q254.3438,320.5 254.9688,319.9219 L254.9688,322.6406 Z " fill="#000000"/><text fill="#000000" font-family="sans-serif" font-size="14" lengthAdjust="spacing" textLength="117.8652" x="266" y="321.8467">JsonErrorDomain</text></g><!--class NumberParser--><g id="elem_NumberParser"><rect codeLine="15" fill="#F1F1F1" height="32" id="NumberParser" rx="2.5" ry="2.5" style="stroke:#181818;stroke-width:0.5;" width="132.6797" x="880.5" y="454"/><ellipse cx="895.5" cy="470" fill="#ADD1B2" rx="11" ry="11" style="stroke:#181818;stroke-width:1;"/><path d="M898.4688,475.6406 Q897.8906,475.9375 897.25,476.0781 Q896.6094,476.2344 895.9063,476.2344 Q893.4063,476.2344 892.0781,474.5938 Q890.7656,472.9375 890.7656,469.8125 Q890.7656,466.6875 892.0781,465.0313 Q893.4063,463.375 895.9063,463.375 Q896.6094,463.375 897.25,463.5313 Q897.9063,463.6875 898.4688,463.9844 L898.4688,466.7031 Q897.8438,466.125 897.25,465.8594 Q896.6563,465.5781 896.0313,465.5781 Q894.6875,465.5781 894,466.6563 Q893.3125,467.7188 893.3125,469.8125 Q893.3125,471.9063 894,472.9844 Q894.6875,474.0469 896.0313,474.0469 Q896.6563,474.0469 897.25,473.7813 Q897.8438,473.5 898.4688,472.9219 L898.4688,475.6406 Z " fill="#000000"/><text fill="#000000" font-family="sans-serif" font-size="14" lengthAdjust="spacing" textLength="100.6797" x="909.5" y="474.8467">NumberParser</text></g><!--class JsonNumber--><g id="elem_JsonNumber"><rect codeLine="17" fill="#F1F1F1" height="154.0781" id="JsonNumber" rx="2.5" ry="2.5" style="stroke:#181818;stroke-width:0.5;" width="642.5059" x="625.5" y="240"/><ellipse cx="899.9526" cy="256" fill="#ADD1B2" rx="11" ry="11" style="stroke:#181818;stroke-width:1;"/><path d="M902.9214,261.6406 Q902.3433,261.9375 901.7026,262.0781 Q901.062,262.2344 900.3589,262.2344 Q897.8589,262.2344 896.5308,260.5938 Q895.2183,258.9375 895.2183,255.8125 Q895.2183,252.6875 896.5308,251.0313 Q897.8589,249.375 900.3589,249.375 Q901.062,249.375 901.7026,249.5313 Q902.3589,249.6875 902.9214,249.9844 L902.9214,252.7031 Q902.2964,252.125 901.7026,251.8594 Q901.1089,251.5781 900.4839,251.5781 Q899.1401,251.5781 898.4526,252.6563 Q897.7651,253.7188 897.7651,255.8125 Q897.7651,257.9063 898.4526,258.9844 Q899.1401,260.0469 900.4839,260.0469 Q901.1089,260.0469 901.7026,259.7813 Q902.2964,259.5 902.9214,258.9219 L902.9214,261.6406 Z " fill="#000000"/><text fill="#000000" font-family="sans-serif" font-size="14" lengthAdjust="spacing" textLength="85.1006" x="920.4526" y="260.8467">JsonNumber</text><line style="stroke:#181818;stroke-width:0.5;" x1="626.5" x2="1267.0059" y1="272" y2="272"/><ellipse cx="636.5" cy="285.6484" fill="#84BE84" rx="3" ry="3" style="stroke:#038048;stroke-width:1;"/><text fill="#000000" font-family="sans-serif" font-size="14" lengthAdjust="spacing" text-decoration="underline" textLength="367.5479" x="645.5" y="288.9951">auto New(StringView view) -&gt; Result&lt;JsonNumber&gt;</text><ellipse cx="636.5" cy="301.9453" fill="#84BE84" rx="3" ry="3" style="stroke:#038048;stroke-width:1;"/><text fill="#000000" font-family="sans-serif" font-size="14" lengthAdjust="spacing" textLength="334.7217" x="645.5" y="305.292">auto TryAs&lt;T&gt;() const -&gt; ara::core::Result&lt;T&gt;</text><ellipse cx="636.5" cy="318.2422" fill="#84BE84" rx="3" ry="3" style="stroke:#038048;stroke-width:1;"/><text fill="#000000" font-family="sans-serif" font-size="14" lengthAdjust="spacing" textLength="297.7324" x="645.5" y="321.5889">auto As()&lt;bool&gt; const -&gt; Optional&lt;bool&gt;</text><ellipse cx="636.5" cy="334.5391" fill="#84BE84" rx="3" ry="3" style="stroke:#038048;stroke-width:1;"/><text fill="#000000" font-family="sans-serif" font-size="14" lengthAdjust="spacing" textLength="517.6855" x="645.5" y="337.8857">auto As()&lt;vac::language::byte&gt; const -&gt; Optional&lt;vac::language::byte&gt;</text><ellipse cx="636.5" cy="350.8359" fill="#84BE84" rx="3" ry="3" style="stroke:#038048;stroke-width:1;"/><text fill="#000000" font-family="sans-serif" font-size="14" lengthAdjust="spacing" textLength="255.0215" x="645.5" y="354.1826">auto As()&lt;T&gt; const -&gt; Optional&lt;T&gt;</text><ellipse cx="636.5" cy="367.1328" fill="#84BE84" rx="3" ry="3" style="stroke:#038048;stroke-width:1;"/><text fill="#000000" font-family="sans-serif" font-size="14" lengthAdjust="spacing" textLength="408.1191" x="645.5" y="370.4795">auto As()&lt;JsonNumber&gt; const -&gt; Optional&lt;JsonNumber&gt;</text><ellipse cx="636.5" cy="383.4297" fill="#84BE84" rx="3" ry="3" style="stroke:#038048;stroke-width:1;"/><text fill="#000000" font-family="sans-serif" font-size="14" lengthAdjust="spacing" textLength="616.5059" x="645.5" y="386.7764">auto Convert&lt;Fn&gt;(Fn&amp;&amp; parser) const -&gt; decltype(parser(std::declval&lt;StringView&gt;()))</text></g><!--class EncodingType--><g id="elem_EncodingType"><rect codeLine="27" fill="#F1F1F1" height="72.5938" id="EncodingType" rx="2.5" ry="2.5" style="stroke:#181818;stroke-width:0.5;" width="130.8545" x="70.5" y="280.5"/><ellipse cx="85.5" cy="296.5" fill="#EB937F" rx="11" ry="11" style="stroke:#181818;stroke-width:1;"/><path d="M89.6094,302.5 L81.8906,302.5 L81.8906,290.1094 L89.6094,290.1094 L89.6094,292.2656 L84.3438,292.2656 L84.3438,294.9375 L89.1094,294.9375 L89.1094,297.0938 L84.3438,297.0938 L84.3438,300.3438 L89.6094,300.3438 L89.6094,302.5 Z " fill="#000000"/><text fill="#000000" font-family="sans-serif" font-size="14" lengthAdjust="spacing" textLength="98.8545" x="99.5" y="301.3467">EncodingType</text><line style="stroke:#181818;stroke-width:0.5;" x1="71.5" x2="200.3545" y1="312.5" y2="312.5"/><text fill="#000000" font-family="sans-serif" font-size="14" lengthAdjust="spacing" textLength="44.6318" x="76.5" y="329.4951">kNone</text><text fill="#000000" font-family="sans-serif" font-size="14" lengthAdjust="spacing" textLength="37.6797" x="76.5" y="345.792">kUtf8</text></g><path d="M470.5,127 L527.6436,127 A3.75,3.75 0 0 1 530.1436,129.5 L537.1436,149.2969 L541.6436,149.2969 A2.5,2.5 0 0 1 544.1436,151.7969 L544.1436,177.0938 A2.5,2.5 0 0 1 541.6436,179.5938 L470.5,179.5938 A2.5,2.5 0 0 1 468,177.0938 L468,129.5 A2.5,2.5 0 0 1 470.5,127 " fill="#F1F1F1" style="stroke:#181818;stroke-width:0.5;"/><line style="stroke:#181818;stroke-width:0.5;" x1="468" x2="537.1436" y1="149.2969" y2="149.2969"/><text fill="#000000" font-family="sans-serif" font-size="14" font-weight="bold" lengthAdjust="spacing" textLength="56.1436" x="472" y="141.9951">Reader</text><path d="M191.5,127 L242.7373,127 A3.75,3.75 0 0 1 245.2373,129.5 L252.2373,149.2969 L256.7373,149.2969 A2.5,2.5 0 0 1 259.2373,151.7969 L259.2373,177.0938 A2.5,2.5 0 0 1 256.7373,179.5938 L191.5,179.5938 A2.5,2.5 0 0 1 189,177.0938 L189,129.5 A2.5,2.5 0 0 1 191.5,127 " fill="#F1F1F1" style="stroke:#181818;stroke-width:0.5;"/><line style="stroke:#181818;stroke-width:0.5;" x1="189" x2="252.2373" y1="149.2969" y2="149.2969"/><text fill="#000000" font-family="sans-serif" font-size="14" font-weight="bold" lengthAdjust="spacing" textLength="50.2373" x="193" y="141.9951">Writer</text><!--link JsonNumber to NumberParser--><g id="link_JsonNumber_NumberParser"><path codeLine="41" d="M947,394.38 C947,417.06 947,433.63 947,447.91 " fill="transparent" id="JsonNumber-to-NumberParser" style="stroke:#181818;stroke-width:1;"/><polygon fill="#181818" points="947,453.91,951,444.91,947,448.91,943,444.91,947,453.91" style="stroke:#181818;stroke-width:1;"/></g><!--link Reader to JsonNumber--><g id="link_Reader_JsonNumber"><path codeLine="43" d="M544.36,168.55 C588.63,184.76 659.2757,210.6373 733.6257,237.8573 " fill="transparent" id="Reader-to-JsonNumber" style="stroke:#181818;stroke-width:1;"/><polygon fill="#181818" points="739.26,239.92,732.1837,233.0697,734.5648,238.201,729.4334,240.5821,739.26,239.92" style="stroke:#181818;stroke-width:1;"/></g><!--link Reader to JsonErrorDomain--><g id="link_Reader_JsonErrorDomain"><path codeLine="44" d="M475.26,180.09 C434.34,214.16 367.8911,269.4711 334.6911,297.1111 " fill="transparent" id="Reader-to-JsonErrorDomain" style="stroke:#181818;stroke-width:1;"/><polygon fill="#181818" points="330.08,300.95,339.556,298.2657,333.9226,297.7509,334.4374,292.1175,330.08,300.95" style="stroke:#181818;stroke-width:1;"/></g><!--link Reader to JsonErrc--><g id="link_Reader_JsonErrc"><path codeLine="45" d="M506,180.09 C506,202.68 506,230.31 506,258.46 " fill="transparent" id="Reader-to-JsonErrc" style="stroke:#181818;stroke-width:1;"/><polygon fill="#181818" points="506,264.46,510,255.46,506,259.46,502,255.46,506,264.46" style="stroke:#181818;stroke-width:1;"/></g><!--link Writer to JsonErrorDomain--><g id="link_Writer_JsonErrorDomain"><path codeLine="47" d="M237.94,180.09 C256.46,214.07 285.6992,267.7314 300.8092,295.4614 " fill="transparent" id="Writer-to-JsonErrorDomain" style="stroke:#181818;stroke-width:1;"/><polygon fill="#181818" points="303.68,300.73,302.8861,290.9132,301.2876,296.3395,295.8613,294.741,303.68,300.73" style="stroke:#181818;stroke-width:1;"/></g><!--link Writer to EncodingType--><g id="link_Writer_EncodingType"><path codeLine="48" d="M210.06,180.09 C195.32,207.13 174.8512,244.7016 158.3112,275.0516 " fill="transparent" id="Writer-to-EncodingType" style="stroke:#181818;stroke-width:1;"/><polygon fill="#181818" points="155.44,280.32,163.259,274.3315,157.8326,275.9296,156.2345,270.5032,155.44,280.32" style="stroke:#181818;stroke-width:1;"/></g><!--SRC=[VLFBJiCm4BptArOSgaJGExAYI1LG2Gu5GIZdhRqKGs9NjfEgLFmxTX_KQHCkJZIpCrwlnnzI452rT6keg9gJiOC1m1Bv5ou8BYpNXYvWux48_RHQ7S08Rh1D092gAtZmu9qnFC81lgRQtIlf99RocqJCtAl6WoB8hcByrPAP1GQTr6g2iYJHAdXnXh0AH6teZ_WP_Fto4gqzzAFDhQvGAjYSLKphC8adD7x73ZeOx4fQHxg4ZNM-D_u3M3iDKreblYMf5ZD9AsZyai8eXsUoTUcoeqlUCjbg2xCUswp8anIuLjO57HfaBDm7OtkBeaCvjacQpRKkywFoSHacXkKExz4qo1ahKIrgVvcCpTUEkYowodeSYovzRy_HF3fa_qxhHgk6ZCicAaycQZZqaGnN5yrE42_TUad9Zaci4um5q4SjErwIdtUQTYLd6-GxnRNmbOKtEWspebPKtVlrkStXeJmJYYWxP_oRaQx5nz-mRXLH2aV-X75c0xtVP2JqIddwMDtDHG-Yju07ttrp_TgJWdXeWry0]--></g></svg>