<svg xmlns="http://www.w3.org/2000/svg" xmlns:xlink="http://www.w3.org/1999/xlink" contentStyleType="text/css" data-diagram-type="SEQUENCE" height="309px" preserveAspectRatio="none" style="width:607px;height:309px;background:#FFFFFF;" version="1.1" viewBox="0 0 607 309" width="607px" zoomAndPan="magnify"><defs/><g><rect fill="transparent" height="118.2031" style="stroke:#000000;stroke-width:1.5;" width="540.1104" x="59.8975" y="124.5625"/><g><title>User</title><rect fill="transparent" height="237.4688" width="8" x="23.9551" y="36.2969"/><line style="stroke:#181818;stroke-width:0.5;stroke-dasharray:5.0,5.0;" x1="27" x2="27" y1="36.2969" y2="273.7656"/></g><g><title>&lt;&lt;component&gt;&gt; log</title><rect fill="transparent" height="237.4688" width="8" x="133.9595" y="36.2969"/><line style="stroke:#181818;stroke-width:0.5;stroke-dasharray:5.0,5.0;" x1="137.8975" x2="137.8975" y1="36.2969" y2="273.7656"/></g><g><title>&lt;&lt;component&gt;&gt; score_log_subscriber</title><rect fill="transparent" height="237.4688" width="8" x="342.5195" y="36.2969"/><line style="stroke:#181818;stroke-width:0.5;stroke-dasharray:5.0,5.0;" x1="346.0215" x2="346.0215" y1="36.2969" y2="273.7656"/></g><g><title>no-op logger</title><rect fill="transparent" height="237.4688" width="8" x="534.5127" y="36.2969"/><line style="stroke:#181818;stroke-width:0.5;stroke-dasharray:5.0,5.0;" x1="538.0176" x2="538.0176" y1="36.2969" y2="273.7656"/></g><rect fill="#E2E2F0" height="30.2969" rx="2.5" ry="2.5" style="stroke:#181818;stroke-width:0.5;" width="45.9102" x="5" y="5"/><text fill="#000000" font-family="sans-serif" font-size="14" lengthAdjust="spacing" textLength="31.9102" x="12" y="24.9951">User</text><rect fill="#E2E2F0" height="30.2969" rx="2.5" ry="2.5" style="stroke:#181818;stroke-width:0.5;" width="45.9102" x="5" y="272.7656"/><text fill="#000000" font-family="sans-serif" font-size="14" lengthAdjust="spacing" textLength="31.9102" x="12" y="292.7607">User</text><rect fill="#E2E2F0" height="30.2969" rx="2.5" ry="2.5" style="stroke:#181818;stroke-width:0.5;" width="136.124" x="69.8975" y="5"/><text fill="#000000" font-family="sans-serif" font-size="14" lengthAdjust="spacing" textLength="122.124" x="76.8975" y="24.9951">&#171;component&#187; log</text><rect fill="#E2E2F0" height="30.2969" rx="2.5" ry="2.5" style="stroke:#181818;stroke-width:0.5;" width="136.124" x="69.8975" y="272.7656"/><text fill="#000000" font-family="sans-serif" font-size="14" lengthAdjust="spacing" textLength="122.124" x="76.8975" y="292.7607">&#171;component&#187; log</text><rect fill="#E2E2F0" height="30.2969" rx="2.5" ry="2.5" style="stroke:#181818;stroke-width:0.5;" width="260.9961" x="216.0215" y="5"/><text fill="#000000" font-family="sans-serif" font-size="14" lengthAdjust="spacing" textLength="246.9961" x="223.0215" y="24.9951">&#171;component&#187; score_log_subscriber</text><rect fill="#E2E2F0" height="30.2969" rx="2.5" ry="2.5" style="stroke:#181818;stroke-width:0.5;" width="260.9961" x="216.0215" y="272.7656"/><text fill="#000000" font-family="sans-serif" font-size="14" lengthAdjust="spacing" textLength="246.9961" x="223.0215" y="292.7607">&#171;component&#187; score_log_subscriber</text><rect fill="#E2E2F0" height="30.2969" rx="2.5" ry="2.5" style="stroke:#181818;stroke-width:0.5;" width="102.9902" x="487.0176" y="5"/><text fill="#000000" font-family="sans-serif" font-size="14" lengthAdjust="spacing" textLength="88.9902" x="494.0176" y="24.9951">no-op logger</text><rect fill="#E2E2F0" height="30.2969" rx="2.5" ry="2.5" style="stroke:#181818;stroke-width:0.5;" width="102.9902" x="487.0176" y="272.7656"/><text fill="#000000" font-family="sans-serif" font-size="14" lengthAdjust="spacing" textLength="88.9902" x="494.0176" y="292.7607">no-op logger</text><polygon fill="#181818" points="125.9595,63.4297,135.9595,67.4297,125.9595,71.4297,129.9595,67.4297" style="stroke:#181818;stroke-width:1;"/><line style="stroke:#181818;stroke-width:1;" x1="27.9551" x2="131.9595" y1="67.4297" y2="67.4297"/><text fill="#000000" font-family="sans-serif" font-size="13" lengthAdjust="spacing" textLength="86.0044" x="34.9551" y="62.3638">Log message</text><line style="stroke:#181818;stroke-width:1;" x1="137.9595" x2="179.9595" y1="96.5625" y2="96.5625"/><line style="stroke:#181818;stroke-width:1;" x1="179.9595" x2="179.9595" y1="96.5625" y2="109.5625"/><line style="stroke:#181818;stroke-width:1;" x1="138.9595" x2="179.9595" y1="109.5625" y2="109.5625"/><polygon fill="#181818" points="148.9595,105.5625,138.9595,109.5625,148.9595,113.5625,144.9595,109.5625" style="stroke:#181818;stroke-width:1;"/><text fill="#000000" font-family="sans-serif" font-size="13" lengthAdjust="spacing" textLength="171.6978" x="144.9595" y="91.4966">Get global logger instance</text><path d="M59.8975,124.5625 L124.3403,124.5625 L124.3403,131.6953 L114.3403,141.6953 L59.8975,141.6953 L59.8975,124.5625 " fill="#EEEEEE" style="stroke:#000000;stroke-width:1.5;"/><rect fill="transparent" height="118.2031" style="stroke:#000000;stroke-width:1.5;" width="540.1104" x="59.8975" y="124.5625"/><text fill="#000000" font-family="sans-serif" font-size="13" font-weight="bold" lengthAdjust="spacing" textLength="19.4429" x="74.8975" y="137.6294">alt</text><text fill="#000000" font-family="sans-serif" font-size="11" font-weight="bold" lengthAdjust="spacing" textLength="74.6099" x="139.3403" y="136.7729">[registered]</text><polygon fill="#181818" points="334.5195,158.8281,344.5195,162.8281,334.5195,166.8281,338.5195,162.8281" style="stroke:#181818;stroke-width:1;"/><line style="stroke:#181818;stroke-width:1;" x1="137.9595" x2="340.5195" y1="162.8281" y2="162.8281"/><text fill="#000000" font-family="sans-serif" font-size="13" lengthAdjust="spacing" textLength="86.0044" x="144.9595" y="157.7622">Log message</text><polygon fill="#181818" points="148.9595,172.8281,138.9595,176.8281,148.9595,180.8281,144.9595,176.8281" style="stroke:#181818;stroke-width:1;"/><line style="stroke:#181818;stroke-width:1;stroke-dasharray:2.0,2.0;" x1="142.9595" x2="345.5195" y1="176.8281" y2="176.8281"/><line style="stroke:#000000;stroke-width:1;stroke-dasharray:2.0,2.0;" x1="59.8975" x2="600.0078" y1="185.8281" y2="185.8281"/><text fill="#000000" font-family="sans-serif" font-size="11" font-weight="bold" lengthAdjust="spacing" textLength="99.8218" x="64.8975" y="196.0386">[not-registered]</text><polygon fill="#181818" points="526.5127,216.7656,536.5127,220.7656,526.5127,224.7656,530.5127,220.7656" style="stroke:#181818;stroke-width:1;"/><line style="stroke:#181818;stroke-width:1;" x1="137.9595" x2="532.5127" y1="220.7656" y2="220.7656"/><text fill="#000000" font-family="sans-serif" font-size="13" lengthAdjust="spacing" textLength="105.1235" x="144.9595" y="215.6997">No-op operation</text><polygon fill="#181818" points="148.9595,230.7656,138.9595,234.7656,148.9595,238.7656,144.9595,234.7656" style="stroke:#181818;stroke-width:1;"/><line style="stroke:#181818;stroke-width:1;stroke-dasharray:2.0,2.0;" x1="142.9595" x2="537.5127" y1="234.7656" y2="234.7656"/><polygon fill="#181818" points="38.9551,251.7656,28.9551,255.7656,38.9551,259.7656,34.9551,255.7656" style="stroke:#181818;stroke-width:1;"/><line style="stroke:#181818;stroke-width:1;stroke-dasharray:2.0,2.0;" x1="32.9551" x2="136.9595" y1="255.7656" y2="255.7656"/><!--SRC=[VP4nRiCm34LtdOB8xWiKWTSiGRVE1gsmWb2554Zs_bKSDv4Jm08qY7pydn-gg9vZhiWEXoyZFG0QO7JHKFlUyHZbMeM9VHoXI5h0RnLsuiiUQr6KfZOnsUziKVEykimOVzvcMGQfD_sqKYnrkZz3MFQ2ONpumWUS9S6Lp31H28_wbZcHGoeoOrcL8RCvScmZM1oKKZOdfKk0TdgLTSaNenlrtnawhq35gAtimuxaCr5J_LpoIYL5py8Bt05RyNQxYArr_wW_]--></g></svg>