<svg xmlns="http://www.w3.org/2000/svg" xmlns:xlink="http://www.w3.org/1999/xlink" contentStyleType="text/css" data-diagram-type="CLASS" height="578px" preserveAspectRatio="none" style="width:1686px;height:578px;background:#FFFFFF;" version="1.1" viewBox="0 0 1686 578" width="1686px" zoomAndPan="magnify"><defs/><g><!--cluster log--><g id="cluster_log"><path d="M8.5,6 L33.9385,6 A3.75,3.75 0 0 1 36.4385,8.5 L43.4385,28.2969 L1676.5,28.2969 A2.5,2.5 0 0 1 1679,30.7969 L1679,568.5 A2.5,2.5 0 0 1 1676.5,571 L8.5,571 A2.5,2.5 0 0 1 6,568.5 L6,8.5 A2.5,2.5 0 0 1 8.5,6 " fill="transparent" style="stroke:#000000;stroke-width:1.5;"/><line style="stroke:#000000;stroke-width:1.5;" x1="6" x2="43.4385" y1="28.2969" y2="28.2969"/><text fill="#000000" font-family="sans-serif" font-size="14" font-weight="bold" lengthAdjust="spacing" textLength="24.4385" x="10" y="20.9951">log</text><text fill="#000000" font-family="sans-serif" font-size="14" font-style="italic" lengthAdjust="spacing" textLength="96.4824" x="798.2588" y="43.292">&#171;component&#187;</text></g><!--cluster score_log_fmt--><g id="cluster_score_log_fmt"><path d="M577.5,95.5 L686.959,95.5 A3.75,3.75 0 0 1 689.459,98 L696.459,117.7969 L1644.5,117.7969 A2.5,2.5 0 0 1 1647,120.2969 L1647,265 A2.5,2.5 0 0 1 1644.5,267.5 L577.5,267.5 A2.5,2.5 0 0 1 575,265 L575,98 A2.5,2.5 0 0 1 577.5,95.5 " fill="transparent" style="stroke:#000000;stroke-width:1.5;"/><line style="stroke:#000000;stroke-width:1.5;" x1="575" x2="696.459" y1="117.7969" y2="117.7969"/><text fill="#000000" font-family="sans-serif" font-size="14" font-weight="bold" lengthAdjust="spacing" textLength="108.459" x="579" y="110.4951">score_log_fmt</text></g><!--class Level--><g id="elem_Level"><rect codeLine="3" fill="#F1F1F1" height="154.0469" id="Level" rx="2.5" ry="2.5" style="stroke:#181818;stroke-width:0.5;" width="80.2012" x="112" y="393"/><ellipse cx="127" cy="413.1328" fill="#EB937F" rx="11" ry="11" style="stroke:#181818;stroke-width:1;"/><path d="M131.1094,419.1328 L123.3906,419.1328 L123.3906,406.7422 L131.1094,406.7422 L131.1094,408.8984 L125.8438,408.8984 L125.8438,411.5703 L130.6094,411.5703 L130.6094,413.7266 L125.8438,413.7266 L125.8438,416.9766 L131.1094,416.9766 L131.1094,419.1328 Z " fill="#000000"/><text fill="#000000" font-family="sans-serif" font-size="12" font-style="italic" lengthAdjust="spacing" textLength="49.0957" x="140.5527" y="409.1387">&#171;enum&#187;</text><ellipse cx="146" cy="419.6172" fill="#84BE84" rx="3" ry="3" style="stroke:#038048;stroke-width:1;"/><text fill="#000000" font-family="sans-serif" font-size="14" lengthAdjust="spacing" textLength="37.2012" x="152" y="424.9639">Level</text><line style="stroke:#181818;stroke-width:0.5;" x1="113" x2="191.2012" y1="433.2656" y2="433.2656"/><text fill="#000000" font-family="sans-serif" font-size="14" lengthAdjust="spacing" textLength="34.5898" x="118" y="450.2607">Fatal</text><text fill="#000000" font-family="sans-serif" font-size="14" lengthAdjust="spacing" textLength="34.6787" x="118" y="466.5576">Error</text><text fill="#000000" font-family="sans-serif" font-size="14" lengthAdjust="spacing" textLength="37.0508" x="118" y="482.8545">Warn</text><text fill="#000000" font-family="sans-serif" font-size="14" lengthAdjust="spacing" textLength="26.4961" x="118" y="499.1514">Info</text><text fill="#000000" font-family="sans-serif" font-size="14" lengthAdjust="spacing" textLength="46.04" x="118" y="515.4482">Debug</text><text fill="#000000" font-family="sans-serif" font-size="14" lengthAdjust="spacing" textLength="39.1973" x="118" y="531.7451">Trace</text><line style="stroke:#181818;stroke-width:0.5;" x1="113" x2="191.2012" y1="539.0469" y2="539.0469"/></g><!--class LevelFilter--><g id="elem_LevelFilter"><rect codeLine="12" fill="#F1F1F1" height="170.3438" id="LevelFilter" rx="2.5" ry="2.5" style="stroke:#181818;stroke-width:0.5;" width="115.8916" x="227" y="385"/><ellipse cx="242" cy="405.1328" fill="#EB937F" rx="11" ry="11" style="stroke:#181818;stroke-width:1;"/><path d="M246.1094,411.1328 L238.3906,411.1328 L238.3906,398.7422 L246.1094,398.7422 L246.1094,400.8984 L240.8438,400.8984 L240.8438,403.5703 L245.6094,403.5703 L245.6094,405.7266 L240.8438,405.7266 L240.8438,408.9766 L246.1094,408.9766 L246.1094,411.1328 Z " fill="#000000"/><text fill="#000000" font-family="sans-serif" font-size="12" font-style="italic" lengthAdjust="spacing" textLength="49.0957" x="273.3979" y="401.1387">&#171;enum&#187;</text><ellipse cx="261" cy="411.6172" fill="#84BE84" rx="3" ry="3" style="stroke:#038048;stroke-width:1;"/><text fill="#000000" font-family="sans-serif" font-size="14" lengthAdjust="spacing" textLength="72.8916" x="267" y="416.9639">LevelFilter</text><line style="stroke:#181818;stroke-width:0.5;" x1="228" x2="341.8916" y1="425.2656" y2="425.2656"/><text fill="#000000" font-family="sans-serif" font-size="14" lengthAdjust="spacing" textLength="20.877" x="233" y="442.2607">Off</text><text fill="#000000" font-family="sans-serif" font-size="14" lengthAdjust="spacing" textLength="34.5898" x="233" y="458.5576">Fatal</text><text fill="#000000" font-family="sans-serif" font-size="14" lengthAdjust="spacing" textLength="34.6787" x="233" y="474.8545">Error</text><text fill="#000000" font-family="sans-serif" font-size="14" lengthAdjust="spacing" textLength="37.0508" x="233" y="491.1514">Warn</text><text fill="#000000" font-family="sans-serif" font-size="14" lengthAdjust="spacing" textLength="26.4961" x="233" y="507.4482">Info</text><text fill="#000000" font-family="sans-serif" font-size="14" lengthAdjust="spacing" textLength="46.04" x="233" y="523.7451">Debug</text><text fill="#000000" font-family="sans-serif" font-size="14" lengthAdjust="spacing" textLength="39.1973" x="233" y="540.042">Trace</text><line style="stroke:#181818;stroke-width:0.5;" x1="228" x2="341.8916" y1="547.3438" y2="547.3438"/></g><!--class score_log--><g id="elem_score_log"><rect codeLine="22" fill="#F1F1F1" height="268.125" id="score_log" rx="2.5" ry="2.5" style="stroke:#181818;stroke-width:0.5;" width="526.0078" x="22" y="57"/><ellipse cx="247.6201" cy="77.1328" fill="#ADD1B2" rx="11" ry="11" style="stroke:#181818;stroke-width:1;"/><path d="M250.5889,82.7734 Q250.0107,83.0703 249.3701,83.2109 Q248.7295,83.3672 248.0264,83.3672 Q245.5264,83.3672 244.1982,81.7266 Q242.8857,80.0703 242.8857,76.9453 Q242.8857,73.8203 244.1982,72.1641 Q245.5264,70.5078 248.0264,70.5078 Q248.7295,70.5078 249.3701,70.6641 Q250.0264,70.8203 250.5889,71.1172 L250.5889,73.8359 Q249.9639,73.2578 249.3701,72.9922 Q248.7764,72.7109 248.1514,72.7109 Q246.8076,72.7109 246.1201,73.7891 Q245.4326,74.8516 245.4326,76.9453 Q245.4326,79.0391 246.1201,80.1172 Q246.8076,81.1797 248.1514,81.1797 Q248.7764,81.1797 249.3701,80.9141 Q249.9639,80.6328 250.5889,80.0547 L250.5889,82.7734 Z " fill="#000000"/><text fill="#000000" font-family="sans-serif" font-size="12" font-style="italic" lengthAdjust="spacing" textLength="59.7832" x="271.3623" y="73.1387">&#171;module&#187;</text><text fill="#000000" font-family="sans-serif" font-size="14" lengthAdjust="spacing" textLength="66.2676" x="268.1201" y="88.9639">score_log</text><line style="stroke:#181818;stroke-width:0.5;" x1="23" x2="547.0078" y1="97.2656" y2="97.2656"/><line style="stroke:#181818;stroke-width:0.5;" x1="23" x2="547.0078" y1="105.2656" y2="105.2656"/><ellipse cx="33" cy="118.9141" fill="#84BE84" rx="3" ry="3" style="stroke:#038048;stroke-width:1;"/><text fill="#000000" font-family="sans-serif" font-size="14" lengthAdjust="spacing" textLength="500.0078" x="42" y="122.2607">set_global_logger(logger: Box&lt;dyn Log&gt;) : Result&lt;(), SetLoggerError&gt;</text><ellipse cx="33" cy="135.2109" fill="#84BE84" rx="3" ry="3" style="stroke:#038048;stroke-width:1;"/><text fill="#000000" font-family="sans-serif" font-size="14" lengthAdjust="spacing" textLength="250.0039" x="42" y="138.5576">set_max_level(level: LevelFilter) : ()</text><ellipse cx="33" cy="151.5078" fill="#84BE84" rx="3" ry="3" style="stroke:#038048;stroke-width:1;"/><text fill="#000000" font-family="sans-serif" font-size="14" lengthAdjust="spacing" textLength="168.2256" x="42" y="154.8545">max_level() : LevelFilter</text><ellipse cx="33" cy="167.8047" fill="#84BE84" rx="3" ry="3" style="stroke:#038048;stroke-width:1;"/><text fill="#000000" font-family="sans-serif" font-size="14" lengthAdjust="spacing" textLength="232.2373" x="42" y="171.1514">global_logger() : &amp;'static dyn Log</text><text fill="#000000" font-family="sans-serif" font-size="14" lengthAdjust="spacing" textLength="4.4502" x="42" y="187.4482">&#160;</text><ellipse cx="33" cy="200.3984" fill="#84BE84" rx="3" ry="3" style="stroke:#038048;stroke-width:1;"/><text fill="#000000" font-family="sans-serif" font-size="14" lengthAdjust="spacing" textLength="264.8652" x="42" y="203.7451">log!(context: &amp;str, level: Level, ...) : ()</text><ellipse cx="33" cy="216.6953" fill="#84BE84" rx="3" ry="3" style="stroke:#038048;stroke-width:1;"/><text fill="#000000" font-family="sans-serif" font-size="14" lengthAdjust="spacing" textLength="324.9395" x="42" y="220.042">log_enabled!(context: &amp;str, level: Level) : bool</text><ellipse cx="33" cy="232.9922" fill="#84BE84" rx="3" ry="3" style="stroke:#038048;stroke-width:1;"/><text fill="#000000" font-family="sans-serif" font-size="14" lengthAdjust="spacing" textLength="85.8936" x="42" y="236.3389">fatal!(...) : ()</text><ellipse cx="33" cy="249.2891" fill="#84BE84" rx="3" ry="3" style="stroke:#038048;stroke-width:1;"/><text fill="#000000" font-family="sans-serif" font-size="14" lengthAdjust="spacing" textLength="88.874" x="42" y="252.6357">error!(...) : ()</text><ellipse cx="33" cy="265.5859" fill="#84BE84" rx="3" ry="3" style="stroke:#038048;stroke-width:1;"/><text fill="#000000" font-family="sans-serif" font-size="14" lengthAdjust="spacing" textLength="89.0859" x="42" y="268.9326">warn!(...) : ()</text><ellipse cx="33" cy="281.8828" fill="#84BE84" rx="3" ry="3" style="stroke:#038048;stroke-width:1;"/><text fill="#000000" font-family="sans-serif" font-size="14" lengthAdjust="spacing" textLength="80.6846" x="42" y="285.2295">info!(...) : ()</text><ellipse cx="33" cy="298.1797" fill="#84BE84" rx="3" ry="3" style="stroke:#038048;stroke-width:1;"/><text fill="#000000" font-family="sans-serif" font-size="14" lengthAdjust="spacing" textLength="98.5742" x="42" y="301.5264">debug!(...) : ()</text><ellipse cx="33" cy="314.4766" fill="#84BE84" rx="3" ry="3" style="stroke:#038048;stroke-width:1;"/><text fill="#000000" font-family="sans-serif" font-size="14" lengthAdjust="spacing" textLength="90.5625" x="42" y="317.8232">trace!(...) : ()</text></g><!--class score_log_fmt_macro--><g id="elem_score_log_fmt_macro"><rect codeLine="38" fill="#F1F1F1" height="72.5625" id="score_log_fmt_macro" rx="2.5" ry="2.5" style="stroke:#181818;stroke-width:0.5;" width="510.7363" x="378.5" y="433.5"/><ellipse cx="555.3389" cy="453.6328" fill="#ADD1B2" rx="11" ry="11" style="stroke:#181818;stroke-width:1;"/><path d="M558.3076,459.2734 Q557.7295,459.5703 557.0889,459.7109 Q556.4482,459.8672 555.7451,459.8672 Q553.2451,459.8672 551.917,458.2266 Q550.6045,456.5703 550.6045,453.4453 Q550.6045,450.3203 551.917,448.6641 Q553.2451,447.0078 555.7451,447.0078 Q556.4482,447.0078 557.0889,447.1641 Q557.7451,447.3203 558.3076,447.6172 L558.3076,450.3359 Q557.6826,449.7578 557.0889,449.4922 Q556.4951,449.2109 555.8701,449.2109 Q554.5264,449.2109 553.8389,450.2891 Q553.1514,451.3516 553.1514,453.4453 Q553.1514,455.5391 553.8389,456.6172 Q554.5264,457.6797 555.8701,457.6797 Q556.4951,457.6797 557.0889,457.4141 Q557.6826,457.1328 558.3076,456.5547 L558.3076,459.2734 Z " fill="#000000"/><text fill="#000000" font-family="sans-serif" font-size="12" font-style="italic" lengthAdjust="spacing" textLength="59.7832" x="620.2266" y="449.6387">&#171;module&#187;</text><text fill="#000000" font-family="sans-serif" font-size="14" lengthAdjust="spacing" textLength="148.5586" x="575.8389" y="465.4639">score_log_fmt_macro</text><line style="stroke:#181818;stroke-width:0.5;" x1="379.5" x2="888.2363" y1="473.7656" y2="473.7656"/><line style="stroke:#181818;stroke-width:0.5;" x1="379.5" x2="888.2363" y1="481.7656" y2="481.7656"/><ellipse cx="389.5" cy="495.4141" fill="#84BE84" rx="3" ry="3" style="stroke:#038048;stroke-width:1;"/><text fill="#000000" font-family="sans-serif" font-size="14" lengthAdjust="spacing" textLength="484.7363" x="398.5" y="498.7607">score_log_format_args!(format_string: &amp;str, args...) : Arguments&lt;'_&gt;</text></g><!--class ScoreDebug--><g id="elem_ScoreDebug"><rect codeLine="43" fill="#F1F1F1" height="72.5625" id="ScoreDebug" rx="2.5" ry="2.5" style="stroke:#181818;stroke-width:0.5;" width="473.7334" x="1149" y="154.5"/><ellipse cx="1333.3374" cy="174.6328" fill="#B4A7E5" rx="11" ry="11" style="stroke:#181818;stroke-width:1;"/><path d="M1329.2593,170.3984 L1329.2593,168.2422 L1336.6499,168.2422 L1336.6499,170.3984 L1334.1812,170.3984 L1334.1812,178.4766 L1336.6499,178.4766 L1336.6499,180.6328 L1329.2593,180.6328 L1329.2593,178.4766 L1331.728,178.4766 L1331.728,170.3984 L1329.2593,170.3984 Z " fill="#000000"/><text fill="#000000" font-family="sans-serif" font-size="12" font-style="italic" lengthAdjust="spacing" textLength="39.8438" x="1382.1948" y="170.6387">&#171;trait&#187;</text><ellipse cx="1358.8374" cy="181.1172" fill="#84BE84" rx="3" ry="3" style="stroke:#038048;stroke-width:1;"/><text fill="#000000" font-family="sans-serif" font-size="14" font-style="italic" lengthAdjust="spacing" textLength="85.5586" x="1364.8374" y="186.4639">ScoreDebug</text><line style="stroke:#181818;stroke-width:0.5;" x1="1150" x2="1621.7334" y1="194.7656" y2="194.7656"/><line style="stroke:#181818;stroke-width:0.5;" x1="1150" x2="1621.7334" y1="202.7656" y2="202.7656"/><ellipse cx="1160" cy="216.4141" fill="#84BE84" rx="3" ry="3" style="stroke:#038048;stroke-width:1;"/><text fill="#000000" font-family="sans-serif" font-size="14" lengthAdjust="spacing" textLength="447.7334" x="1169" y="219.7607">fmt(&amp;self, f: &amp;mut dyn ScoreWrite, spec: &amp;FormatSpec) : Result</text></g><!--class score_log_fmt--><g id="elem_score_log_fmt"><rect codeLine="47" fill="#F1F1F1" height="105.1563" id="score_log_fmt" rx="2.5" ry="2.5" style="stroke:#181818;stroke-width:0.5;" width="495.834" x="618" y="138.5"/><ellipse cx="813.0054" cy="158.6328" fill="#ADD1B2" rx="11" ry="11" style="stroke:#181818;stroke-width:1;"/><path d="M815.9741,164.2734 Q815.396,164.5703 814.7554,164.7109 Q814.1147,164.8672 813.4116,164.8672 Q810.9116,164.8672 809.5835,163.2266 Q808.271,161.5703 808.271,158.4453 Q808.271,155.3203 809.5835,153.6641 Q810.9116,152.0078 813.4116,152.0078 Q814.1147,152.0078 814.7554,152.1641 Q815.4116,152.3203 815.9741,152.6172 L815.9741,155.3359 Q815.3491,154.7578 814.7554,154.4922 Q814.1616,154.2109 813.5366,154.2109 Q812.1929,154.2109 811.5054,155.2891 Q810.8179,156.3516 810.8179,158.4453 Q810.8179,160.5391 811.5054,161.6172 Q812.1929,162.6797 813.5366,162.6797 Q814.1616,162.6797 814.7554,162.4141 Q815.3491,162.1328 815.9741,161.5547 L815.9741,164.2734 Z " fill="#000000"/><text fill="#000000" font-family="sans-serif" font-size="12" font-style="italic" lengthAdjust="spacing" textLength="59.7832" x="852.2754" y="154.6387">&#171;module&#187;</text><text fill="#000000" font-family="sans-serif" font-size="14" lengthAdjust="spacing" textLength="97.3232" x="833.5054" y="170.4639">score_log_fmt</text><line style="stroke:#181818;stroke-width:0.5;" x1="619" x2="1112.834" y1="178.7656" y2="178.7656"/><line style="stroke:#181818;stroke-width:0.5;" x1="619" x2="1112.834" y1="186.7656" y2="186.7656"/><ellipse cx="629" cy="200.4141" fill="#84BE84" rx="3" ry="3" style="stroke:#038048;stroke-width:1;"/><text fill="#000000" font-family="sans-serif" font-size="14" lengthAdjust="spacing" textLength="469.834" x="638" y="203.7607">write(output: &amp;mut dyn ScoreWrite, args: Arguments&lt;'_&gt;) : Result</text><text fill="#000000" font-family="sans-serif" font-size="14" lengthAdjust="spacing" textLength="4.4502" x="638" y="220.0576">&#160;</text><ellipse cx="629" cy="233.0078" fill="#84BE84" rx="3" ry="3" style="stroke:#038048;stroke-width:1;"/><text fill="#000000" font-family="sans-serif" font-size="14" lengthAdjust="spacing" textLength="339.6982" x="638" y="236.3545">score_write!(format_string: &amp;str, args...) : Result</text></g><!--link score_log to Level--><g id="link_score_log_Level"><path codeLine="54" d="M221.03,325.23 C209.92,348.37 198.71,371.71 188.65,392.66 " fill="transparent" id="score_log-Level" style="stroke:#181818;stroke-width:1;"/></g><!--link score_log to LevelFilter--><g id="link_score_log_LevelFilter"><path codeLine="55" d="M285,325.23 C285,345.46 285,365.85 285,384.65 " fill="transparent" id="score_log-LevelFilter" style="stroke:#181818;stroke-width:1;"/></g><!--link score_log to score_log_fmt_macro--><g id="link_score_log_score_log_fmt_macro"><path codeLine="56" d="M452.6,325.02 C502.94,364.98 554.04,405.54 589.12,433.38 " fill="transparent" id="score_log-score_log_fmt_macro" style="stroke:#181818;stroke-width:1;"/></g><!--link score_log to score_log_fmt--><g id="link_score_log_score_log_fmt"><path codeLine="57" d="M548.08,191 C553.81,191 559.54,191 565.2688,191 C568.1331,191 570.9972,191 573.8608,191 C574.2187,191 574.5767,191 574.9346,191 " fill="transparent" id="score_log-score_log_fmt" style="stroke:#181818;stroke-width:1;"/></g><!--SRC=[jLDDYzim4BtxLoYNNOTuymE2CRIqWKAWi2diqIZAM3NLXv76krbA_dibERLiLsbFzS5c_9vcthmPTPJze1o8q9oK9TEoqmeKLXNvcH7tR43raXpW5OJ3VJ12_jbJf6ACFXkZpHYzKAF6u8jgz1XyWbFFn-YReGn2TCsMDVUjG32fob-Rvl-gO89QIopJ1kh17QdFlO2PYeq5hBdG9oeyYOF9Xy-EVDINyloko47pQarsv1biBx3CrmKv0Xu2AqYjvjaalTJ2zvw7zsvgXC-JhoC_SZqo8KRAN9odFJnQfDWoSbENHR9ZhNAc5S857T6YASXKHK6ss-rIX3jKWw8d0UU_7lRdJbh7GMqQFxTLdiW9tfWaykRccGHQDziaSFPpJYBePxv4qkEl6-b7muo-jmYHgOsaM5F3xIg_1SwCLl7VhdZeLlI3uRrq5ywMZtKrhT_TBkPCmRHWwumsZMk073qbRBFJvdfgSIPji5fY_c11D0Lfd0pPOnX_EFfYMeI2s0wOW_P1yT45SMl7NDUuB0c3qjOCO_CrSjrZr-ET-jwLXI4J1VDqGzcGzDyU_z73f9Dulv-UXZMzytjohsPWOaEM9DFoxxXWPjVi5m00]--></g></svg>