<svg xmlns="http://www.w3.org/2000/svg" xmlns:xlink="http://www.w3.org/1999/xlink" contentStyleType="text/css" data-diagram-type="SEQUENCE" height="283px" preserveAspectRatio="none" style="width:569px;height:283px;background:#FFFFFF;" version="1.1" viewBox="0 0 569 283" width="569px" zoomAndPan="magnify"><defs/><g><rect fill="transparent" height="90.2031" style="stroke:#000000;stroke-width:1.5;" width="552.8657" x="10" y="140.6953"/><g><title>User</title><rect fill="transparent" height="211.6016" width="8" x="38.9551" y="36.2969"/><line style="stroke:#181818;stroke-width:0.5;stroke-dasharray:5.0,5.0;" x1="42" x2="42" y1="36.2969" y2="247.8984"/></g><g><title>&lt;&lt;component&gt;&gt; score_log_subscriber</title><rect fill="transparent" height="211.6016" width="8" x="272.2437" y="36.2969"/><line style="stroke:#181818;stroke-width:0.5;stroke-dasharray:5.0,5.0;" x1="275.7456" x2="275.7456" y1="36.2969" y2="247.8984"/></g><g><title>&lt;&lt;component&gt;&gt; log</title><rect fill="transparent" height="211.6016" width="8" x="480.8037" y="36.2969"/><line style="stroke:#181818;stroke-width:0.5;stroke-dasharray:5.0,5.0;" x1="484.7417" x2="484.7417" y1="36.2969" y2="247.8984"/></g><rect fill="#E2E2F0" height="30.2969" rx="2.5" ry="2.5" style="stroke:#181818;stroke-width:0.5;" width="45.9102" x="20" y="5"/><text fill="#000000" font-family="sans-serif" font-size="14" lengthAdjust="spacing" textLength="31.9102" x="27" y="24.9951">User</text><rect fill="#E2E2F0" height="30.2969" rx="2.5" ry="2.5" style="stroke:#181818;stroke-width:0.5;" width="45.9102" x="20" y="246.8984"/><text fill="#000000" font-family="sans-serif" font-size="14" lengthAdjust="spacing" textLength="31.9102" x="27" y="266.8936">User</text><rect fill="#E2E2F0" height="30.2969" rx="2.5" ry="2.5" style="stroke:#181818;stroke-width:0.5;" width="260.9961" x="145.7456" y="5"/><text fill="#000000" font-family="sans-serif" font-size="14" lengthAdjust="spacing" textLength="246.9961" x="152.7456" y="24.9951">&#171;component&#187; score_log_subscriber</text><rect fill="#E2E2F0" height="30.2969" rx="2.5" ry="2.5" style="stroke:#181818;stroke-width:0.5;" width="260.9961" x="145.7456" y="246.8984"/><text fill="#000000" font-family="sans-serif" font-size="14" lengthAdjust="spacing" textLength="246.9961" x="152.7456" y="266.8936">&#171;component&#187; score_log_subscriber</text><rect fill="#E2E2F0" height="30.2969" rx="2.5" ry="2.5" style="stroke:#181818;stroke-width:0.5;" width="136.124" x="416.7417" y="5"/><text fill="#000000" font-family="sans-serif" font-size="14" lengthAdjust="spacing" textLength="122.124" x="423.7417" y="24.9951">&#171;component&#187; log</text><rect fill="#E2E2F0" height="30.2969" rx="2.5" ry="2.5" style="stroke:#181818;stroke-width:0.5;" width="136.124" x="416.7417" y="246.8984"/><text fill="#000000" font-family="sans-serif" font-size="14" lengthAdjust="spacing" textLength="122.124" x="423.7417" y="266.8936">&#171;component&#187; log</text><polygon fill="#181818" points="264.2437,63.4297,274.2437,67.4297,264.2437,71.4297,268.2437,67.4297" style="stroke:#181818;stroke-width:1;"/><line style="stroke:#181818;stroke-width:1;" x1="42.9551" x2="270.2437" y1="67.4297" y2="67.4297"/><text fill="#000000" font-family="sans-serif" font-size="13" lengthAdjust="spacing" textLength="209.2886" x="49.9551" y="62.3638">Create concrete logger instance</text><polygon fill="#181818" points="53.9551,92.5625,43.9551,96.5625,53.9551,100.5625,49.9551,96.5625" style="stroke:#181818;stroke-width:1;"/><line style="stroke:#181818;stroke-width:1;stroke-dasharray:2.0,2.0;" x1="47.9551" x2="275.2437" y1="96.5625" y2="96.5625"/><text fill="#000000" font-family="sans-serif" font-size="13" lengthAdjust="spacing" textLength="104.2476" x="59.9551" y="91.4966">Logger instance</text><polygon fill="#181818" points="472.8037,121.6953,482.8037,125.6953,472.8037,129.6953,476.8037,125.6953" style="stroke:#181818;stroke-width:1;"/><line style="stroke:#181818;stroke-width:1;" x1="42.9551" x2="478.8037" y1="125.6953" y2="125.6953"/><text fill="#000000" font-family="sans-serif" font-size="13" lengthAdjust="spacing" textLength="66.8916" x="49.9551" y="120.6294">Set logger</text><path d="M10,140.6953 L74.4429,140.6953 L74.4429,147.8281 L64.4429,157.8281 L10,157.8281 L10,140.6953 " fill="#EEEEEE" style="stroke:#000000;stroke-width:1.5;"/><rect fill="transparent" height="90.2031" style="stroke:#000000;stroke-width:1.5;" width="552.8657" x="10" y="140.6953"/><text fill="#000000" font-family="sans-serif" font-size="13" font-weight="bold" lengthAdjust="spacing" textLength="19.4429" x="25" y="153.7622">alt</text><text fill="#000000" font-family="sans-serif" font-size="11" font-weight="bold" lengthAdjust="spacing" textLength="81.8608" x="89.4429" y="152.9058">[set-success]</text><polygon fill="#181818" points="53.9551,174.9609,43.9551,178.9609,53.9551,182.9609,49.9551,178.9609" style="stroke:#181818;stroke-width:1;"/><line style="stroke:#181818;stroke-width:1;stroke-dasharray:2.0,2.0;" x1="47.9551" x2="483.8037" y1="178.9609" y2="178.9609"/><text fill="#000000" font-family="sans-serif" font-size="13" lengthAdjust="spacing" textLength="17.7607" x="59.9551" y="173.895">Ok</text><line style="stroke:#000000;stroke-width:1;stroke-dasharray:2.0,2.0;" x1="10" x2="562.8657" y1="187.9609" y2="187.9609"/><text fill="#000000" font-family="sans-serif" font-size="11" font-weight="bold" lengthAdjust="spacing" textLength="68.9702" x="15" y="198.1714">[set-failed]</text><polygon fill="#181818" points="53.9551,218.8984,43.9551,222.8984,53.9551,226.8984,49.9551,222.8984" style="stroke:#181818;stroke-width:1;"/><line style="stroke:#181818;stroke-width:1;stroke-dasharray:2.0,2.0;" x1="47.9551" x2="483.8037" y1="222.8984" y2="222.8984"/><text fill="#000000" font-family="sans-serif" font-size="13" lengthAdjust="spacing" textLength="67.6851" x="59.9551" y="217.8325">Error code</text><!--SRC=[VO-n2eD038RtUuhWxWk8k9HkXGwbiyGOvT3UIHBVlwVLLWfjbWJoVN_8X6AU_8J18BihImQeW6HHt7JSbIN5nnG31wigK8h2zHZxMkT6INopcGtImA7zvoPhHJk9mHRMhUSWhtOR2ZW9ep5G32ISXYJrBE236WPYjvDvibvw0PSlvfExdqhGZMqBSpWQA5kkCn6hEaZr9e_1ry7ngBp27VgHsz_iMIHrYYsxvRSd]--></g></svg>