<svg xmlns="http://www.w3.org/2000/svg" xmlns:xlink="http://www.w3.org/1999/xlink" contentStyleType="text/css" data-diagram-type="DESCRIPTION" height="353px" preserveAspectRatio="none" style="width:613px;height:353px;background:#FFFFFF;" version="1.1" viewBox="0 0 613 353" width="613px" zoomAndPan="magnify"><defs/><g><!--cluster log--><g id="cluster_log"><path d="M8.5,6 L33.9385,6 A3.75,3.75 0 0 1 36.4385,8.5 L43.4385,28.2969 L397.5,28.2969 A2.5,2.5 0 0 1 400,30.7969 L400,265 A2.5,2.5 0 0 1 397.5,267.5 L8.5,267.5 A2.5,2.5 0 0 1 6,265 L6,8.5 A2.5,2.5 0 0 1 8.5,6 " fill="transparent" style="stroke:#000000;stroke-width:1.5;"/><line style="stroke:#000000;stroke-width:1.5;" x1="6" x2="43.4385" y1="28.2969" y2="28.2969"/><text fill="#000000" font-family="sans-serif" font-size="14" font-weight="bold" lengthAdjust="spacing" textLength="24.4385" x="10" y="20.9951">log</text><text fill="#000000" font-family="sans-serif" font-size="14" font-style="italic" lengthAdjust="spacing" textLength="96.4824" x="158.7588" y="43.292">&#171;component&#187;</text></g><!--entity score_log--><g id="elem_score_log"><rect fill="#F1F1F1" height="62.5938" rx="2.5" ry="2.5" style="stroke:#181818;stroke-width:0.5;" width="121.7207" x="228" y="57"/><rect fill="#F1F1F1" height="10" style="stroke:#181818;stroke-width:0.5;" width="15" x="329.7207" y="62"/><rect fill="#F1F1F1" height="2" style="stroke:#181818;stroke-width:0.5;" width="4" x="327.7207" y="64"/><rect fill="#F1F1F1" height="2" style="stroke:#181818;stroke-width:0.5;" width="4" x="327.7207" y="68"/><text fill="#000000" font-family="sans-serif" font-size="14" font-style="italic" lengthAdjust="spacing" textLength="79.7207" x="244" y="89.9951">&#171;interface&#187;</text><text fill="#000000" font-family="sans-serif" font-size="14" lengthAdjust="spacing" textLength="66.2676" x="250.7266" y="106.292">score_log</text></g><!--entity score_log_fmt--><g id="elem_score_log_fmt"><rect fill="#F1F1F1" height="46.2969" rx="2.5" ry="2.5" style="stroke:#181818;stroke-width:0.5;" width="137.3232" x="22.5" y="205.5"/><rect fill="#F1F1F1" height="10" style="stroke:#181818;stroke-width:0.5;" width="15" x="139.8232" y="210.5"/><rect fill="#F1F1F1" height="2" style="stroke:#181818;stroke-width:0.5;" width="4" x="137.8232" y="212.5"/><rect fill="#F1F1F1" height="2" style="stroke:#181818;stroke-width:0.5;" width="4" x="137.8232" y="216.5"/><text fill="#000000" font-family="sans-serif" font-size="14" lengthAdjust="spacing" textLength="97.3232" x="37.5" y="238.4951">score_log_fmt</text></g><!--entity score_log_fmt_macro--><g id="elem_score_log_fmt_macro"><rect fill="#F1F1F1" height="46.2969" rx="2.5" ry="2.5" style="stroke:#181818;stroke-width:0.5;" width="188.5586" x="194.5" y="205.5"/><rect fill="#F1F1F1" height="10" style="stroke:#181818;stroke-width:0.5;" width="15" x="363.0586" y="210.5"/><rect fill="#F1F1F1" height="2" style="stroke:#181818;stroke-width:0.5;" width="4" x="361.0586" y="212.5"/><rect fill="#F1F1F1" height="2" style="stroke:#181818;stroke-width:0.5;" width="4" x="361.0586" y="216.5"/><text fill="#000000" font-family="sans-serif" font-size="14" lengthAdjust="spacing" textLength="148.5586" x="209.5" y="238.4951">score_log_fmt_macro</text></g><!--entity score_log_subscriber--><g id="elem_score_log_subscriber"><rect fill="#F1F1F1" height="62.5938" rx="2.5" ry="2.5" style="stroke:#181818;stroke-width:0.5;" width="186.2139" x="419" y="197"/><rect fill="#F1F1F1" height="10" style="stroke:#181818;stroke-width:0.5;" width="15" x="585.2139" y="202"/><rect fill="#F1F1F1" height="2" style="stroke:#181818;stroke-width:0.5;" width="4" x="583.2139" y="204"/><rect fill="#F1F1F1" height="2" style="stroke:#181818;stroke-width:0.5;" width="4" x="583.2139" y="208"/><text fill="#000000" font-family="sans-serif" font-size="14" font-style="italic" lengthAdjust="spacing" textLength="96.4824" x="458.8657" y="229.9951">&#171;component&#187;</text><text fill="#000000" font-family="sans-serif" font-size="14" lengthAdjust="spacing" textLength="146.2139" x="434" y="246.292">score_log_subscriber</text></g><g id="elem_GMN9"><path d="M418,321 L418,346.1328 A0,0 0 0 0 418,346.1328 L606.3179,346.1328 A0,0 0 0 0 606.3179,346.1328 L606.3179,331 L596.3179,321 L516,321 L512,260.12 L508,321 L418,321 A0,0 0 0 0 418,321 " fill="#FEFFDD" style="stroke:#181818;stroke-width:0.5;"/><path d="M596.3179,321 L596.3179,331 L606.3179,331 L596.3179,321 " fill="#FEFFDD" style="stroke:#181818;stroke-width:0.5;"/><text fill="#000000" font-family="sans-serif" font-size="13" lengthAdjust="spacing" textLength="167.3179" x="424" y="338.0669">Backend implementation.</text></g><!--link score_log to score_log_fmt--><g id="link_score_log_score_log_fmt"><path d="M245.06,120.13 C208.03,145.93 160.8626,178.8096 127.7426,201.8896 " fill="transparent" id="score_log-to-score_log_fmt" style="stroke:#181818;stroke-width:1;stroke-dasharray:7.0,7.0;"/><polygon fill="#181818" points="122.82,205.32,132.4909,203.4562,126.9222,202.4613,127.917,196.8927,122.82,205.32" style="stroke:#181818;stroke-width:1;"/><text fill="#000000" font-family="sans-serif" font-size="13" lengthAdjust="spacing" textLength="23.0103" x="202" y="163.0669">use</text></g><!--link score_log to score_log_fmt_macro--><g id="link_score_log_score_log_fmt_macro"><path d="M289,120.13 C289,145.85 289,176.02 289,199.11 " fill="transparent" id="score_log-to-score_log_fmt_macro" style="stroke:#181818;stroke-width:1;stroke-dasharray:7.0,7.0;"/><polygon fill="#181818" points="289,205.11,293,196.11,289,200.11,285,196.11,289,205.11" style="stroke:#181818;stroke-width:1;"/><text fill="#000000" font-family="sans-serif" font-size="13" lengthAdjust="spacing" textLength="23.0103" x="290" y="163.0669">use</text></g><!--link score_log to score_log_subscriber--><g id="link_score_log_score_log_subscriber"><path d="M338.49,120.13 C375.45,143 420.6281,170.9524 457.5481,193.8024 " fill="transparent" id="score_log-to-score_log_subscriber" style="stroke:#181818;stroke-width:1;"/><polygon fill="#181818" points="462.65,196.96,457.1022,188.8223,458.3984,194.3287,452.8921,195.6249,462.65,196.96" style="stroke:#181818;stroke-width:1;"/><text fill="#000000" font-family="sans-serif" font-size="13" lengthAdjust="spacing" textLength="76.9082" x="414" y="163.0669">implements</text></g><!--SRC=[XP1B3i8m34JtFeMLVNC0L6N1HQ8qk5L44rU9kqBSdHIg5X0VBptFdh4dvyzk85GZ3mhRrdESE54IO_02M6lhe2gUCzcL34aezywJCV0Lj7qKzLksqVdCAxGfgBN15muFE1VwHpsshUmLuADhcRlYS-WelvqCYOMmOn6ETwTZVG-b4uOuZHGhuoHmqh3q5XPWpz8qprbsZnfc6ozm0m00]--></g></svg>